G75*
%MOIN*%
%OFA0B0*%
%FSLAX25Y25*%
%IPPOS*%
%LPD*%
%AMOC8*
5,1,8,0,0,1.08239X$1,22.5*
%
%ADD10C,0.08200*%
%ADD11R,0.05524X0.07887*%
%ADD12R,0.03162X0.06902*%
%ADD13R,0.05131X0.04737*%
%ADD14C,0.06824*%
%ADD15C,0.12808*%
%ADD16C,0.08200*%
%ADD17R,0.04737X0.05131*%
%ADD18C,0.13800*%
%ADD19C,0.04800*%
D10*
X0281000Y0028550D02*
X0281000Y0035950D01*
X0291000Y0035950D02*
X0291000Y0028550D01*
X0301000Y0028550D02*
X0301000Y0035950D01*
X0311000Y0035950D02*
X0311000Y0028550D01*
X0321000Y0028550D02*
X0321000Y0035950D01*
X0331000Y0035950D02*
X0331000Y0028550D01*
D11*
X0247803Y0023490D03*
X0225882Y0023490D03*
X0160803Y0023490D03*
X0130882Y0023490D03*
X0115803Y0023490D03*
X0085882Y0023490D03*
D12*
X0091000Y0032250D03*
X0094937Y0032250D03*
X0098874Y0032250D03*
X0102811Y0032250D03*
X0106748Y0032250D03*
X0110685Y0032250D03*
X0136000Y0032250D03*
X0139937Y0032250D03*
X0143874Y0032250D03*
X0147811Y0032250D03*
X0151748Y0032250D03*
X0155685Y0032250D03*
X0231000Y0032250D03*
X0234937Y0032250D03*
X0238874Y0032250D03*
X0242811Y0032250D03*
D13*
X0184346Y0032250D03*
X0177654Y0032250D03*
X0177654Y0022250D03*
X0184346Y0022250D03*
X0184346Y0042250D03*
X0177654Y0042250D03*
X0177654Y0052250D03*
X0184346Y0052250D03*
D14*
X0372220Y0109238D02*
X0372220Y0115262D01*
X0386000Y0115262D02*
X0386000Y0109238D01*
D15*
X0379110Y0143392D03*
D16*
X0341000Y0132250D03*
X0331000Y0132250D03*
X0321000Y0132250D03*
X0311000Y0132250D03*
X0301000Y0132250D03*
X0256000Y0132250D03*
X0256000Y0122250D03*
X0256000Y0112250D03*
X0256000Y0102250D03*
X0256000Y0092250D03*
X0256000Y0082250D03*
X0256000Y0072250D03*
X0256000Y0062250D03*
X0311000Y0065250D03*
X0314000Y0073250D03*
X0328000Y0073250D03*
X0331000Y0065250D03*
X0326000Y0082250D03*
X0316000Y0082250D03*
X0380500Y0077250D03*
X0391500Y0077250D03*
X0391500Y0067250D03*
X0380500Y0067250D03*
X0380500Y0057250D03*
X0391500Y0057250D03*
X0391500Y0047250D03*
X0380500Y0047250D03*
X0380500Y0037250D03*
X0391500Y0037250D03*
X0071000Y0082250D03*
X0071000Y0092250D03*
X0071000Y0102250D03*
X0071000Y0112250D03*
X0071000Y0122250D03*
X0071000Y0132250D03*
X0071000Y0142250D03*
X0031500Y0072250D03*
X0020500Y0072250D03*
X0020500Y0062250D03*
X0031500Y0062250D03*
X0031500Y0052250D03*
X0020500Y0052250D03*
X0020500Y0042250D03*
X0031500Y0042250D03*
X0031500Y0032250D03*
X0020500Y0032250D03*
D17*
X0171000Y0068904D03*
X0171000Y0075596D03*
X0171000Y0083904D03*
X0171000Y0090596D03*
X0271000Y0093904D03*
X0271000Y0100596D03*
D18*
X0056000Y0012250D03*
X0351000Y0012250D03*
X0351000Y0157250D03*
X0056000Y0157250D03*
D19*
X0051000Y0132250D03*
X0051000Y0122250D03*
X0201000Y0042250D03*
X0201000Y0032250D03*
X0281000Y0012250D03*
X0291000Y0012250D03*
X0301000Y0012250D03*
X0311000Y0012250D03*
X0321000Y0012250D03*
X0331000Y0012250D03*
X0391000Y0012250D03*
M02*
