%
M48
M72
T01C0.0200
T02C0.0400
T03C0.0402
T04C0.0440
T05C0.1201
T06C0.1300
%
T01
X2240Y2185
X4800Y3625
X6080Y4105
X4640Y4905
X3680Y4745
X1280Y4585
X9920Y6505
X14080Y4905
X15520Y4265
X16640Y4105
X17120Y3625
X14880Y2505
X16480Y1705
X15200Y1225
X14400Y3945
X17100Y5725
X26400Y3305
X29440Y4745
X35680Y8265
X40160Y4745
X4160Y9225
T02
X7100Y9225
X7100Y8225
X3150Y7225
X2050Y7225
X2050Y6225
X3150Y6225
X3150Y5225
X2050Y5225
X2050Y4225
X3150Y4225
X3150Y3225
X2050Y3225
X7100Y10225
X7100Y11225
X7100Y12225
X7100Y13225
X7100Y14225
X25600Y13225
X25600Y12225
X25600Y11225
X25600Y10225
X25600Y9225
X25600Y8225
X25600Y7225
X25600Y6225
X31100Y6525
X31400Y7325
X32800Y7325
X33100Y6525
X32600Y8225
X31600Y8225
X38050Y7725
X39150Y7725
X39150Y6725
X38050Y6725
X38050Y5725
X39150Y5725
X39150Y4725
X38050Y4725
X38050Y3725
X39150Y3725
X34100Y13225
X33100Y13225
X32100Y13225
X31100Y13225
X30100Y13225
T03
X37222Y11225
X38600Y11225
T04
X33100Y3225
X32100Y3225
X31100Y3225
X30100Y3225
X29100Y3225
X28100Y3225
T05
X37911Y14339
T06
X35100Y15725
X5600Y15725
X5600Y1225
X35100Y1225
M30
