%
M48
M72
T01C0.02000
T02C0.04000
T03C0.04016
T04C0.04400
T05C0.12008
T06C0.13000
%
T01
X22400Y21850
X48000Y36250
X60800Y41050
X46400Y49050
X36800Y47450
X12800Y45850
X99200Y65050
X140800Y49050
X155200Y42650
X166400Y41050
X171200Y36250
X148800Y25050
X164800Y17050
X152000Y12250
X144000Y39450
X171000Y57250
X264000Y33050
X294400Y47450
X356800Y82650
X401600Y47450
X41600Y92250
T02
X71000Y92250
X71000Y82250
X31500Y72250
X20500Y72250
X20500Y62250
X31500Y62250
X31500Y52250
X20500Y52250
X20500Y42250
X31500Y42250
X31500Y32250
X20500Y32250
X71000Y102250
X71000Y112250
X71000Y122250
X71000Y132250
X71000Y142250
X256000Y132250
X256000Y122250
X256000Y112250
X256000Y102250
X256000Y92250
X256000Y82250
X256000Y72250
X256000Y62250
X311000Y65250
X314000Y73250
X328000Y73250
X331000Y65250
X326000Y82250
X316000Y82250
X380500Y77250
X391500Y77250
X391500Y67250
X380500Y67250
X380500Y57250
X391500Y57250
X391500Y47250
X380500Y47250
X380500Y37250
X391500Y37250
X341000Y132250
X331000Y132250
X321000Y132250
X311000Y132250
X301000Y132250
T03
X372220Y112250
X386000Y112250
T04
X331000Y32250
X321000Y32250
X311000Y32250
X301000Y32250
X291000Y32250
X281000Y32250
T05
X379110Y143392
T06
X351000Y157250
X56000Y157250
X56000Y12250
X351000Y12250
M30
