G75*
%MOIN*%
%OFA0B0*%
%FSLAX25Y25*%
%IPPOS*%
%LPD*%
%AMOC8*
5,1,8,0,0,1.08239X$1,22.5*
%
%ADD10C,0.01100*%
%ADD11C,0.00600*%
%ADD12C,0.00800*%
%ADD13C,0.01000*%
%ADD14C,0.01600*%
%ADD15C,0.00001*%
%ADD16C,0.00500*%
D10*
X0091550Y0014111D02*
X0091550Y0017389D01*
X0091552Y0017460D01*
X0091558Y0017531D01*
X0091567Y0017601D01*
X0091581Y0017671D01*
X0091598Y0017740D01*
X0091619Y0017808D01*
X0091643Y0017874D01*
X0091671Y0017939D01*
X0091703Y0018003D01*
X0091738Y0018065D01*
X0091776Y0018125D01*
X0091817Y0018182D01*
X0091862Y0018238D01*
X0091909Y0018291D01*
X0091959Y0018341D01*
X0092012Y0018388D01*
X0092068Y0018433D01*
X0092125Y0018474D01*
X0092185Y0018512D01*
X0092247Y0018547D01*
X0092311Y0018579D01*
X0092376Y0018607D01*
X0092442Y0018631D01*
X0092510Y0018652D01*
X0092579Y0018669D01*
X0092649Y0018683D01*
X0092719Y0018692D01*
X0092790Y0018698D01*
X0092861Y0018700D01*
X0094828Y0018700D01*
X0098240Y0018700D02*
X0099878Y0018700D01*
X0098240Y0018700D02*
X0098240Y0012800D01*
X0094828Y0012800D02*
X0092861Y0012800D01*
X0092790Y0012802D01*
X0092719Y0012808D01*
X0092649Y0012817D01*
X0092579Y0012831D01*
X0092510Y0012848D01*
X0092442Y0012869D01*
X0092376Y0012893D01*
X0092311Y0012921D01*
X0092247Y0012953D01*
X0092185Y0012988D01*
X0092125Y0013026D01*
X0092068Y0013067D01*
X0092012Y0013112D01*
X0091959Y0013159D01*
X0091909Y0013209D01*
X0091862Y0013262D01*
X0091817Y0013318D01*
X0091776Y0013375D01*
X0091738Y0013435D01*
X0091703Y0013497D01*
X0091671Y0013561D01*
X0091643Y0013626D01*
X0091619Y0013692D01*
X0091598Y0013760D01*
X0091581Y0013829D01*
X0091567Y0013899D01*
X0091558Y0013969D01*
X0091552Y0014040D01*
X0091550Y0014111D01*
X0093844Y0016078D02*
X0094828Y0016078D01*
X0094828Y0012800D01*
X0098240Y0015422D02*
X0099878Y0015422D01*
X0099957Y0015424D01*
X0100036Y0015430D01*
X0100115Y0015439D01*
X0100193Y0015453D01*
X0100270Y0015470D01*
X0100347Y0015490D01*
X0100422Y0015515D01*
X0100496Y0015543D01*
X0100569Y0015575D01*
X0100640Y0015610D01*
X0100709Y0015648D01*
X0100776Y0015690D01*
X0100841Y0015735D01*
X0100904Y0015783D01*
X0100965Y0015834D01*
X0101023Y0015888D01*
X0101078Y0015945D01*
X0101131Y0016004D01*
X0101180Y0016066D01*
X0101227Y0016130D01*
X0101270Y0016196D01*
X0101310Y0016264D01*
X0101347Y0016335D01*
X0101381Y0016406D01*
X0101410Y0016480D01*
X0101437Y0016555D01*
X0101459Y0016630D01*
X0101478Y0016707D01*
X0101494Y0016785D01*
X0101505Y0016863D01*
X0101513Y0016942D01*
X0101517Y0017021D01*
X0101517Y0017101D01*
X0101513Y0017180D01*
X0101505Y0017259D01*
X0101494Y0017337D01*
X0101478Y0017415D01*
X0101459Y0017492D01*
X0101437Y0017567D01*
X0101410Y0017642D01*
X0101381Y0017716D01*
X0101347Y0017787D01*
X0101310Y0017858D01*
X0101270Y0017926D01*
X0101227Y0017992D01*
X0101180Y0018056D01*
X0101131Y0018118D01*
X0101078Y0018177D01*
X0101023Y0018234D01*
X0100965Y0018288D01*
X0100904Y0018339D01*
X0100841Y0018387D01*
X0100776Y0018432D01*
X0100709Y0018474D01*
X0100640Y0018512D01*
X0100569Y0018547D01*
X0100496Y0018579D01*
X0100422Y0018607D01*
X0100347Y0018632D01*
X0100270Y0018652D01*
X0100193Y0018669D01*
X0100115Y0018683D01*
X0100036Y0018692D01*
X0099957Y0018698D01*
X0099878Y0018700D01*
X0103816Y0018700D02*
X0105127Y0018700D01*
X0104471Y0018700D02*
X0104471Y0012800D01*
X0103816Y0012800D02*
X0105127Y0012800D01*
X0107756Y0014439D02*
X0107756Y0017061D01*
X0107755Y0017061D02*
X0107757Y0017140D01*
X0107763Y0017219D01*
X0107772Y0017298D01*
X0107786Y0017376D01*
X0107803Y0017453D01*
X0107823Y0017530D01*
X0107848Y0017605D01*
X0107876Y0017679D01*
X0107908Y0017752D01*
X0107943Y0017823D01*
X0107981Y0017892D01*
X0108023Y0017959D01*
X0108068Y0018024D01*
X0108116Y0018087D01*
X0108167Y0018148D01*
X0108221Y0018206D01*
X0108278Y0018261D01*
X0108337Y0018314D01*
X0108399Y0018363D01*
X0108463Y0018410D01*
X0108529Y0018453D01*
X0108597Y0018493D01*
X0108668Y0018530D01*
X0108739Y0018564D01*
X0108813Y0018593D01*
X0108888Y0018620D01*
X0108963Y0018642D01*
X0109040Y0018661D01*
X0109118Y0018677D01*
X0109196Y0018688D01*
X0109275Y0018696D01*
X0109354Y0018700D01*
X0109434Y0018700D01*
X0109513Y0018696D01*
X0109592Y0018688D01*
X0109670Y0018677D01*
X0109748Y0018661D01*
X0109825Y0018642D01*
X0109900Y0018620D01*
X0109975Y0018593D01*
X0110049Y0018564D01*
X0110120Y0018530D01*
X0110191Y0018493D01*
X0110259Y0018453D01*
X0110325Y0018410D01*
X0110389Y0018363D01*
X0110451Y0018314D01*
X0110510Y0018261D01*
X0110567Y0018206D01*
X0110621Y0018148D01*
X0110672Y0018087D01*
X0110720Y0018024D01*
X0110765Y0017959D01*
X0110807Y0017892D01*
X0110845Y0017823D01*
X0110880Y0017752D01*
X0110912Y0017679D01*
X0110940Y0017605D01*
X0110965Y0017530D01*
X0110985Y0017453D01*
X0111002Y0017376D01*
X0111016Y0017298D01*
X0111025Y0017219D01*
X0111031Y0017140D01*
X0111033Y0017061D01*
X0111033Y0014439D01*
X0111031Y0014360D01*
X0111025Y0014281D01*
X0111016Y0014202D01*
X0111002Y0014124D01*
X0110985Y0014047D01*
X0110965Y0013970D01*
X0110940Y0013895D01*
X0110912Y0013821D01*
X0110880Y0013748D01*
X0110845Y0013677D01*
X0110807Y0013608D01*
X0110765Y0013541D01*
X0110720Y0013476D01*
X0110672Y0013413D01*
X0110621Y0013352D01*
X0110567Y0013294D01*
X0110510Y0013239D01*
X0110451Y0013186D01*
X0110389Y0013137D01*
X0110325Y0013090D01*
X0110259Y0013047D01*
X0110191Y0013007D01*
X0110120Y0012970D01*
X0110049Y0012936D01*
X0109975Y0012907D01*
X0109900Y0012880D01*
X0109825Y0012858D01*
X0109748Y0012839D01*
X0109670Y0012823D01*
X0109592Y0012812D01*
X0109513Y0012804D01*
X0109434Y0012800D01*
X0109354Y0012800D01*
X0109275Y0012804D01*
X0109196Y0012812D01*
X0109118Y0012823D01*
X0109040Y0012839D01*
X0108963Y0012858D01*
X0108888Y0012880D01*
X0108813Y0012907D01*
X0108739Y0012936D01*
X0108668Y0012970D01*
X0108597Y0013007D01*
X0108529Y0013047D01*
X0108463Y0013090D01*
X0108399Y0013137D01*
X0108337Y0013186D01*
X0108278Y0013239D01*
X0108221Y0013294D01*
X0108167Y0013352D01*
X0108116Y0013413D01*
X0108068Y0013476D01*
X0108023Y0013541D01*
X0107981Y0013608D01*
X0107943Y0013677D01*
X0107908Y0013748D01*
X0107876Y0013821D01*
X0107848Y0013895D01*
X0107823Y0013970D01*
X0107803Y0014047D01*
X0107786Y0014124D01*
X0107772Y0014202D01*
X0107763Y0014281D01*
X0107757Y0014360D01*
X0107755Y0014439D01*
X0126550Y0014111D02*
X0126550Y0017389D01*
X0126552Y0017460D01*
X0126558Y0017531D01*
X0126567Y0017601D01*
X0126581Y0017671D01*
X0126598Y0017740D01*
X0126619Y0017808D01*
X0126643Y0017874D01*
X0126671Y0017939D01*
X0126703Y0018003D01*
X0126738Y0018065D01*
X0126776Y0018125D01*
X0126817Y0018182D01*
X0126862Y0018238D01*
X0126909Y0018291D01*
X0126959Y0018341D01*
X0127012Y0018388D01*
X0127068Y0018433D01*
X0127125Y0018474D01*
X0127185Y0018512D01*
X0127247Y0018547D01*
X0127311Y0018579D01*
X0127376Y0018607D01*
X0127442Y0018631D01*
X0127510Y0018652D01*
X0127579Y0018669D01*
X0127649Y0018683D01*
X0127719Y0018692D01*
X0127790Y0018698D01*
X0127861Y0018700D01*
X0129172Y0018700D01*
X0131824Y0016733D02*
X0131824Y0013783D01*
X0131825Y0013783D02*
X0131827Y0013721D01*
X0131833Y0013660D01*
X0131842Y0013599D01*
X0131856Y0013539D01*
X0131873Y0013479D01*
X0131894Y0013421D01*
X0131919Y0013364D01*
X0131947Y0013309D01*
X0131978Y0013256D01*
X0132013Y0013205D01*
X0132051Y0013156D01*
X0132091Y0013110D01*
X0132135Y0013066D01*
X0132181Y0013026D01*
X0132230Y0012988D01*
X0132281Y0012953D01*
X0132334Y0012922D01*
X0132389Y0012894D01*
X0132446Y0012869D01*
X0132504Y0012848D01*
X0132564Y0012831D01*
X0132624Y0012817D01*
X0132685Y0012808D01*
X0132746Y0012802D01*
X0132808Y0012800D01*
X0134447Y0012800D01*
X0134447Y0016733D01*
X0137619Y0016733D02*
X0139585Y0016733D01*
X0139585Y0016078D01*
X0137619Y0016733D02*
X0137619Y0012800D01*
X0141926Y0012800D02*
X0141926Y0016733D01*
X0143893Y0016733D01*
X0143893Y0016078D01*
X0145979Y0015422D02*
X0145979Y0013783D01*
X0145981Y0013721D01*
X0145987Y0013660D01*
X0145996Y0013599D01*
X0146010Y0013539D01*
X0146027Y0013479D01*
X0146048Y0013421D01*
X0146073Y0013364D01*
X0146101Y0013309D01*
X0146132Y0013256D01*
X0146167Y0013205D01*
X0146205Y0013156D01*
X0146245Y0013110D01*
X0146289Y0013066D01*
X0146335Y0013026D01*
X0146384Y0012988D01*
X0146435Y0012953D01*
X0146488Y0012922D01*
X0146543Y0012894D01*
X0146600Y0012869D01*
X0146658Y0012848D01*
X0146718Y0012831D01*
X0146778Y0012817D01*
X0146839Y0012808D01*
X0146900Y0012802D01*
X0146962Y0012800D01*
X0148601Y0012800D01*
X0148601Y0014767D02*
X0145979Y0014767D01*
X0145979Y0015422D02*
X0145981Y0015493D01*
X0145987Y0015564D01*
X0145996Y0015634D01*
X0146010Y0015704D01*
X0146027Y0015773D01*
X0146048Y0015841D01*
X0146072Y0015907D01*
X0146100Y0015972D01*
X0146132Y0016036D01*
X0146167Y0016098D01*
X0146205Y0016158D01*
X0146246Y0016215D01*
X0146291Y0016271D01*
X0146338Y0016324D01*
X0146388Y0016374D01*
X0146441Y0016421D01*
X0146497Y0016466D01*
X0146554Y0016507D01*
X0146614Y0016545D01*
X0146676Y0016580D01*
X0146740Y0016612D01*
X0146805Y0016640D01*
X0146871Y0016664D01*
X0146939Y0016685D01*
X0147008Y0016702D01*
X0147078Y0016716D01*
X0147148Y0016725D01*
X0147219Y0016731D01*
X0147290Y0016733D01*
X0147361Y0016731D01*
X0147432Y0016725D01*
X0147502Y0016716D01*
X0147572Y0016702D01*
X0147641Y0016685D01*
X0147709Y0016664D01*
X0147775Y0016640D01*
X0147840Y0016612D01*
X0147904Y0016580D01*
X0147966Y0016545D01*
X0148026Y0016507D01*
X0148083Y0016466D01*
X0148139Y0016421D01*
X0148192Y0016374D01*
X0148242Y0016324D01*
X0148289Y0016271D01*
X0148334Y0016215D01*
X0148375Y0016158D01*
X0148413Y0016098D01*
X0148448Y0016036D01*
X0148480Y0015972D01*
X0148508Y0015907D01*
X0148532Y0015841D01*
X0148553Y0015773D01*
X0148570Y0015704D01*
X0148584Y0015634D01*
X0148593Y0015564D01*
X0148599Y0015493D01*
X0148601Y0015422D01*
X0148601Y0014767D01*
X0151517Y0016733D02*
X0151517Y0012800D01*
X0154140Y0012800D02*
X0154140Y0015750D01*
X0154139Y0015750D02*
X0154137Y0015812D01*
X0154131Y0015873D01*
X0154122Y0015934D01*
X0154108Y0015994D01*
X0154091Y0016054D01*
X0154070Y0016112D01*
X0154045Y0016169D01*
X0154017Y0016224D01*
X0153986Y0016277D01*
X0153951Y0016328D01*
X0153913Y0016377D01*
X0153873Y0016423D01*
X0153829Y0016467D01*
X0153783Y0016507D01*
X0153734Y0016545D01*
X0153683Y0016580D01*
X0153630Y0016611D01*
X0153575Y0016639D01*
X0153518Y0016664D01*
X0153460Y0016685D01*
X0153400Y0016702D01*
X0153340Y0016716D01*
X0153279Y0016725D01*
X0153218Y0016731D01*
X0153156Y0016733D01*
X0151517Y0016733D01*
X0156494Y0016733D02*
X0158461Y0016733D01*
X0157150Y0018700D02*
X0157150Y0013783D01*
X0157152Y0013721D01*
X0157158Y0013660D01*
X0157167Y0013599D01*
X0157181Y0013539D01*
X0157198Y0013479D01*
X0157219Y0013421D01*
X0157244Y0013364D01*
X0157272Y0013309D01*
X0157303Y0013256D01*
X0157338Y0013205D01*
X0157376Y0013156D01*
X0157416Y0013110D01*
X0157460Y0013066D01*
X0157506Y0013026D01*
X0157555Y0012988D01*
X0157606Y0012953D01*
X0157659Y0012922D01*
X0157714Y0012894D01*
X0157771Y0012869D01*
X0157829Y0012848D01*
X0157889Y0012831D01*
X0157949Y0012817D01*
X0158010Y0012808D01*
X0158071Y0012802D01*
X0158133Y0012800D01*
X0158461Y0012800D01*
X0129172Y0012800D02*
X0127861Y0012800D01*
X0127790Y0012802D01*
X0127719Y0012808D01*
X0127649Y0012817D01*
X0127579Y0012831D01*
X0127510Y0012848D01*
X0127442Y0012869D01*
X0127376Y0012893D01*
X0127311Y0012921D01*
X0127247Y0012953D01*
X0127185Y0012988D01*
X0127125Y0013026D01*
X0127068Y0013067D01*
X0127012Y0013112D01*
X0126959Y0013159D01*
X0126909Y0013209D01*
X0126862Y0013262D01*
X0126817Y0013318D01*
X0126776Y0013375D01*
X0126738Y0013435D01*
X0126703Y0013497D01*
X0126671Y0013561D01*
X0126643Y0013626D01*
X0126619Y0013692D01*
X0126598Y0013760D01*
X0126581Y0013829D01*
X0126567Y0013899D01*
X0126558Y0013969D01*
X0126552Y0014040D01*
X0126550Y0014111D01*
X0206550Y0034439D02*
X0206550Y0037061D01*
X0206552Y0037140D01*
X0206558Y0037219D01*
X0206567Y0037298D01*
X0206581Y0037376D01*
X0206598Y0037453D01*
X0206618Y0037530D01*
X0206643Y0037605D01*
X0206671Y0037679D01*
X0206703Y0037752D01*
X0206738Y0037823D01*
X0206776Y0037892D01*
X0206818Y0037959D01*
X0206863Y0038024D01*
X0206911Y0038087D01*
X0206962Y0038148D01*
X0207016Y0038206D01*
X0207073Y0038261D01*
X0207132Y0038314D01*
X0207194Y0038363D01*
X0207258Y0038410D01*
X0207324Y0038453D01*
X0207392Y0038493D01*
X0207463Y0038530D01*
X0207534Y0038564D01*
X0207608Y0038593D01*
X0207683Y0038620D01*
X0207758Y0038642D01*
X0207835Y0038661D01*
X0207913Y0038677D01*
X0207991Y0038688D01*
X0208070Y0038696D01*
X0208149Y0038700D01*
X0208229Y0038700D01*
X0208308Y0038696D01*
X0208387Y0038688D01*
X0208465Y0038677D01*
X0208543Y0038661D01*
X0208620Y0038642D01*
X0208695Y0038620D01*
X0208770Y0038593D01*
X0208844Y0038564D01*
X0208915Y0038530D01*
X0208986Y0038493D01*
X0209054Y0038453D01*
X0209120Y0038410D01*
X0209184Y0038363D01*
X0209246Y0038314D01*
X0209305Y0038261D01*
X0209362Y0038206D01*
X0209416Y0038148D01*
X0209467Y0038087D01*
X0209515Y0038024D01*
X0209560Y0037959D01*
X0209602Y0037892D01*
X0209640Y0037823D01*
X0209675Y0037752D01*
X0209707Y0037679D01*
X0209735Y0037605D01*
X0209760Y0037530D01*
X0209780Y0037453D01*
X0209797Y0037376D01*
X0209811Y0037298D01*
X0209820Y0037219D01*
X0209826Y0037140D01*
X0209828Y0037061D01*
X0209828Y0034439D01*
X0209826Y0034360D01*
X0209820Y0034281D01*
X0209811Y0034202D01*
X0209797Y0034124D01*
X0209780Y0034047D01*
X0209760Y0033970D01*
X0209735Y0033895D01*
X0209707Y0033821D01*
X0209675Y0033748D01*
X0209640Y0033677D01*
X0209602Y0033608D01*
X0209560Y0033541D01*
X0209515Y0033476D01*
X0209467Y0033413D01*
X0209416Y0033352D01*
X0209362Y0033294D01*
X0209305Y0033239D01*
X0209246Y0033186D01*
X0209184Y0033137D01*
X0209120Y0033090D01*
X0209054Y0033047D01*
X0208986Y0033007D01*
X0208915Y0032970D01*
X0208844Y0032936D01*
X0208770Y0032907D01*
X0208695Y0032880D01*
X0208620Y0032858D01*
X0208543Y0032839D01*
X0208465Y0032823D01*
X0208387Y0032812D01*
X0208308Y0032804D01*
X0208229Y0032800D01*
X0208149Y0032800D01*
X0208070Y0032804D01*
X0207991Y0032812D01*
X0207913Y0032823D01*
X0207835Y0032839D01*
X0207758Y0032858D01*
X0207683Y0032880D01*
X0207608Y0032907D01*
X0207534Y0032936D01*
X0207463Y0032970D01*
X0207392Y0033007D01*
X0207324Y0033047D01*
X0207258Y0033090D01*
X0207194Y0033137D01*
X0207132Y0033186D01*
X0207073Y0033239D01*
X0207016Y0033294D01*
X0206962Y0033352D01*
X0206911Y0033413D01*
X0206863Y0033476D01*
X0206818Y0033541D01*
X0206776Y0033608D01*
X0206738Y0033677D01*
X0206703Y0033748D01*
X0206671Y0033821D01*
X0206643Y0033895D01*
X0206618Y0033970D01*
X0206598Y0034047D01*
X0206581Y0034124D01*
X0206567Y0034202D01*
X0206558Y0034281D01*
X0206552Y0034360D01*
X0206550Y0034439D01*
X0212909Y0034439D02*
X0212909Y0038700D01*
X0216187Y0038700D02*
X0216187Y0034439D01*
X0216185Y0034360D01*
X0216179Y0034281D01*
X0216170Y0034202D01*
X0216156Y0034124D01*
X0216139Y0034047D01*
X0216119Y0033970D01*
X0216094Y0033895D01*
X0216066Y0033821D01*
X0216034Y0033748D01*
X0215999Y0033677D01*
X0215961Y0033608D01*
X0215919Y0033541D01*
X0215874Y0033476D01*
X0215826Y0033413D01*
X0215775Y0033352D01*
X0215721Y0033294D01*
X0215664Y0033239D01*
X0215605Y0033186D01*
X0215543Y0033137D01*
X0215479Y0033090D01*
X0215413Y0033047D01*
X0215345Y0033007D01*
X0215274Y0032970D01*
X0215203Y0032936D01*
X0215129Y0032907D01*
X0215054Y0032880D01*
X0214979Y0032858D01*
X0214902Y0032839D01*
X0214824Y0032823D01*
X0214746Y0032812D01*
X0214667Y0032804D01*
X0214588Y0032800D01*
X0214508Y0032800D01*
X0214429Y0032804D01*
X0214350Y0032812D01*
X0214272Y0032823D01*
X0214194Y0032839D01*
X0214117Y0032858D01*
X0214042Y0032880D01*
X0213967Y0032907D01*
X0213893Y0032936D01*
X0213822Y0032970D01*
X0213751Y0033007D01*
X0213683Y0033047D01*
X0213617Y0033090D01*
X0213553Y0033137D01*
X0213491Y0033186D01*
X0213432Y0033239D01*
X0213375Y0033294D01*
X0213321Y0033352D01*
X0213270Y0033413D01*
X0213222Y0033476D01*
X0213177Y0033541D01*
X0213135Y0033608D01*
X0213097Y0033677D01*
X0213062Y0033748D01*
X0213030Y0033821D01*
X0213002Y0033895D01*
X0212977Y0033970D01*
X0212957Y0034047D01*
X0212940Y0034124D01*
X0212926Y0034202D01*
X0212917Y0034281D01*
X0212911Y0034360D01*
X0212909Y0034439D01*
X0218858Y0038700D02*
X0222136Y0038700D01*
X0220497Y0038700D02*
X0220497Y0032800D01*
X0221317Y0042800D02*
X0219679Y0042800D01*
X0219679Y0048700D01*
X0221317Y0048700D01*
X0221395Y0048698D01*
X0221473Y0048693D01*
X0221550Y0048683D01*
X0221627Y0048670D01*
X0221703Y0048654D01*
X0221779Y0048634D01*
X0221853Y0048610D01*
X0221926Y0048583D01*
X0221998Y0048552D01*
X0222068Y0048518D01*
X0222137Y0048480D01*
X0222203Y0048440D01*
X0222268Y0048396D01*
X0222330Y0048349D01*
X0222390Y0048300D01*
X0222448Y0048247D01*
X0222503Y0048192D01*
X0222556Y0048134D01*
X0222605Y0048074D01*
X0222652Y0048012D01*
X0222696Y0047947D01*
X0222736Y0047881D01*
X0222774Y0047812D01*
X0222808Y0047742D01*
X0222839Y0047670D01*
X0222866Y0047597D01*
X0222890Y0047523D01*
X0222910Y0047447D01*
X0222926Y0047371D01*
X0222939Y0047294D01*
X0222949Y0047217D01*
X0222954Y0047139D01*
X0222956Y0047061D01*
X0222956Y0044439D01*
X0222954Y0044361D01*
X0222949Y0044283D01*
X0222939Y0044206D01*
X0222926Y0044129D01*
X0222910Y0044053D01*
X0222890Y0043977D01*
X0222866Y0043903D01*
X0222839Y0043830D01*
X0222808Y0043758D01*
X0222774Y0043688D01*
X0222736Y0043620D01*
X0222696Y0043553D01*
X0222652Y0043488D01*
X0222605Y0043426D01*
X0222556Y0043366D01*
X0222503Y0043308D01*
X0222448Y0043253D01*
X0222390Y0043200D01*
X0222330Y0043151D01*
X0222268Y0043104D01*
X0222203Y0043060D01*
X0222137Y0043020D01*
X0222068Y0042982D01*
X0221998Y0042948D01*
X0221926Y0042917D01*
X0221853Y0042890D01*
X0221779Y0042866D01*
X0221703Y0042846D01*
X0221627Y0042830D01*
X0221550Y0042817D01*
X0221473Y0042807D01*
X0221395Y0042802D01*
X0221317Y0042800D01*
X0216392Y0042800D02*
X0216392Y0048700D01*
X0213114Y0048700D02*
X0216392Y0042800D01*
X0213114Y0042800D02*
X0213114Y0048700D01*
X0209828Y0048700D02*
X0207861Y0048700D01*
X0207790Y0048698D01*
X0207719Y0048692D01*
X0207649Y0048683D01*
X0207579Y0048669D01*
X0207510Y0048652D01*
X0207442Y0048631D01*
X0207376Y0048607D01*
X0207311Y0048579D01*
X0207247Y0048547D01*
X0207185Y0048512D01*
X0207125Y0048474D01*
X0207068Y0048433D01*
X0207012Y0048388D01*
X0206959Y0048341D01*
X0206909Y0048291D01*
X0206862Y0048238D01*
X0206817Y0048182D01*
X0206776Y0048125D01*
X0206738Y0048065D01*
X0206703Y0048003D01*
X0206671Y0047939D01*
X0206643Y0047874D01*
X0206619Y0047808D01*
X0206598Y0047740D01*
X0206581Y0047671D01*
X0206567Y0047601D01*
X0206558Y0047531D01*
X0206552Y0047460D01*
X0206550Y0047389D01*
X0206550Y0044111D01*
X0206552Y0044040D01*
X0206558Y0043969D01*
X0206567Y0043899D01*
X0206581Y0043829D01*
X0206598Y0043760D01*
X0206619Y0043692D01*
X0206643Y0043626D01*
X0206671Y0043561D01*
X0206703Y0043497D01*
X0206738Y0043435D01*
X0206776Y0043375D01*
X0206817Y0043318D01*
X0206862Y0043262D01*
X0206909Y0043209D01*
X0206959Y0043159D01*
X0207012Y0043112D01*
X0207068Y0043067D01*
X0207125Y0043026D01*
X0207185Y0042988D01*
X0207247Y0042953D01*
X0207311Y0042921D01*
X0207376Y0042893D01*
X0207442Y0042869D01*
X0207510Y0042848D01*
X0207579Y0042831D01*
X0207649Y0042817D01*
X0207719Y0042808D01*
X0207790Y0042802D01*
X0207861Y0042800D01*
X0209828Y0042800D01*
X0209828Y0046078D01*
X0208844Y0046078D01*
X0226550Y0018700D02*
X0229172Y0018700D01*
X0226550Y0018700D02*
X0226550Y0012800D01*
X0229172Y0012800D01*
X0231866Y0012800D02*
X0231866Y0018700D01*
X0235144Y0012800D01*
X0235144Y0018700D01*
X0238202Y0017389D02*
X0238202Y0014111D01*
X0238204Y0014040D01*
X0238210Y0013969D01*
X0238219Y0013899D01*
X0238233Y0013829D01*
X0238250Y0013760D01*
X0238271Y0013692D01*
X0238295Y0013626D01*
X0238323Y0013561D01*
X0238355Y0013497D01*
X0238390Y0013435D01*
X0238428Y0013375D01*
X0238469Y0013318D01*
X0238514Y0013262D01*
X0238561Y0013209D01*
X0238611Y0013159D01*
X0238664Y0013112D01*
X0238720Y0013067D01*
X0238777Y0013026D01*
X0238837Y0012988D01*
X0238899Y0012953D01*
X0238963Y0012921D01*
X0239028Y0012893D01*
X0239094Y0012869D01*
X0239162Y0012848D01*
X0239231Y0012831D01*
X0239301Y0012817D01*
X0239371Y0012808D01*
X0239442Y0012802D01*
X0239513Y0012800D01*
X0240824Y0012800D01*
X0238202Y0017389D02*
X0238204Y0017460D01*
X0238210Y0017531D01*
X0238219Y0017601D01*
X0238233Y0017671D01*
X0238250Y0017740D01*
X0238271Y0017808D01*
X0238295Y0017874D01*
X0238323Y0017939D01*
X0238355Y0018003D01*
X0238390Y0018065D01*
X0238428Y0018125D01*
X0238469Y0018182D01*
X0238514Y0018238D01*
X0238561Y0018291D01*
X0238611Y0018341D01*
X0238664Y0018388D01*
X0238720Y0018433D01*
X0238777Y0018474D01*
X0238837Y0018512D01*
X0238899Y0018547D01*
X0238963Y0018579D01*
X0239028Y0018607D01*
X0239094Y0018631D01*
X0239162Y0018652D01*
X0239231Y0018669D01*
X0239301Y0018683D01*
X0239371Y0018692D01*
X0239442Y0018698D01*
X0239513Y0018700D01*
X0240824Y0018700D01*
X0228517Y0016078D02*
X0226550Y0016078D01*
X0291550Y0017800D02*
X0291550Y0023700D01*
X0293517Y0020422D01*
X0295483Y0023700D01*
X0295483Y0017800D01*
X0298565Y0019111D02*
X0298565Y0020422D01*
X0298567Y0020493D01*
X0298573Y0020564D01*
X0298582Y0020634D01*
X0298596Y0020704D01*
X0298613Y0020773D01*
X0298634Y0020841D01*
X0298658Y0020907D01*
X0298686Y0020972D01*
X0298718Y0021036D01*
X0298753Y0021098D01*
X0298791Y0021158D01*
X0298832Y0021215D01*
X0298877Y0021271D01*
X0298924Y0021324D01*
X0298974Y0021374D01*
X0299027Y0021421D01*
X0299083Y0021466D01*
X0299140Y0021507D01*
X0299200Y0021545D01*
X0299262Y0021580D01*
X0299326Y0021612D01*
X0299391Y0021640D01*
X0299457Y0021664D01*
X0299525Y0021685D01*
X0299594Y0021702D01*
X0299664Y0021716D01*
X0299734Y0021725D01*
X0299805Y0021731D01*
X0299876Y0021733D01*
X0299947Y0021731D01*
X0300018Y0021725D01*
X0300088Y0021716D01*
X0300158Y0021702D01*
X0300227Y0021685D01*
X0300295Y0021664D01*
X0300361Y0021640D01*
X0300426Y0021612D01*
X0300490Y0021580D01*
X0300552Y0021545D01*
X0300612Y0021507D01*
X0300669Y0021466D01*
X0300725Y0021421D01*
X0300778Y0021374D01*
X0300828Y0021324D01*
X0300875Y0021271D01*
X0300920Y0021215D01*
X0300961Y0021158D01*
X0300999Y0021098D01*
X0301034Y0021036D01*
X0301066Y0020972D01*
X0301094Y0020907D01*
X0301118Y0020841D01*
X0301139Y0020773D01*
X0301156Y0020704D01*
X0301170Y0020634D01*
X0301179Y0020564D01*
X0301185Y0020493D01*
X0301187Y0020422D01*
X0301187Y0019111D01*
X0301185Y0019040D01*
X0301179Y0018969D01*
X0301170Y0018899D01*
X0301156Y0018829D01*
X0301139Y0018760D01*
X0301118Y0018692D01*
X0301094Y0018626D01*
X0301066Y0018561D01*
X0301034Y0018497D01*
X0300999Y0018435D01*
X0300961Y0018375D01*
X0300920Y0018318D01*
X0300875Y0018262D01*
X0300828Y0018209D01*
X0300778Y0018159D01*
X0300725Y0018112D01*
X0300669Y0018067D01*
X0300612Y0018026D01*
X0300552Y0017988D01*
X0300490Y0017953D01*
X0300426Y0017921D01*
X0300361Y0017893D01*
X0300295Y0017869D01*
X0300227Y0017848D01*
X0300158Y0017831D01*
X0300088Y0017817D01*
X0300018Y0017808D01*
X0299947Y0017802D01*
X0299876Y0017800D01*
X0299805Y0017802D01*
X0299734Y0017808D01*
X0299664Y0017817D01*
X0299594Y0017831D01*
X0299525Y0017848D01*
X0299457Y0017869D01*
X0299391Y0017893D01*
X0299326Y0017921D01*
X0299262Y0017953D01*
X0299200Y0017988D01*
X0299140Y0018026D01*
X0299083Y0018067D01*
X0299027Y0018112D01*
X0298974Y0018159D01*
X0298924Y0018209D01*
X0298877Y0018262D01*
X0298832Y0018318D01*
X0298791Y0018375D01*
X0298753Y0018435D01*
X0298718Y0018497D01*
X0298686Y0018561D01*
X0298658Y0018626D01*
X0298634Y0018692D01*
X0298613Y0018760D01*
X0298596Y0018829D01*
X0298582Y0018899D01*
X0298573Y0018969D01*
X0298567Y0019040D01*
X0298565Y0019111D01*
X0303992Y0018783D02*
X0303992Y0023700D01*
X0303336Y0021733D02*
X0305303Y0021733D01*
X0307796Y0020422D02*
X0307796Y0019111D01*
X0307798Y0019040D01*
X0307804Y0018969D01*
X0307813Y0018899D01*
X0307827Y0018829D01*
X0307844Y0018760D01*
X0307865Y0018692D01*
X0307889Y0018626D01*
X0307917Y0018561D01*
X0307949Y0018497D01*
X0307984Y0018435D01*
X0308022Y0018375D01*
X0308063Y0018318D01*
X0308108Y0018262D01*
X0308155Y0018209D01*
X0308205Y0018159D01*
X0308258Y0018112D01*
X0308314Y0018067D01*
X0308371Y0018026D01*
X0308431Y0017988D01*
X0308493Y0017953D01*
X0308557Y0017921D01*
X0308622Y0017893D01*
X0308688Y0017869D01*
X0308756Y0017848D01*
X0308825Y0017831D01*
X0308895Y0017817D01*
X0308965Y0017808D01*
X0309036Y0017802D01*
X0309107Y0017800D01*
X0309178Y0017802D01*
X0309249Y0017808D01*
X0309319Y0017817D01*
X0309389Y0017831D01*
X0309458Y0017848D01*
X0309526Y0017869D01*
X0309592Y0017893D01*
X0309657Y0017921D01*
X0309721Y0017953D01*
X0309783Y0017988D01*
X0309843Y0018026D01*
X0309900Y0018067D01*
X0309956Y0018112D01*
X0310009Y0018159D01*
X0310059Y0018209D01*
X0310106Y0018262D01*
X0310151Y0018318D01*
X0310192Y0018375D01*
X0310230Y0018435D01*
X0310265Y0018497D01*
X0310297Y0018561D01*
X0310325Y0018626D01*
X0310349Y0018692D01*
X0310370Y0018760D01*
X0310387Y0018829D01*
X0310401Y0018899D01*
X0310410Y0018969D01*
X0310416Y0019040D01*
X0310418Y0019111D01*
X0310418Y0020422D01*
X0310416Y0020493D01*
X0310410Y0020564D01*
X0310401Y0020634D01*
X0310387Y0020704D01*
X0310370Y0020773D01*
X0310349Y0020841D01*
X0310325Y0020907D01*
X0310297Y0020972D01*
X0310265Y0021036D01*
X0310230Y0021098D01*
X0310192Y0021158D01*
X0310151Y0021215D01*
X0310106Y0021271D01*
X0310059Y0021324D01*
X0310009Y0021374D01*
X0309956Y0021421D01*
X0309900Y0021466D01*
X0309843Y0021507D01*
X0309783Y0021545D01*
X0309721Y0021580D01*
X0309657Y0021612D01*
X0309592Y0021640D01*
X0309526Y0021664D01*
X0309458Y0021685D01*
X0309389Y0021702D01*
X0309319Y0021716D01*
X0309249Y0021725D01*
X0309178Y0021731D01*
X0309107Y0021733D01*
X0309036Y0021731D01*
X0308965Y0021725D01*
X0308895Y0021716D01*
X0308825Y0021702D01*
X0308756Y0021685D01*
X0308688Y0021664D01*
X0308622Y0021640D01*
X0308557Y0021612D01*
X0308493Y0021580D01*
X0308431Y0021545D01*
X0308371Y0021507D01*
X0308314Y0021466D01*
X0308258Y0021421D01*
X0308205Y0021374D01*
X0308155Y0021324D01*
X0308108Y0021271D01*
X0308063Y0021215D01*
X0308022Y0021158D01*
X0307984Y0021098D01*
X0307949Y0021036D01*
X0307917Y0020972D01*
X0307889Y0020907D01*
X0307865Y0020841D01*
X0307844Y0020773D01*
X0307827Y0020704D01*
X0307813Y0020634D01*
X0307804Y0020564D01*
X0307798Y0020493D01*
X0307796Y0020422D01*
X0304975Y0017800D02*
X0304913Y0017802D01*
X0304852Y0017808D01*
X0304791Y0017817D01*
X0304731Y0017831D01*
X0304671Y0017848D01*
X0304613Y0017869D01*
X0304556Y0017894D01*
X0304501Y0017922D01*
X0304448Y0017953D01*
X0304397Y0017988D01*
X0304348Y0018026D01*
X0304302Y0018066D01*
X0304258Y0018110D01*
X0304218Y0018156D01*
X0304180Y0018205D01*
X0304145Y0018256D01*
X0304114Y0018309D01*
X0304086Y0018364D01*
X0304061Y0018421D01*
X0304040Y0018479D01*
X0304023Y0018539D01*
X0304009Y0018599D01*
X0304000Y0018660D01*
X0303994Y0018721D01*
X0303992Y0018783D01*
X0304975Y0017800D02*
X0305303Y0017800D01*
X0313385Y0017800D02*
X0313385Y0021733D01*
X0315351Y0021733D01*
X0315351Y0021078D01*
X0320966Y0019275D02*
X0323916Y0019275D01*
X0324407Y0017800D02*
X0322441Y0023700D01*
X0320474Y0017800D01*
X0329868Y0023864D02*
X0330851Y0024847D01*
X0331834Y0023864D01*
X0371550Y0012389D02*
X0371550Y0009111D01*
X0371552Y0009040D01*
X0371558Y0008969D01*
X0371567Y0008899D01*
X0371581Y0008829D01*
X0371598Y0008760D01*
X0371619Y0008692D01*
X0371643Y0008626D01*
X0371671Y0008561D01*
X0371703Y0008497D01*
X0371738Y0008435D01*
X0371776Y0008375D01*
X0371817Y0008318D01*
X0371862Y0008262D01*
X0371909Y0008209D01*
X0371959Y0008159D01*
X0372012Y0008112D01*
X0372068Y0008067D01*
X0372125Y0008026D01*
X0372185Y0007988D01*
X0372247Y0007953D01*
X0372311Y0007921D01*
X0372376Y0007893D01*
X0372442Y0007869D01*
X0372510Y0007848D01*
X0372579Y0007831D01*
X0372649Y0007817D01*
X0372719Y0007808D01*
X0372790Y0007802D01*
X0372861Y0007800D01*
X0374828Y0007800D01*
X0374828Y0011078D01*
X0373844Y0011078D01*
X0371550Y0012389D02*
X0371552Y0012460D01*
X0371558Y0012531D01*
X0371567Y0012601D01*
X0371581Y0012671D01*
X0371598Y0012740D01*
X0371619Y0012808D01*
X0371643Y0012874D01*
X0371671Y0012939D01*
X0371703Y0013003D01*
X0371738Y0013065D01*
X0371776Y0013125D01*
X0371817Y0013182D01*
X0371862Y0013238D01*
X0371909Y0013291D01*
X0371959Y0013341D01*
X0372012Y0013388D01*
X0372068Y0013433D01*
X0372125Y0013474D01*
X0372185Y0013512D01*
X0372247Y0013547D01*
X0372311Y0013579D01*
X0372376Y0013607D01*
X0372442Y0013631D01*
X0372510Y0013652D01*
X0372579Y0013669D01*
X0372649Y0013683D01*
X0372719Y0013692D01*
X0372790Y0013698D01*
X0372861Y0013700D01*
X0374828Y0013700D01*
X0378114Y0013700D02*
X0381392Y0007800D01*
X0381392Y0013700D01*
X0378114Y0013700D02*
X0378114Y0007800D01*
X0384679Y0007800D02*
X0386317Y0007800D01*
X0384679Y0007800D02*
X0384679Y0013700D01*
X0386317Y0013700D01*
X0386395Y0013698D01*
X0386473Y0013693D01*
X0386550Y0013683D01*
X0386627Y0013670D01*
X0386703Y0013654D01*
X0386779Y0013634D01*
X0386853Y0013610D01*
X0386926Y0013583D01*
X0386998Y0013552D01*
X0387068Y0013518D01*
X0387137Y0013480D01*
X0387203Y0013440D01*
X0387268Y0013396D01*
X0387330Y0013349D01*
X0387390Y0013300D01*
X0387448Y0013247D01*
X0387503Y0013192D01*
X0387556Y0013134D01*
X0387605Y0013074D01*
X0387652Y0013012D01*
X0387696Y0012947D01*
X0387736Y0012881D01*
X0387774Y0012812D01*
X0387808Y0012742D01*
X0387839Y0012670D01*
X0387866Y0012597D01*
X0387890Y0012523D01*
X0387910Y0012447D01*
X0387926Y0012371D01*
X0387939Y0012294D01*
X0387949Y0012217D01*
X0387954Y0012139D01*
X0387956Y0012061D01*
X0387956Y0009439D01*
X0387954Y0009361D01*
X0387949Y0009283D01*
X0387939Y0009206D01*
X0387926Y0009129D01*
X0387910Y0009053D01*
X0387890Y0008977D01*
X0387866Y0008903D01*
X0387839Y0008830D01*
X0387808Y0008758D01*
X0387774Y0008688D01*
X0387736Y0008620D01*
X0387696Y0008553D01*
X0387652Y0008488D01*
X0387605Y0008426D01*
X0387556Y0008366D01*
X0387503Y0008308D01*
X0387448Y0008253D01*
X0387390Y0008200D01*
X0387330Y0008151D01*
X0387268Y0008104D01*
X0387203Y0008060D01*
X0387137Y0008020D01*
X0387068Y0007982D01*
X0386998Y0007948D01*
X0386926Y0007917D01*
X0386853Y0007890D01*
X0386779Y0007866D01*
X0386703Y0007846D01*
X0386627Y0007830D01*
X0386550Y0007817D01*
X0386473Y0007807D01*
X0386395Y0007802D01*
X0386317Y0007800D01*
X0395549Y0007800D02*
X0395549Y0013700D01*
X0397187Y0013700D02*
X0393910Y0013700D01*
X0399984Y0013700D02*
X0401623Y0013700D01*
X0401702Y0013698D01*
X0401781Y0013692D01*
X0401860Y0013683D01*
X0401938Y0013669D01*
X0402015Y0013652D01*
X0402092Y0013632D01*
X0402167Y0013607D01*
X0402241Y0013579D01*
X0402314Y0013547D01*
X0402385Y0013512D01*
X0402454Y0013474D01*
X0402521Y0013432D01*
X0402586Y0013387D01*
X0402649Y0013339D01*
X0402710Y0013288D01*
X0402768Y0013234D01*
X0402823Y0013177D01*
X0402876Y0013118D01*
X0402925Y0013056D01*
X0402972Y0012992D01*
X0403015Y0012926D01*
X0403055Y0012858D01*
X0403092Y0012787D01*
X0403126Y0012716D01*
X0403155Y0012642D01*
X0403182Y0012567D01*
X0403204Y0012492D01*
X0403223Y0012415D01*
X0403239Y0012337D01*
X0403250Y0012259D01*
X0403258Y0012180D01*
X0403262Y0012101D01*
X0403262Y0012021D01*
X0403258Y0011942D01*
X0403250Y0011863D01*
X0403239Y0011785D01*
X0403223Y0011707D01*
X0403204Y0011630D01*
X0403182Y0011555D01*
X0403155Y0011480D01*
X0403126Y0011406D01*
X0403092Y0011335D01*
X0403055Y0011264D01*
X0403015Y0011196D01*
X0402972Y0011130D01*
X0402925Y0011066D01*
X0402876Y0011004D01*
X0402823Y0010945D01*
X0402768Y0010888D01*
X0402710Y0010834D01*
X0402649Y0010783D01*
X0402586Y0010735D01*
X0402521Y0010690D01*
X0402454Y0010648D01*
X0402385Y0010610D01*
X0402314Y0010575D01*
X0402241Y0010543D01*
X0402167Y0010515D01*
X0402092Y0010490D01*
X0402015Y0010470D01*
X0401938Y0010453D01*
X0401860Y0010439D01*
X0401781Y0010430D01*
X0401702Y0010424D01*
X0401623Y0010422D01*
X0399984Y0010422D01*
X0399984Y0007800D02*
X0399984Y0013700D01*
X0041623Y0120422D02*
X0039984Y0120422D01*
X0041623Y0120422D02*
X0041702Y0120424D01*
X0041781Y0120430D01*
X0041860Y0120439D01*
X0041938Y0120453D01*
X0042015Y0120470D01*
X0042092Y0120490D01*
X0042167Y0120515D01*
X0042241Y0120543D01*
X0042314Y0120575D01*
X0042385Y0120610D01*
X0042454Y0120648D01*
X0042521Y0120690D01*
X0042586Y0120735D01*
X0042649Y0120783D01*
X0042710Y0120834D01*
X0042768Y0120888D01*
X0042823Y0120945D01*
X0042876Y0121004D01*
X0042925Y0121066D01*
X0042972Y0121130D01*
X0043015Y0121196D01*
X0043055Y0121264D01*
X0043092Y0121335D01*
X0043126Y0121406D01*
X0043155Y0121480D01*
X0043182Y0121555D01*
X0043204Y0121630D01*
X0043223Y0121707D01*
X0043239Y0121785D01*
X0043250Y0121863D01*
X0043258Y0121942D01*
X0043262Y0122021D01*
X0043262Y0122101D01*
X0043258Y0122180D01*
X0043250Y0122259D01*
X0043239Y0122337D01*
X0043223Y0122415D01*
X0043204Y0122492D01*
X0043182Y0122567D01*
X0043155Y0122642D01*
X0043126Y0122716D01*
X0043092Y0122787D01*
X0043055Y0122858D01*
X0043015Y0122926D01*
X0042972Y0122992D01*
X0042925Y0123056D01*
X0042876Y0123118D01*
X0042823Y0123177D01*
X0042768Y0123234D01*
X0042710Y0123288D01*
X0042649Y0123339D01*
X0042586Y0123387D01*
X0042521Y0123432D01*
X0042454Y0123474D01*
X0042385Y0123512D01*
X0042314Y0123547D01*
X0042241Y0123579D01*
X0042167Y0123607D01*
X0042092Y0123632D01*
X0042015Y0123652D01*
X0041938Y0123669D01*
X0041860Y0123683D01*
X0041781Y0123692D01*
X0041702Y0123698D01*
X0041623Y0123700D01*
X0039984Y0123700D01*
X0039984Y0117800D01*
X0035549Y0117800D02*
X0035549Y0123700D01*
X0037187Y0123700D02*
X0033910Y0123700D01*
X0027956Y0122061D02*
X0027956Y0119439D01*
X0027954Y0119361D01*
X0027949Y0119283D01*
X0027939Y0119206D01*
X0027926Y0119129D01*
X0027910Y0119053D01*
X0027890Y0118977D01*
X0027866Y0118903D01*
X0027839Y0118830D01*
X0027808Y0118758D01*
X0027774Y0118688D01*
X0027736Y0118620D01*
X0027696Y0118553D01*
X0027652Y0118488D01*
X0027605Y0118426D01*
X0027556Y0118366D01*
X0027503Y0118308D01*
X0027448Y0118253D01*
X0027390Y0118200D01*
X0027330Y0118151D01*
X0027268Y0118104D01*
X0027203Y0118060D01*
X0027137Y0118020D01*
X0027068Y0117982D01*
X0026998Y0117948D01*
X0026926Y0117917D01*
X0026853Y0117890D01*
X0026779Y0117866D01*
X0026703Y0117846D01*
X0026627Y0117830D01*
X0026550Y0117817D01*
X0026473Y0117807D01*
X0026395Y0117802D01*
X0026317Y0117800D01*
X0024679Y0117800D01*
X0024679Y0123700D01*
X0026317Y0123700D01*
X0026395Y0123698D01*
X0026473Y0123693D01*
X0026550Y0123683D01*
X0026627Y0123670D01*
X0026703Y0123654D01*
X0026779Y0123634D01*
X0026853Y0123610D01*
X0026926Y0123583D01*
X0026998Y0123552D01*
X0027068Y0123518D01*
X0027137Y0123480D01*
X0027203Y0123440D01*
X0027268Y0123396D01*
X0027330Y0123349D01*
X0027390Y0123300D01*
X0027448Y0123247D01*
X0027503Y0123192D01*
X0027556Y0123134D01*
X0027605Y0123074D01*
X0027652Y0123012D01*
X0027696Y0122947D01*
X0027736Y0122881D01*
X0027774Y0122812D01*
X0027808Y0122742D01*
X0027839Y0122670D01*
X0027866Y0122597D01*
X0027890Y0122523D01*
X0027910Y0122447D01*
X0027926Y0122371D01*
X0027939Y0122294D01*
X0027949Y0122217D01*
X0027954Y0122139D01*
X0027956Y0122061D01*
X0021392Y0123700D02*
X0021392Y0117800D01*
X0018114Y0123700D01*
X0018114Y0117800D01*
X0014828Y0117800D02*
X0012861Y0117800D01*
X0012790Y0117802D01*
X0012719Y0117808D01*
X0012649Y0117817D01*
X0012579Y0117831D01*
X0012510Y0117848D01*
X0012442Y0117869D01*
X0012376Y0117893D01*
X0012311Y0117921D01*
X0012247Y0117953D01*
X0012185Y0117988D01*
X0012125Y0118026D01*
X0012068Y0118067D01*
X0012012Y0118112D01*
X0011959Y0118159D01*
X0011909Y0118209D01*
X0011862Y0118262D01*
X0011817Y0118318D01*
X0011776Y0118375D01*
X0011738Y0118435D01*
X0011703Y0118497D01*
X0011671Y0118561D01*
X0011643Y0118626D01*
X0011619Y0118692D01*
X0011598Y0118760D01*
X0011581Y0118829D01*
X0011567Y0118899D01*
X0011558Y0118969D01*
X0011552Y0119040D01*
X0011550Y0119111D01*
X0011550Y0122389D01*
X0011552Y0122460D01*
X0011558Y0122531D01*
X0011567Y0122601D01*
X0011581Y0122671D01*
X0011598Y0122740D01*
X0011619Y0122808D01*
X0011643Y0122874D01*
X0011671Y0122939D01*
X0011703Y0123003D01*
X0011738Y0123065D01*
X0011776Y0123125D01*
X0011817Y0123182D01*
X0011862Y0123238D01*
X0011909Y0123291D01*
X0011959Y0123341D01*
X0012012Y0123388D01*
X0012068Y0123433D01*
X0012125Y0123474D01*
X0012185Y0123512D01*
X0012247Y0123547D01*
X0012311Y0123579D01*
X0012376Y0123607D01*
X0012442Y0123631D01*
X0012510Y0123652D01*
X0012579Y0123669D01*
X0012649Y0123683D01*
X0012719Y0123692D01*
X0012790Y0123698D01*
X0012861Y0123700D01*
X0014828Y0123700D01*
X0014828Y0121078D02*
X0014828Y0117800D01*
X0014828Y0121078D02*
X0013844Y0121078D01*
X0014172Y0132800D02*
X0011550Y0132800D01*
X0011550Y0138700D01*
X0014172Y0138700D01*
X0013517Y0136078D02*
X0011550Y0136078D01*
X0016920Y0135422D02*
X0018559Y0135422D01*
X0018887Y0135422D02*
X0020198Y0132800D01*
X0023279Y0132800D02*
X0023279Y0138700D01*
X0024918Y0138700D01*
X0024997Y0138698D01*
X0025076Y0138692D01*
X0025155Y0138683D01*
X0025233Y0138669D01*
X0025310Y0138652D01*
X0025387Y0138632D01*
X0025462Y0138607D01*
X0025536Y0138579D01*
X0025609Y0138547D01*
X0025680Y0138512D01*
X0025749Y0138474D01*
X0025816Y0138432D01*
X0025881Y0138387D01*
X0025944Y0138339D01*
X0026005Y0138288D01*
X0026063Y0138234D01*
X0026118Y0138177D01*
X0026171Y0138118D01*
X0026220Y0138056D01*
X0026267Y0137992D01*
X0026310Y0137926D01*
X0026350Y0137858D01*
X0026387Y0137787D01*
X0026421Y0137716D01*
X0026450Y0137642D01*
X0026477Y0137567D01*
X0026499Y0137492D01*
X0026518Y0137415D01*
X0026534Y0137337D01*
X0026545Y0137259D01*
X0026553Y0137180D01*
X0026557Y0137101D01*
X0026557Y0137021D01*
X0026553Y0136942D01*
X0026545Y0136863D01*
X0026534Y0136785D01*
X0026518Y0136707D01*
X0026499Y0136630D01*
X0026477Y0136555D01*
X0026450Y0136480D01*
X0026421Y0136406D01*
X0026387Y0136335D01*
X0026350Y0136264D01*
X0026310Y0136196D01*
X0026267Y0136130D01*
X0026220Y0136066D01*
X0026171Y0136004D01*
X0026118Y0135945D01*
X0026063Y0135888D01*
X0026005Y0135834D01*
X0025944Y0135783D01*
X0025881Y0135735D01*
X0025816Y0135690D01*
X0025749Y0135648D01*
X0025680Y0135610D01*
X0025609Y0135575D01*
X0025536Y0135543D01*
X0025462Y0135515D01*
X0025387Y0135490D01*
X0025310Y0135470D01*
X0025233Y0135453D01*
X0025155Y0135439D01*
X0025076Y0135430D01*
X0024997Y0135424D01*
X0024918Y0135422D01*
X0023279Y0135422D01*
X0025246Y0135422D02*
X0026557Y0132800D01*
X0033890Y0132800D02*
X0033890Y0138700D01*
X0032251Y0138700D02*
X0035529Y0138700D01*
X0038325Y0138700D02*
X0039964Y0138700D01*
X0040043Y0138698D01*
X0040122Y0138692D01*
X0040201Y0138683D01*
X0040279Y0138669D01*
X0040356Y0138652D01*
X0040433Y0138632D01*
X0040508Y0138607D01*
X0040582Y0138579D01*
X0040655Y0138547D01*
X0040726Y0138512D01*
X0040795Y0138474D01*
X0040862Y0138432D01*
X0040927Y0138387D01*
X0040990Y0138339D01*
X0041051Y0138288D01*
X0041109Y0138234D01*
X0041164Y0138177D01*
X0041217Y0138118D01*
X0041266Y0138056D01*
X0041313Y0137992D01*
X0041356Y0137926D01*
X0041396Y0137858D01*
X0041433Y0137787D01*
X0041467Y0137716D01*
X0041496Y0137642D01*
X0041523Y0137567D01*
X0041545Y0137492D01*
X0041564Y0137415D01*
X0041580Y0137337D01*
X0041591Y0137259D01*
X0041599Y0137180D01*
X0041603Y0137101D01*
X0041603Y0137021D01*
X0041599Y0136942D01*
X0041591Y0136863D01*
X0041580Y0136785D01*
X0041564Y0136707D01*
X0041545Y0136630D01*
X0041523Y0136555D01*
X0041496Y0136480D01*
X0041467Y0136406D01*
X0041433Y0136335D01*
X0041396Y0136264D01*
X0041356Y0136196D01*
X0041313Y0136130D01*
X0041266Y0136066D01*
X0041217Y0136004D01*
X0041164Y0135945D01*
X0041109Y0135888D01*
X0041051Y0135834D01*
X0040990Y0135783D01*
X0040927Y0135735D01*
X0040862Y0135690D01*
X0040795Y0135648D01*
X0040726Y0135610D01*
X0040655Y0135575D01*
X0040582Y0135543D01*
X0040508Y0135515D01*
X0040433Y0135490D01*
X0040356Y0135470D01*
X0040279Y0135453D01*
X0040201Y0135439D01*
X0040122Y0135430D01*
X0040043Y0135424D01*
X0039964Y0135422D01*
X0038325Y0135422D01*
X0038325Y0132800D02*
X0038325Y0138700D01*
X0018559Y0138700D02*
X0016920Y0138700D01*
X0016920Y0132800D01*
X0018559Y0135422D02*
X0018638Y0135424D01*
X0018717Y0135430D01*
X0018796Y0135439D01*
X0018874Y0135453D01*
X0018951Y0135470D01*
X0019028Y0135490D01*
X0019103Y0135515D01*
X0019177Y0135543D01*
X0019250Y0135575D01*
X0019321Y0135610D01*
X0019390Y0135648D01*
X0019457Y0135690D01*
X0019522Y0135735D01*
X0019585Y0135783D01*
X0019646Y0135834D01*
X0019704Y0135888D01*
X0019759Y0135945D01*
X0019812Y0136004D01*
X0019861Y0136066D01*
X0019908Y0136130D01*
X0019951Y0136196D01*
X0019991Y0136264D01*
X0020028Y0136335D01*
X0020062Y0136406D01*
X0020091Y0136480D01*
X0020118Y0136555D01*
X0020140Y0136630D01*
X0020159Y0136707D01*
X0020175Y0136785D01*
X0020186Y0136863D01*
X0020194Y0136942D01*
X0020198Y0137021D01*
X0020198Y0137101D01*
X0020194Y0137180D01*
X0020186Y0137259D01*
X0020175Y0137337D01*
X0020159Y0137415D01*
X0020140Y0137492D01*
X0020118Y0137567D01*
X0020091Y0137642D01*
X0020062Y0137716D01*
X0020028Y0137787D01*
X0019991Y0137858D01*
X0019951Y0137926D01*
X0019908Y0137992D01*
X0019861Y0138056D01*
X0019812Y0138118D01*
X0019759Y0138177D01*
X0019704Y0138234D01*
X0019646Y0138288D01*
X0019585Y0138339D01*
X0019522Y0138387D01*
X0019457Y0138432D01*
X0019390Y0138474D01*
X0019321Y0138512D01*
X0019250Y0138547D01*
X0019177Y0138579D01*
X0019103Y0138607D01*
X0019028Y0138632D01*
X0018951Y0138652D01*
X0018874Y0138669D01*
X0018796Y0138683D01*
X0018717Y0138692D01*
X0018638Y0138698D01*
X0018559Y0138700D01*
D11*
X0192433Y0060950D02*
X0193567Y0057550D01*
X0193283Y0058400D02*
X0191583Y0058400D01*
X0191300Y0057550D02*
X0192433Y0060950D01*
X0194936Y0060950D02*
X0195691Y0060950D01*
X0195313Y0060950D02*
X0195313Y0057550D01*
X0194936Y0057550D02*
X0195691Y0057550D01*
X0197369Y0057550D02*
X0197369Y0060950D01*
X0199258Y0057550D01*
X0199258Y0060950D01*
X0201089Y0060950D02*
X0202222Y0060950D01*
X0202276Y0060948D01*
X0202330Y0060942D01*
X0202383Y0060933D01*
X0202435Y0060919D01*
X0202486Y0060902D01*
X0202536Y0060882D01*
X0202584Y0060858D01*
X0202631Y0060830D01*
X0202675Y0060799D01*
X0202717Y0060765D01*
X0202757Y0060729D01*
X0202793Y0060689D01*
X0202827Y0060647D01*
X0202858Y0060603D01*
X0202886Y0060556D01*
X0202910Y0060508D01*
X0202930Y0060458D01*
X0202947Y0060407D01*
X0202961Y0060355D01*
X0202970Y0060302D01*
X0202976Y0060248D01*
X0202978Y0060194D01*
X0202976Y0060140D01*
X0202970Y0060086D01*
X0202961Y0060033D01*
X0202947Y0059981D01*
X0202930Y0059930D01*
X0202910Y0059880D01*
X0202886Y0059832D01*
X0202858Y0059785D01*
X0202827Y0059741D01*
X0202793Y0059699D01*
X0202757Y0059659D01*
X0202717Y0059623D01*
X0202675Y0059589D01*
X0202631Y0059558D01*
X0202584Y0059530D01*
X0202536Y0059506D01*
X0202486Y0059486D01*
X0202435Y0059469D01*
X0202383Y0059455D01*
X0202330Y0059446D01*
X0202276Y0059440D01*
X0202222Y0059438D01*
X0202222Y0059439D02*
X0201467Y0059439D01*
X0202033Y0059438D02*
X0202093Y0059436D01*
X0202154Y0059430D01*
X0202213Y0059421D01*
X0202272Y0059407D01*
X0202330Y0059390D01*
X0202387Y0059369D01*
X0202443Y0059345D01*
X0202496Y0059317D01*
X0202548Y0059285D01*
X0202598Y0059251D01*
X0202645Y0059213D01*
X0202690Y0059172D01*
X0202732Y0059129D01*
X0202771Y0059083D01*
X0202807Y0059034D01*
X0202840Y0058983D01*
X0202870Y0058931D01*
X0202896Y0058876D01*
X0202919Y0058820D01*
X0202938Y0058763D01*
X0202953Y0058704D01*
X0202965Y0058645D01*
X0202973Y0058585D01*
X0202977Y0058524D01*
X0202977Y0058464D01*
X0202973Y0058403D01*
X0202965Y0058343D01*
X0202953Y0058284D01*
X0202938Y0058225D01*
X0202919Y0058168D01*
X0202896Y0058112D01*
X0202870Y0058057D01*
X0202840Y0058005D01*
X0202807Y0057954D01*
X0202771Y0057905D01*
X0202732Y0057859D01*
X0202690Y0057816D01*
X0202645Y0057775D01*
X0202598Y0057737D01*
X0202548Y0057703D01*
X0202496Y0057671D01*
X0202443Y0057643D01*
X0202387Y0057619D01*
X0202330Y0057598D01*
X0202272Y0057581D01*
X0202213Y0057567D01*
X0202154Y0057558D01*
X0202093Y0057552D01*
X0202033Y0057550D01*
X0201089Y0057550D01*
X0199258Y0050950D02*
X0199258Y0047550D01*
X0197369Y0050950D01*
X0197369Y0047550D01*
X0195691Y0047550D02*
X0194936Y0047550D01*
X0195313Y0047550D02*
X0195313Y0050950D01*
X0194936Y0050950D02*
X0195691Y0050950D01*
X0192433Y0050950D02*
X0193567Y0047550D01*
X0193283Y0048400D02*
X0191583Y0048400D01*
X0191300Y0047550D02*
X0192433Y0050950D01*
X0201089Y0047550D02*
X0202978Y0047550D01*
X0201089Y0047550D02*
X0202694Y0049439D01*
X0202128Y0050950D02*
X0202063Y0050948D01*
X0201998Y0050942D01*
X0201933Y0050932D01*
X0201869Y0050919D01*
X0201806Y0050901D01*
X0201744Y0050880D01*
X0201684Y0050855D01*
X0201625Y0050827D01*
X0201568Y0050795D01*
X0201512Y0050760D01*
X0201460Y0050722D01*
X0201409Y0050680D01*
X0201361Y0050635D01*
X0201316Y0050588D01*
X0201274Y0050538D01*
X0201235Y0050486D01*
X0201199Y0050431D01*
X0201166Y0050375D01*
X0201137Y0050316D01*
X0201111Y0050256D01*
X0201089Y0050194D01*
X0202695Y0049439D02*
X0202735Y0049479D01*
X0202772Y0049522D01*
X0202807Y0049567D01*
X0202838Y0049615D01*
X0202867Y0049664D01*
X0202893Y0049714D01*
X0202915Y0049767D01*
X0202934Y0049820D01*
X0202950Y0049875D01*
X0202962Y0049930D01*
X0202971Y0049987D01*
X0202976Y0050043D01*
X0202978Y0050100D01*
X0202976Y0050156D01*
X0202971Y0050211D01*
X0202962Y0050266D01*
X0202949Y0050320D01*
X0202933Y0050373D01*
X0202913Y0050425D01*
X0202890Y0050476D01*
X0202864Y0050525D01*
X0202835Y0050572D01*
X0202802Y0050617D01*
X0202767Y0050660D01*
X0202729Y0050701D01*
X0202688Y0050739D01*
X0202645Y0050774D01*
X0202600Y0050807D01*
X0202553Y0050836D01*
X0202504Y0050862D01*
X0202453Y0050885D01*
X0202401Y0050905D01*
X0202348Y0050921D01*
X0202294Y0050934D01*
X0202239Y0050943D01*
X0202184Y0050948D01*
X0202128Y0050950D01*
X0202033Y0040950D02*
X0202033Y0037550D01*
X0201089Y0037550D02*
X0202978Y0037550D01*
X0201089Y0040194D02*
X0202033Y0040950D01*
X0199258Y0040950D02*
X0199258Y0037550D01*
X0197369Y0040950D01*
X0197369Y0037550D01*
X0195691Y0037550D02*
X0194936Y0037550D01*
X0195313Y0037550D02*
X0195313Y0040950D01*
X0194936Y0040950D02*
X0195691Y0040950D01*
X0192433Y0040950D02*
X0193567Y0037550D01*
X0193283Y0038400D02*
X0191583Y0038400D01*
X0191300Y0037550D02*
X0192433Y0040950D01*
X0192433Y0025950D02*
X0193567Y0022550D01*
X0193283Y0023400D02*
X0191583Y0023400D01*
X0191300Y0022550D02*
X0192433Y0025950D01*
X0194936Y0025950D02*
X0195691Y0025950D01*
X0195313Y0025950D02*
X0195313Y0022550D01*
X0194936Y0022550D02*
X0195691Y0022550D01*
X0197369Y0022550D02*
X0197369Y0025950D01*
X0199258Y0022550D01*
X0199258Y0025950D01*
X0202978Y0024250D02*
X0202976Y0024152D01*
X0202971Y0024055D01*
X0202963Y0023957D01*
X0202951Y0023860D01*
X0202935Y0023764D01*
X0202917Y0023668D01*
X0202895Y0023572D01*
X0202870Y0023478D01*
X0202841Y0023384D01*
X0202809Y0023292D01*
X0202774Y0023201D01*
X0202736Y0023111D01*
X0202695Y0023022D01*
X0202694Y0023022D02*
X0202676Y0022975D01*
X0202654Y0022929D01*
X0202629Y0022884D01*
X0202601Y0022842D01*
X0202570Y0022801D01*
X0202536Y0022763D01*
X0202499Y0022728D01*
X0202460Y0022695D01*
X0202418Y0022666D01*
X0202375Y0022639D01*
X0202329Y0022616D01*
X0202282Y0022596D01*
X0202234Y0022580D01*
X0202185Y0022567D01*
X0202135Y0022557D01*
X0202084Y0022552D01*
X0202033Y0022550D01*
X0201982Y0022552D01*
X0201931Y0022557D01*
X0201881Y0022567D01*
X0201832Y0022580D01*
X0201784Y0022596D01*
X0201737Y0022616D01*
X0201691Y0022639D01*
X0201648Y0022666D01*
X0201606Y0022695D01*
X0201567Y0022728D01*
X0201530Y0022763D01*
X0201496Y0022801D01*
X0201465Y0022842D01*
X0201437Y0022884D01*
X0201412Y0022929D01*
X0201390Y0022975D01*
X0201372Y0023022D01*
X0201278Y0023306D02*
X0202789Y0025194D01*
X0202694Y0025478D02*
X0202676Y0025525D01*
X0202654Y0025571D01*
X0202629Y0025616D01*
X0202601Y0025658D01*
X0202570Y0025699D01*
X0202536Y0025737D01*
X0202499Y0025772D01*
X0202460Y0025805D01*
X0202418Y0025834D01*
X0202375Y0025861D01*
X0202329Y0025884D01*
X0202282Y0025904D01*
X0202234Y0025920D01*
X0202185Y0025933D01*
X0202135Y0025943D01*
X0202084Y0025948D01*
X0202033Y0025950D01*
X0201982Y0025948D01*
X0201931Y0025943D01*
X0201881Y0025933D01*
X0201832Y0025920D01*
X0201784Y0025904D01*
X0201737Y0025884D01*
X0201691Y0025861D01*
X0201648Y0025834D01*
X0201606Y0025805D01*
X0201567Y0025772D01*
X0201530Y0025737D01*
X0201496Y0025699D01*
X0201465Y0025658D01*
X0201437Y0025616D01*
X0201412Y0025571D01*
X0201390Y0025525D01*
X0201372Y0025478D01*
X0202695Y0025478D02*
X0202736Y0025389D01*
X0202774Y0025299D01*
X0202809Y0025208D01*
X0202841Y0025116D01*
X0202870Y0025022D01*
X0202895Y0024928D01*
X0202917Y0024832D01*
X0202935Y0024736D01*
X0202951Y0024640D01*
X0202963Y0024543D01*
X0202971Y0024445D01*
X0202976Y0024348D01*
X0202978Y0024250D01*
X0201089Y0024250D02*
X0201091Y0024348D01*
X0201096Y0024445D01*
X0201104Y0024543D01*
X0201116Y0024640D01*
X0201132Y0024736D01*
X0201150Y0024832D01*
X0201172Y0024928D01*
X0201197Y0025022D01*
X0201226Y0025116D01*
X0201258Y0025208D01*
X0201293Y0025299D01*
X0201331Y0025389D01*
X0201372Y0025478D01*
X0201089Y0024250D02*
X0201091Y0024152D01*
X0201096Y0024055D01*
X0201104Y0023957D01*
X0201116Y0023860D01*
X0201132Y0023764D01*
X0201150Y0023668D01*
X0201172Y0023572D01*
X0201197Y0023478D01*
X0201226Y0023384D01*
X0201258Y0023292D01*
X0201293Y0023201D01*
X0201331Y0023111D01*
X0201372Y0023022D01*
D12*
X0043717Y0012486D02*
X0008283Y0012486D01*
X0008283Y0043589D01*
X0014189Y0043589D01*
X0014189Y0060911D01*
X0008283Y0060911D01*
X0008283Y0092014D01*
X0043323Y0092014D01*
X0043717Y0092014D02*
X0043717Y0012486D01*
X0008283Y0043589D02*
X0008283Y0060911D01*
X0015075Y0069750D02*
X0015075Y0074750D01*
X0066000Y0079750D02*
X0068500Y0077250D01*
X0073500Y0077250D01*
X0076000Y0079750D01*
X0076000Y0084750D01*
X0073500Y0087250D01*
X0076000Y0089750D01*
X0076000Y0094750D01*
X0073500Y0097250D01*
X0076000Y0099750D01*
X0076000Y0104750D01*
X0073500Y0107250D01*
X0076000Y0109750D01*
X0076000Y0114750D01*
X0073500Y0117250D01*
X0076000Y0119750D01*
X0076000Y0124750D01*
X0073500Y0127250D01*
X0076000Y0129750D01*
X0076000Y0134750D01*
X0073500Y0137250D01*
X0076000Y0139750D01*
X0076000Y0144750D01*
X0073500Y0147250D01*
X0068500Y0147250D01*
X0066000Y0144750D01*
X0066000Y0139750D01*
X0068500Y0137250D01*
X0066000Y0134750D01*
X0066000Y0129750D01*
X0068500Y0127250D01*
X0066000Y0124750D01*
X0066000Y0119750D01*
X0068500Y0117250D01*
X0066000Y0114750D01*
X0066000Y0109750D01*
X0068500Y0107250D01*
X0066000Y0104750D01*
X0066000Y0099750D01*
X0068500Y0097250D01*
X0066000Y0094750D01*
X0066000Y0089750D01*
X0068500Y0087250D01*
X0066000Y0084750D01*
X0066000Y0079750D01*
X0251000Y0079750D02*
X0251000Y0084750D01*
X0253500Y0087250D01*
X0251000Y0089750D01*
X0251000Y0094750D01*
X0253500Y0097250D01*
X0251000Y0099750D01*
X0251000Y0104750D01*
X0253500Y0107250D01*
X0251000Y0109750D01*
X0251000Y0114750D01*
X0253500Y0117250D01*
X0251000Y0119750D01*
X0251000Y0124750D01*
X0253500Y0127250D01*
X0251000Y0129750D01*
X0251000Y0134750D01*
X0253500Y0137250D01*
X0258500Y0137250D01*
X0261000Y0134750D01*
X0261000Y0129750D01*
X0258500Y0127250D01*
X0261000Y0124750D01*
X0261000Y0119750D01*
X0258500Y0117250D01*
X0261000Y0114750D01*
X0261000Y0109750D01*
X0258500Y0107250D01*
X0261000Y0104750D01*
X0261000Y0099750D01*
X0258500Y0097250D01*
X0261000Y0094750D01*
X0261000Y0089750D01*
X0258500Y0087250D01*
X0261000Y0084750D01*
X0261000Y0079750D01*
X0258500Y0077250D01*
X0261000Y0074750D01*
X0261000Y0069750D01*
X0258500Y0067250D01*
X0261000Y0064750D01*
X0261000Y0059750D01*
X0258500Y0057250D01*
X0253500Y0057250D01*
X0251000Y0059750D01*
X0251000Y0064750D01*
X0253500Y0067250D01*
X0251000Y0069750D01*
X0251000Y0074750D01*
X0253500Y0077250D01*
X0251000Y0079750D01*
X0276000Y0034750D02*
X0276000Y0029750D01*
X0336000Y0029750D02*
X0336000Y0034750D01*
X0368283Y0048589D02*
X0374189Y0048589D01*
X0374189Y0065911D01*
X0368283Y0065911D01*
X0368283Y0097014D01*
X0403323Y0097014D01*
X0403717Y0097014D02*
X0403717Y0017486D01*
X0368283Y0017486D01*
X0368283Y0048589D01*
X0368283Y0065911D01*
X0375075Y0074750D02*
X0375075Y0079750D01*
X0343500Y0127250D02*
X0338500Y0127250D01*
X0336000Y0129750D01*
X0333500Y0127250D01*
X0328500Y0127250D01*
X0326000Y0129750D01*
X0323500Y0127250D01*
X0318500Y0127250D01*
X0316000Y0129750D01*
X0313500Y0127250D01*
X0308500Y0127250D01*
X0306000Y0129750D01*
X0303500Y0127250D01*
X0298500Y0127250D01*
X0296000Y0129750D01*
X0296000Y0134750D01*
X0298500Y0137250D01*
X0303500Y0137250D01*
X0306000Y0134750D01*
X0308500Y0137250D01*
X0313500Y0137250D01*
X0316000Y0134750D01*
X0318500Y0137250D01*
X0323500Y0137250D01*
X0326000Y0134750D01*
X0328500Y0137250D01*
X0333500Y0137250D01*
X0336000Y0134750D01*
X0338500Y0137250D01*
X0343500Y0137250D01*
X0346000Y0134750D01*
X0346000Y0129750D01*
X0343500Y0127250D01*
D13*
X0243000Y0020750D02*
X0231000Y0020750D01*
X0156000Y0020750D02*
X0136000Y0020750D01*
X0111000Y0020750D02*
X0091000Y0020750D01*
D14*
X0113588Y0033750D02*
X0113590Y0033790D01*
X0113596Y0033830D01*
X0113606Y0033870D01*
X0113619Y0033908D01*
X0113637Y0033944D01*
X0113657Y0033979D01*
X0113682Y0034011D01*
X0113709Y0034041D01*
X0113739Y0034068D01*
X0113771Y0034093D01*
X0113806Y0034113D01*
X0113842Y0034131D01*
X0113880Y0034144D01*
X0113920Y0034154D01*
X0113960Y0034160D01*
X0114000Y0034162D01*
X0114040Y0034160D01*
X0114080Y0034154D01*
X0114120Y0034144D01*
X0114158Y0034131D01*
X0114194Y0034113D01*
X0114229Y0034093D01*
X0114261Y0034068D01*
X0114291Y0034041D01*
X0114318Y0034011D01*
X0114343Y0033979D01*
X0114363Y0033944D01*
X0114381Y0033908D01*
X0114394Y0033870D01*
X0114404Y0033830D01*
X0114410Y0033790D01*
X0114412Y0033750D01*
X0114410Y0033710D01*
X0114404Y0033670D01*
X0114394Y0033630D01*
X0114381Y0033592D01*
X0114363Y0033556D01*
X0114343Y0033521D01*
X0114318Y0033489D01*
X0114291Y0033459D01*
X0114261Y0033432D01*
X0114229Y0033407D01*
X0114194Y0033387D01*
X0114158Y0033369D01*
X0114120Y0033356D01*
X0114080Y0033346D01*
X0114040Y0033340D01*
X0114000Y0033338D01*
X0113960Y0033340D01*
X0113920Y0033346D01*
X0113880Y0033356D01*
X0113842Y0033369D01*
X0113806Y0033387D01*
X0113771Y0033407D01*
X0113739Y0033432D01*
X0113709Y0033459D01*
X0113682Y0033489D01*
X0113657Y0033521D01*
X0113637Y0033556D01*
X0113619Y0033592D01*
X0113606Y0033630D01*
X0113596Y0033670D01*
X0113590Y0033710D01*
X0113588Y0033750D01*
X0158588Y0033750D02*
X0158590Y0033790D01*
X0158596Y0033830D01*
X0158606Y0033870D01*
X0158619Y0033908D01*
X0158637Y0033944D01*
X0158657Y0033979D01*
X0158682Y0034011D01*
X0158709Y0034041D01*
X0158739Y0034068D01*
X0158771Y0034093D01*
X0158806Y0034113D01*
X0158842Y0034131D01*
X0158880Y0034144D01*
X0158920Y0034154D01*
X0158960Y0034160D01*
X0159000Y0034162D01*
X0159040Y0034160D01*
X0159080Y0034154D01*
X0159120Y0034144D01*
X0159158Y0034131D01*
X0159194Y0034113D01*
X0159229Y0034093D01*
X0159261Y0034068D01*
X0159291Y0034041D01*
X0159318Y0034011D01*
X0159343Y0033979D01*
X0159363Y0033944D01*
X0159381Y0033908D01*
X0159394Y0033870D01*
X0159404Y0033830D01*
X0159410Y0033790D01*
X0159412Y0033750D01*
X0159410Y0033710D01*
X0159404Y0033670D01*
X0159394Y0033630D01*
X0159381Y0033592D01*
X0159363Y0033556D01*
X0159343Y0033521D01*
X0159318Y0033489D01*
X0159291Y0033459D01*
X0159261Y0033432D01*
X0159229Y0033407D01*
X0159194Y0033387D01*
X0159158Y0033369D01*
X0159120Y0033356D01*
X0159080Y0033346D01*
X0159040Y0033340D01*
X0159000Y0033338D01*
X0158960Y0033340D01*
X0158920Y0033346D01*
X0158880Y0033356D01*
X0158842Y0033369D01*
X0158806Y0033387D01*
X0158771Y0033407D01*
X0158739Y0033432D01*
X0158709Y0033459D01*
X0158682Y0033489D01*
X0158657Y0033521D01*
X0158637Y0033556D01*
X0158619Y0033592D01*
X0158606Y0033630D01*
X0158596Y0033670D01*
X0158590Y0033710D01*
X0158588Y0033750D01*
X0245588Y0033750D02*
X0245590Y0033790D01*
X0245596Y0033830D01*
X0245606Y0033870D01*
X0245619Y0033908D01*
X0245637Y0033944D01*
X0245657Y0033979D01*
X0245682Y0034011D01*
X0245709Y0034041D01*
X0245739Y0034068D01*
X0245771Y0034093D01*
X0245806Y0034113D01*
X0245842Y0034131D01*
X0245880Y0034144D01*
X0245920Y0034154D01*
X0245960Y0034160D01*
X0246000Y0034162D01*
X0246040Y0034160D01*
X0246080Y0034154D01*
X0246120Y0034144D01*
X0246158Y0034131D01*
X0246194Y0034113D01*
X0246229Y0034093D01*
X0246261Y0034068D01*
X0246291Y0034041D01*
X0246318Y0034011D01*
X0246343Y0033979D01*
X0246363Y0033944D01*
X0246381Y0033908D01*
X0246394Y0033870D01*
X0246404Y0033830D01*
X0246410Y0033790D01*
X0246412Y0033750D01*
X0246410Y0033710D01*
X0246404Y0033670D01*
X0246394Y0033630D01*
X0246381Y0033592D01*
X0246363Y0033556D01*
X0246343Y0033521D01*
X0246318Y0033489D01*
X0246291Y0033459D01*
X0246261Y0033432D01*
X0246229Y0033407D01*
X0246194Y0033387D01*
X0246158Y0033369D01*
X0246120Y0033356D01*
X0246080Y0033346D01*
X0246040Y0033340D01*
X0246000Y0033338D01*
X0245960Y0033340D01*
X0245920Y0033346D01*
X0245880Y0033356D01*
X0245842Y0033369D01*
X0245806Y0033387D01*
X0245771Y0033407D01*
X0245739Y0033432D01*
X0245709Y0033459D01*
X0245682Y0033489D01*
X0245657Y0033521D01*
X0245637Y0033556D01*
X0245619Y0033592D01*
X0245606Y0033630D01*
X0245596Y0033670D01*
X0245590Y0033710D01*
X0245588Y0033750D01*
D15*
X0281000Y0057250D02*
X0281000Y0162250D01*
X0066000Y0162250D01*
X0066000Y0057250D01*
X0281000Y0057250D01*
X0286000Y0058250D02*
X0286000Y0138250D01*
X0356000Y0138250D01*
X0356000Y0058250D01*
X0286000Y0058250D01*
X0363362Y0164061D02*
X0394858Y0164061D01*
D16*
X0403717Y0110306D02*
X0403717Y0106239D01*
X0401683Y0108272D02*
X0405750Y0108272D01*
M02*
