G75*
%MOIN*%
%OFA0B0*%
%FSLAX25Y25*%
%IPPOS*%
%LPD*%
%AMOC8*
5,1,8,0,0,1.08239X$1,22.5*
%
%ADD10C,0.00000*%
D10*
X0001000Y0002250D02*
X0001000Y0167250D01*
X0411000Y0167250D01*
X0411000Y0002250D01*
X0001000Y0002250D01*
X0049500Y0012250D02*
X0049502Y0012411D01*
X0049508Y0012571D01*
X0049518Y0012732D01*
X0049532Y0012892D01*
X0049550Y0013052D01*
X0049571Y0013211D01*
X0049597Y0013370D01*
X0049627Y0013528D01*
X0049660Y0013685D01*
X0049698Y0013842D01*
X0049739Y0013997D01*
X0049784Y0014151D01*
X0049833Y0014304D01*
X0049886Y0014456D01*
X0049942Y0014607D01*
X0050003Y0014756D01*
X0050066Y0014904D01*
X0050134Y0015050D01*
X0050205Y0015194D01*
X0050279Y0015336D01*
X0050357Y0015477D01*
X0050439Y0015615D01*
X0050524Y0015752D01*
X0050612Y0015886D01*
X0050704Y0016018D01*
X0050799Y0016148D01*
X0050897Y0016276D01*
X0050998Y0016401D01*
X0051102Y0016523D01*
X0051209Y0016643D01*
X0051319Y0016760D01*
X0051432Y0016875D01*
X0051548Y0016986D01*
X0051667Y0017095D01*
X0051788Y0017200D01*
X0051912Y0017303D01*
X0052038Y0017403D01*
X0052166Y0017499D01*
X0052297Y0017592D01*
X0052431Y0017682D01*
X0052566Y0017769D01*
X0052704Y0017852D01*
X0052843Y0017932D01*
X0052985Y0018008D01*
X0053128Y0018081D01*
X0053273Y0018150D01*
X0053420Y0018216D01*
X0053568Y0018278D01*
X0053718Y0018336D01*
X0053869Y0018391D01*
X0054022Y0018442D01*
X0054176Y0018489D01*
X0054331Y0018532D01*
X0054487Y0018571D01*
X0054643Y0018607D01*
X0054801Y0018638D01*
X0054959Y0018666D01*
X0055118Y0018690D01*
X0055278Y0018710D01*
X0055438Y0018726D01*
X0055598Y0018738D01*
X0055759Y0018746D01*
X0055920Y0018750D01*
X0056080Y0018750D01*
X0056241Y0018746D01*
X0056402Y0018738D01*
X0056562Y0018726D01*
X0056722Y0018710D01*
X0056882Y0018690D01*
X0057041Y0018666D01*
X0057199Y0018638D01*
X0057357Y0018607D01*
X0057513Y0018571D01*
X0057669Y0018532D01*
X0057824Y0018489D01*
X0057978Y0018442D01*
X0058131Y0018391D01*
X0058282Y0018336D01*
X0058432Y0018278D01*
X0058580Y0018216D01*
X0058727Y0018150D01*
X0058872Y0018081D01*
X0059015Y0018008D01*
X0059157Y0017932D01*
X0059296Y0017852D01*
X0059434Y0017769D01*
X0059569Y0017682D01*
X0059703Y0017592D01*
X0059834Y0017499D01*
X0059962Y0017403D01*
X0060088Y0017303D01*
X0060212Y0017200D01*
X0060333Y0017095D01*
X0060452Y0016986D01*
X0060568Y0016875D01*
X0060681Y0016760D01*
X0060791Y0016643D01*
X0060898Y0016523D01*
X0061002Y0016401D01*
X0061103Y0016276D01*
X0061201Y0016148D01*
X0061296Y0016018D01*
X0061388Y0015886D01*
X0061476Y0015752D01*
X0061561Y0015615D01*
X0061643Y0015477D01*
X0061721Y0015336D01*
X0061795Y0015194D01*
X0061866Y0015050D01*
X0061934Y0014904D01*
X0061997Y0014756D01*
X0062058Y0014607D01*
X0062114Y0014456D01*
X0062167Y0014304D01*
X0062216Y0014151D01*
X0062261Y0013997D01*
X0062302Y0013842D01*
X0062340Y0013685D01*
X0062373Y0013528D01*
X0062403Y0013370D01*
X0062429Y0013211D01*
X0062450Y0013052D01*
X0062468Y0012892D01*
X0062482Y0012732D01*
X0062492Y0012571D01*
X0062498Y0012411D01*
X0062500Y0012250D01*
X0062498Y0012089D01*
X0062492Y0011929D01*
X0062482Y0011768D01*
X0062468Y0011608D01*
X0062450Y0011448D01*
X0062429Y0011289D01*
X0062403Y0011130D01*
X0062373Y0010972D01*
X0062340Y0010815D01*
X0062302Y0010658D01*
X0062261Y0010503D01*
X0062216Y0010349D01*
X0062167Y0010196D01*
X0062114Y0010044D01*
X0062058Y0009893D01*
X0061997Y0009744D01*
X0061934Y0009596D01*
X0061866Y0009450D01*
X0061795Y0009306D01*
X0061721Y0009164D01*
X0061643Y0009023D01*
X0061561Y0008885D01*
X0061476Y0008748D01*
X0061388Y0008614D01*
X0061296Y0008482D01*
X0061201Y0008352D01*
X0061103Y0008224D01*
X0061002Y0008099D01*
X0060898Y0007977D01*
X0060791Y0007857D01*
X0060681Y0007740D01*
X0060568Y0007625D01*
X0060452Y0007514D01*
X0060333Y0007405D01*
X0060212Y0007300D01*
X0060088Y0007197D01*
X0059962Y0007097D01*
X0059834Y0007001D01*
X0059703Y0006908D01*
X0059569Y0006818D01*
X0059434Y0006731D01*
X0059296Y0006648D01*
X0059157Y0006568D01*
X0059015Y0006492D01*
X0058872Y0006419D01*
X0058727Y0006350D01*
X0058580Y0006284D01*
X0058432Y0006222D01*
X0058282Y0006164D01*
X0058131Y0006109D01*
X0057978Y0006058D01*
X0057824Y0006011D01*
X0057669Y0005968D01*
X0057513Y0005929D01*
X0057357Y0005893D01*
X0057199Y0005862D01*
X0057041Y0005834D01*
X0056882Y0005810D01*
X0056722Y0005790D01*
X0056562Y0005774D01*
X0056402Y0005762D01*
X0056241Y0005754D01*
X0056080Y0005750D01*
X0055920Y0005750D01*
X0055759Y0005754D01*
X0055598Y0005762D01*
X0055438Y0005774D01*
X0055278Y0005790D01*
X0055118Y0005810D01*
X0054959Y0005834D01*
X0054801Y0005862D01*
X0054643Y0005893D01*
X0054487Y0005929D01*
X0054331Y0005968D01*
X0054176Y0006011D01*
X0054022Y0006058D01*
X0053869Y0006109D01*
X0053718Y0006164D01*
X0053568Y0006222D01*
X0053420Y0006284D01*
X0053273Y0006350D01*
X0053128Y0006419D01*
X0052985Y0006492D01*
X0052843Y0006568D01*
X0052704Y0006648D01*
X0052566Y0006731D01*
X0052431Y0006818D01*
X0052297Y0006908D01*
X0052166Y0007001D01*
X0052038Y0007097D01*
X0051912Y0007197D01*
X0051788Y0007300D01*
X0051667Y0007405D01*
X0051548Y0007514D01*
X0051432Y0007625D01*
X0051319Y0007740D01*
X0051209Y0007857D01*
X0051102Y0007977D01*
X0050998Y0008099D01*
X0050897Y0008224D01*
X0050799Y0008352D01*
X0050704Y0008482D01*
X0050612Y0008614D01*
X0050524Y0008748D01*
X0050439Y0008885D01*
X0050357Y0009023D01*
X0050279Y0009164D01*
X0050205Y0009306D01*
X0050134Y0009450D01*
X0050066Y0009596D01*
X0050003Y0009744D01*
X0049942Y0009893D01*
X0049886Y0010044D01*
X0049833Y0010196D01*
X0049784Y0010349D01*
X0049739Y0010503D01*
X0049698Y0010658D01*
X0049660Y0010815D01*
X0049627Y0010972D01*
X0049597Y0011130D01*
X0049571Y0011289D01*
X0049550Y0011448D01*
X0049532Y0011608D01*
X0049518Y0011768D01*
X0049508Y0011929D01*
X0049502Y0012089D01*
X0049500Y0012250D01*
X0344500Y0012250D02*
X0344502Y0012411D01*
X0344508Y0012571D01*
X0344518Y0012732D01*
X0344532Y0012892D01*
X0344550Y0013052D01*
X0344571Y0013211D01*
X0344597Y0013370D01*
X0344627Y0013528D01*
X0344660Y0013685D01*
X0344698Y0013842D01*
X0344739Y0013997D01*
X0344784Y0014151D01*
X0344833Y0014304D01*
X0344886Y0014456D01*
X0344942Y0014607D01*
X0345003Y0014756D01*
X0345066Y0014904D01*
X0345134Y0015050D01*
X0345205Y0015194D01*
X0345279Y0015336D01*
X0345357Y0015477D01*
X0345439Y0015615D01*
X0345524Y0015752D01*
X0345612Y0015886D01*
X0345704Y0016018D01*
X0345799Y0016148D01*
X0345897Y0016276D01*
X0345998Y0016401D01*
X0346102Y0016523D01*
X0346209Y0016643D01*
X0346319Y0016760D01*
X0346432Y0016875D01*
X0346548Y0016986D01*
X0346667Y0017095D01*
X0346788Y0017200D01*
X0346912Y0017303D01*
X0347038Y0017403D01*
X0347166Y0017499D01*
X0347297Y0017592D01*
X0347431Y0017682D01*
X0347566Y0017769D01*
X0347704Y0017852D01*
X0347843Y0017932D01*
X0347985Y0018008D01*
X0348128Y0018081D01*
X0348273Y0018150D01*
X0348420Y0018216D01*
X0348568Y0018278D01*
X0348718Y0018336D01*
X0348869Y0018391D01*
X0349022Y0018442D01*
X0349176Y0018489D01*
X0349331Y0018532D01*
X0349487Y0018571D01*
X0349643Y0018607D01*
X0349801Y0018638D01*
X0349959Y0018666D01*
X0350118Y0018690D01*
X0350278Y0018710D01*
X0350438Y0018726D01*
X0350598Y0018738D01*
X0350759Y0018746D01*
X0350920Y0018750D01*
X0351080Y0018750D01*
X0351241Y0018746D01*
X0351402Y0018738D01*
X0351562Y0018726D01*
X0351722Y0018710D01*
X0351882Y0018690D01*
X0352041Y0018666D01*
X0352199Y0018638D01*
X0352357Y0018607D01*
X0352513Y0018571D01*
X0352669Y0018532D01*
X0352824Y0018489D01*
X0352978Y0018442D01*
X0353131Y0018391D01*
X0353282Y0018336D01*
X0353432Y0018278D01*
X0353580Y0018216D01*
X0353727Y0018150D01*
X0353872Y0018081D01*
X0354015Y0018008D01*
X0354157Y0017932D01*
X0354296Y0017852D01*
X0354434Y0017769D01*
X0354569Y0017682D01*
X0354703Y0017592D01*
X0354834Y0017499D01*
X0354962Y0017403D01*
X0355088Y0017303D01*
X0355212Y0017200D01*
X0355333Y0017095D01*
X0355452Y0016986D01*
X0355568Y0016875D01*
X0355681Y0016760D01*
X0355791Y0016643D01*
X0355898Y0016523D01*
X0356002Y0016401D01*
X0356103Y0016276D01*
X0356201Y0016148D01*
X0356296Y0016018D01*
X0356388Y0015886D01*
X0356476Y0015752D01*
X0356561Y0015615D01*
X0356643Y0015477D01*
X0356721Y0015336D01*
X0356795Y0015194D01*
X0356866Y0015050D01*
X0356934Y0014904D01*
X0356997Y0014756D01*
X0357058Y0014607D01*
X0357114Y0014456D01*
X0357167Y0014304D01*
X0357216Y0014151D01*
X0357261Y0013997D01*
X0357302Y0013842D01*
X0357340Y0013685D01*
X0357373Y0013528D01*
X0357403Y0013370D01*
X0357429Y0013211D01*
X0357450Y0013052D01*
X0357468Y0012892D01*
X0357482Y0012732D01*
X0357492Y0012571D01*
X0357498Y0012411D01*
X0357500Y0012250D01*
X0357498Y0012089D01*
X0357492Y0011929D01*
X0357482Y0011768D01*
X0357468Y0011608D01*
X0357450Y0011448D01*
X0357429Y0011289D01*
X0357403Y0011130D01*
X0357373Y0010972D01*
X0357340Y0010815D01*
X0357302Y0010658D01*
X0357261Y0010503D01*
X0357216Y0010349D01*
X0357167Y0010196D01*
X0357114Y0010044D01*
X0357058Y0009893D01*
X0356997Y0009744D01*
X0356934Y0009596D01*
X0356866Y0009450D01*
X0356795Y0009306D01*
X0356721Y0009164D01*
X0356643Y0009023D01*
X0356561Y0008885D01*
X0356476Y0008748D01*
X0356388Y0008614D01*
X0356296Y0008482D01*
X0356201Y0008352D01*
X0356103Y0008224D01*
X0356002Y0008099D01*
X0355898Y0007977D01*
X0355791Y0007857D01*
X0355681Y0007740D01*
X0355568Y0007625D01*
X0355452Y0007514D01*
X0355333Y0007405D01*
X0355212Y0007300D01*
X0355088Y0007197D01*
X0354962Y0007097D01*
X0354834Y0007001D01*
X0354703Y0006908D01*
X0354569Y0006818D01*
X0354434Y0006731D01*
X0354296Y0006648D01*
X0354157Y0006568D01*
X0354015Y0006492D01*
X0353872Y0006419D01*
X0353727Y0006350D01*
X0353580Y0006284D01*
X0353432Y0006222D01*
X0353282Y0006164D01*
X0353131Y0006109D01*
X0352978Y0006058D01*
X0352824Y0006011D01*
X0352669Y0005968D01*
X0352513Y0005929D01*
X0352357Y0005893D01*
X0352199Y0005862D01*
X0352041Y0005834D01*
X0351882Y0005810D01*
X0351722Y0005790D01*
X0351562Y0005774D01*
X0351402Y0005762D01*
X0351241Y0005754D01*
X0351080Y0005750D01*
X0350920Y0005750D01*
X0350759Y0005754D01*
X0350598Y0005762D01*
X0350438Y0005774D01*
X0350278Y0005790D01*
X0350118Y0005810D01*
X0349959Y0005834D01*
X0349801Y0005862D01*
X0349643Y0005893D01*
X0349487Y0005929D01*
X0349331Y0005968D01*
X0349176Y0006011D01*
X0349022Y0006058D01*
X0348869Y0006109D01*
X0348718Y0006164D01*
X0348568Y0006222D01*
X0348420Y0006284D01*
X0348273Y0006350D01*
X0348128Y0006419D01*
X0347985Y0006492D01*
X0347843Y0006568D01*
X0347704Y0006648D01*
X0347566Y0006731D01*
X0347431Y0006818D01*
X0347297Y0006908D01*
X0347166Y0007001D01*
X0347038Y0007097D01*
X0346912Y0007197D01*
X0346788Y0007300D01*
X0346667Y0007405D01*
X0346548Y0007514D01*
X0346432Y0007625D01*
X0346319Y0007740D01*
X0346209Y0007857D01*
X0346102Y0007977D01*
X0345998Y0008099D01*
X0345897Y0008224D01*
X0345799Y0008352D01*
X0345704Y0008482D01*
X0345612Y0008614D01*
X0345524Y0008748D01*
X0345439Y0008885D01*
X0345357Y0009023D01*
X0345279Y0009164D01*
X0345205Y0009306D01*
X0345134Y0009450D01*
X0345066Y0009596D01*
X0345003Y0009744D01*
X0344942Y0009893D01*
X0344886Y0010044D01*
X0344833Y0010196D01*
X0344784Y0010349D01*
X0344739Y0010503D01*
X0344698Y0010658D01*
X0344660Y0010815D01*
X0344627Y0010972D01*
X0344597Y0011130D01*
X0344571Y0011289D01*
X0344550Y0011448D01*
X0344532Y0011608D01*
X0344518Y0011768D01*
X0344508Y0011929D01*
X0344502Y0012089D01*
X0344500Y0012250D01*
X0373106Y0143392D02*
X0373108Y0143547D01*
X0373114Y0143701D01*
X0373124Y0143855D01*
X0373138Y0144009D01*
X0373156Y0144163D01*
X0373178Y0144316D01*
X0373203Y0144468D01*
X0373233Y0144620D01*
X0373267Y0144771D01*
X0373304Y0144921D01*
X0373345Y0145070D01*
X0373390Y0145218D01*
X0373439Y0145365D01*
X0373492Y0145510D01*
X0373548Y0145654D01*
X0373608Y0145796D01*
X0373672Y0145937D01*
X0373739Y0146076D01*
X0373810Y0146214D01*
X0373885Y0146349D01*
X0373963Y0146483D01*
X0374044Y0146614D01*
X0374129Y0146744D01*
X0374217Y0146871D01*
X0374308Y0146996D01*
X0374402Y0147118D01*
X0374500Y0147238D01*
X0374600Y0147356D01*
X0374704Y0147470D01*
X0374810Y0147582D01*
X0374920Y0147692D01*
X0375032Y0147798D01*
X0375146Y0147902D01*
X0375264Y0148002D01*
X0375384Y0148100D01*
X0375506Y0148194D01*
X0375631Y0148285D01*
X0375758Y0148373D01*
X0375888Y0148458D01*
X0376019Y0148539D01*
X0376153Y0148617D01*
X0376288Y0148692D01*
X0376426Y0148763D01*
X0376565Y0148830D01*
X0376706Y0148894D01*
X0376848Y0148954D01*
X0376992Y0149010D01*
X0377137Y0149063D01*
X0377284Y0149112D01*
X0377432Y0149157D01*
X0377581Y0149198D01*
X0377731Y0149235D01*
X0377882Y0149269D01*
X0378034Y0149299D01*
X0378186Y0149324D01*
X0378339Y0149346D01*
X0378493Y0149364D01*
X0378647Y0149378D01*
X0378801Y0149388D01*
X0378955Y0149394D01*
X0379110Y0149396D01*
X0379265Y0149394D01*
X0379419Y0149388D01*
X0379573Y0149378D01*
X0379727Y0149364D01*
X0379881Y0149346D01*
X0380034Y0149324D01*
X0380186Y0149299D01*
X0380338Y0149269D01*
X0380489Y0149235D01*
X0380639Y0149198D01*
X0380788Y0149157D01*
X0380936Y0149112D01*
X0381083Y0149063D01*
X0381228Y0149010D01*
X0381372Y0148954D01*
X0381514Y0148894D01*
X0381655Y0148830D01*
X0381794Y0148763D01*
X0381932Y0148692D01*
X0382067Y0148617D01*
X0382201Y0148539D01*
X0382332Y0148458D01*
X0382462Y0148373D01*
X0382589Y0148285D01*
X0382714Y0148194D01*
X0382836Y0148100D01*
X0382956Y0148002D01*
X0383074Y0147902D01*
X0383188Y0147798D01*
X0383300Y0147692D01*
X0383410Y0147582D01*
X0383516Y0147470D01*
X0383620Y0147356D01*
X0383720Y0147238D01*
X0383818Y0147118D01*
X0383912Y0146996D01*
X0384003Y0146871D01*
X0384091Y0146744D01*
X0384176Y0146614D01*
X0384257Y0146483D01*
X0384335Y0146349D01*
X0384410Y0146214D01*
X0384481Y0146076D01*
X0384548Y0145937D01*
X0384612Y0145796D01*
X0384672Y0145654D01*
X0384728Y0145510D01*
X0384781Y0145365D01*
X0384830Y0145218D01*
X0384875Y0145070D01*
X0384916Y0144921D01*
X0384953Y0144771D01*
X0384987Y0144620D01*
X0385017Y0144468D01*
X0385042Y0144316D01*
X0385064Y0144163D01*
X0385082Y0144009D01*
X0385096Y0143855D01*
X0385106Y0143701D01*
X0385112Y0143547D01*
X0385114Y0143392D01*
X0385112Y0143237D01*
X0385106Y0143083D01*
X0385096Y0142929D01*
X0385082Y0142775D01*
X0385064Y0142621D01*
X0385042Y0142468D01*
X0385017Y0142316D01*
X0384987Y0142164D01*
X0384953Y0142013D01*
X0384916Y0141863D01*
X0384875Y0141714D01*
X0384830Y0141566D01*
X0384781Y0141419D01*
X0384728Y0141274D01*
X0384672Y0141130D01*
X0384612Y0140988D01*
X0384548Y0140847D01*
X0384481Y0140708D01*
X0384410Y0140570D01*
X0384335Y0140435D01*
X0384257Y0140301D01*
X0384176Y0140170D01*
X0384091Y0140040D01*
X0384003Y0139913D01*
X0383912Y0139788D01*
X0383818Y0139666D01*
X0383720Y0139546D01*
X0383620Y0139428D01*
X0383516Y0139314D01*
X0383410Y0139202D01*
X0383300Y0139092D01*
X0383188Y0138986D01*
X0383074Y0138882D01*
X0382956Y0138782D01*
X0382836Y0138684D01*
X0382714Y0138590D01*
X0382589Y0138499D01*
X0382462Y0138411D01*
X0382332Y0138326D01*
X0382201Y0138245D01*
X0382067Y0138167D01*
X0381932Y0138092D01*
X0381794Y0138021D01*
X0381655Y0137954D01*
X0381514Y0137890D01*
X0381372Y0137830D01*
X0381228Y0137774D01*
X0381083Y0137721D01*
X0380936Y0137672D01*
X0380788Y0137627D01*
X0380639Y0137586D01*
X0380489Y0137549D01*
X0380338Y0137515D01*
X0380186Y0137485D01*
X0380034Y0137460D01*
X0379881Y0137438D01*
X0379727Y0137420D01*
X0379573Y0137406D01*
X0379419Y0137396D01*
X0379265Y0137390D01*
X0379110Y0137388D01*
X0378955Y0137390D01*
X0378801Y0137396D01*
X0378647Y0137406D01*
X0378493Y0137420D01*
X0378339Y0137438D01*
X0378186Y0137460D01*
X0378034Y0137485D01*
X0377882Y0137515D01*
X0377731Y0137549D01*
X0377581Y0137586D01*
X0377432Y0137627D01*
X0377284Y0137672D01*
X0377137Y0137721D01*
X0376992Y0137774D01*
X0376848Y0137830D01*
X0376706Y0137890D01*
X0376565Y0137954D01*
X0376426Y0138021D01*
X0376288Y0138092D01*
X0376153Y0138167D01*
X0376019Y0138245D01*
X0375888Y0138326D01*
X0375758Y0138411D01*
X0375631Y0138499D01*
X0375506Y0138590D01*
X0375384Y0138684D01*
X0375264Y0138782D01*
X0375146Y0138882D01*
X0375032Y0138986D01*
X0374920Y0139092D01*
X0374810Y0139202D01*
X0374704Y0139314D01*
X0374600Y0139428D01*
X0374500Y0139546D01*
X0374402Y0139666D01*
X0374308Y0139788D01*
X0374217Y0139913D01*
X0374129Y0140040D01*
X0374044Y0140170D01*
X0373963Y0140301D01*
X0373885Y0140435D01*
X0373810Y0140570D01*
X0373739Y0140708D01*
X0373672Y0140847D01*
X0373608Y0140988D01*
X0373548Y0141130D01*
X0373492Y0141274D01*
X0373439Y0141419D01*
X0373390Y0141566D01*
X0373345Y0141714D01*
X0373304Y0141863D01*
X0373267Y0142013D01*
X0373233Y0142164D01*
X0373203Y0142316D01*
X0373178Y0142468D01*
X0373156Y0142621D01*
X0373138Y0142775D01*
X0373124Y0142929D01*
X0373114Y0143083D01*
X0373108Y0143237D01*
X0373106Y0143392D01*
X0344500Y0157250D02*
X0344502Y0157411D01*
X0344508Y0157571D01*
X0344518Y0157732D01*
X0344532Y0157892D01*
X0344550Y0158052D01*
X0344571Y0158211D01*
X0344597Y0158370D01*
X0344627Y0158528D01*
X0344660Y0158685D01*
X0344698Y0158842D01*
X0344739Y0158997D01*
X0344784Y0159151D01*
X0344833Y0159304D01*
X0344886Y0159456D01*
X0344942Y0159607D01*
X0345003Y0159756D01*
X0345066Y0159904D01*
X0345134Y0160050D01*
X0345205Y0160194D01*
X0345279Y0160336D01*
X0345357Y0160477D01*
X0345439Y0160615D01*
X0345524Y0160752D01*
X0345612Y0160886D01*
X0345704Y0161018D01*
X0345799Y0161148D01*
X0345897Y0161276D01*
X0345998Y0161401D01*
X0346102Y0161523D01*
X0346209Y0161643D01*
X0346319Y0161760D01*
X0346432Y0161875D01*
X0346548Y0161986D01*
X0346667Y0162095D01*
X0346788Y0162200D01*
X0346912Y0162303D01*
X0347038Y0162403D01*
X0347166Y0162499D01*
X0347297Y0162592D01*
X0347431Y0162682D01*
X0347566Y0162769D01*
X0347704Y0162852D01*
X0347843Y0162932D01*
X0347985Y0163008D01*
X0348128Y0163081D01*
X0348273Y0163150D01*
X0348420Y0163216D01*
X0348568Y0163278D01*
X0348718Y0163336D01*
X0348869Y0163391D01*
X0349022Y0163442D01*
X0349176Y0163489D01*
X0349331Y0163532D01*
X0349487Y0163571D01*
X0349643Y0163607D01*
X0349801Y0163638D01*
X0349959Y0163666D01*
X0350118Y0163690D01*
X0350278Y0163710D01*
X0350438Y0163726D01*
X0350598Y0163738D01*
X0350759Y0163746D01*
X0350920Y0163750D01*
X0351080Y0163750D01*
X0351241Y0163746D01*
X0351402Y0163738D01*
X0351562Y0163726D01*
X0351722Y0163710D01*
X0351882Y0163690D01*
X0352041Y0163666D01*
X0352199Y0163638D01*
X0352357Y0163607D01*
X0352513Y0163571D01*
X0352669Y0163532D01*
X0352824Y0163489D01*
X0352978Y0163442D01*
X0353131Y0163391D01*
X0353282Y0163336D01*
X0353432Y0163278D01*
X0353580Y0163216D01*
X0353727Y0163150D01*
X0353872Y0163081D01*
X0354015Y0163008D01*
X0354157Y0162932D01*
X0354296Y0162852D01*
X0354434Y0162769D01*
X0354569Y0162682D01*
X0354703Y0162592D01*
X0354834Y0162499D01*
X0354962Y0162403D01*
X0355088Y0162303D01*
X0355212Y0162200D01*
X0355333Y0162095D01*
X0355452Y0161986D01*
X0355568Y0161875D01*
X0355681Y0161760D01*
X0355791Y0161643D01*
X0355898Y0161523D01*
X0356002Y0161401D01*
X0356103Y0161276D01*
X0356201Y0161148D01*
X0356296Y0161018D01*
X0356388Y0160886D01*
X0356476Y0160752D01*
X0356561Y0160615D01*
X0356643Y0160477D01*
X0356721Y0160336D01*
X0356795Y0160194D01*
X0356866Y0160050D01*
X0356934Y0159904D01*
X0356997Y0159756D01*
X0357058Y0159607D01*
X0357114Y0159456D01*
X0357167Y0159304D01*
X0357216Y0159151D01*
X0357261Y0158997D01*
X0357302Y0158842D01*
X0357340Y0158685D01*
X0357373Y0158528D01*
X0357403Y0158370D01*
X0357429Y0158211D01*
X0357450Y0158052D01*
X0357468Y0157892D01*
X0357482Y0157732D01*
X0357492Y0157571D01*
X0357498Y0157411D01*
X0357500Y0157250D01*
X0357498Y0157089D01*
X0357492Y0156929D01*
X0357482Y0156768D01*
X0357468Y0156608D01*
X0357450Y0156448D01*
X0357429Y0156289D01*
X0357403Y0156130D01*
X0357373Y0155972D01*
X0357340Y0155815D01*
X0357302Y0155658D01*
X0357261Y0155503D01*
X0357216Y0155349D01*
X0357167Y0155196D01*
X0357114Y0155044D01*
X0357058Y0154893D01*
X0356997Y0154744D01*
X0356934Y0154596D01*
X0356866Y0154450D01*
X0356795Y0154306D01*
X0356721Y0154164D01*
X0356643Y0154023D01*
X0356561Y0153885D01*
X0356476Y0153748D01*
X0356388Y0153614D01*
X0356296Y0153482D01*
X0356201Y0153352D01*
X0356103Y0153224D01*
X0356002Y0153099D01*
X0355898Y0152977D01*
X0355791Y0152857D01*
X0355681Y0152740D01*
X0355568Y0152625D01*
X0355452Y0152514D01*
X0355333Y0152405D01*
X0355212Y0152300D01*
X0355088Y0152197D01*
X0354962Y0152097D01*
X0354834Y0152001D01*
X0354703Y0151908D01*
X0354569Y0151818D01*
X0354434Y0151731D01*
X0354296Y0151648D01*
X0354157Y0151568D01*
X0354015Y0151492D01*
X0353872Y0151419D01*
X0353727Y0151350D01*
X0353580Y0151284D01*
X0353432Y0151222D01*
X0353282Y0151164D01*
X0353131Y0151109D01*
X0352978Y0151058D01*
X0352824Y0151011D01*
X0352669Y0150968D01*
X0352513Y0150929D01*
X0352357Y0150893D01*
X0352199Y0150862D01*
X0352041Y0150834D01*
X0351882Y0150810D01*
X0351722Y0150790D01*
X0351562Y0150774D01*
X0351402Y0150762D01*
X0351241Y0150754D01*
X0351080Y0150750D01*
X0350920Y0150750D01*
X0350759Y0150754D01*
X0350598Y0150762D01*
X0350438Y0150774D01*
X0350278Y0150790D01*
X0350118Y0150810D01*
X0349959Y0150834D01*
X0349801Y0150862D01*
X0349643Y0150893D01*
X0349487Y0150929D01*
X0349331Y0150968D01*
X0349176Y0151011D01*
X0349022Y0151058D01*
X0348869Y0151109D01*
X0348718Y0151164D01*
X0348568Y0151222D01*
X0348420Y0151284D01*
X0348273Y0151350D01*
X0348128Y0151419D01*
X0347985Y0151492D01*
X0347843Y0151568D01*
X0347704Y0151648D01*
X0347566Y0151731D01*
X0347431Y0151818D01*
X0347297Y0151908D01*
X0347166Y0152001D01*
X0347038Y0152097D01*
X0346912Y0152197D01*
X0346788Y0152300D01*
X0346667Y0152405D01*
X0346548Y0152514D01*
X0346432Y0152625D01*
X0346319Y0152740D01*
X0346209Y0152857D01*
X0346102Y0152977D01*
X0345998Y0153099D01*
X0345897Y0153224D01*
X0345799Y0153352D01*
X0345704Y0153482D01*
X0345612Y0153614D01*
X0345524Y0153748D01*
X0345439Y0153885D01*
X0345357Y0154023D01*
X0345279Y0154164D01*
X0345205Y0154306D01*
X0345134Y0154450D01*
X0345066Y0154596D01*
X0345003Y0154744D01*
X0344942Y0154893D01*
X0344886Y0155044D01*
X0344833Y0155196D01*
X0344784Y0155349D01*
X0344739Y0155503D01*
X0344698Y0155658D01*
X0344660Y0155815D01*
X0344627Y0155972D01*
X0344597Y0156130D01*
X0344571Y0156289D01*
X0344550Y0156448D01*
X0344532Y0156608D01*
X0344518Y0156768D01*
X0344508Y0156929D01*
X0344502Y0157089D01*
X0344500Y0157250D01*
X0049500Y0157250D02*
X0049502Y0157411D01*
X0049508Y0157571D01*
X0049518Y0157732D01*
X0049532Y0157892D01*
X0049550Y0158052D01*
X0049571Y0158211D01*
X0049597Y0158370D01*
X0049627Y0158528D01*
X0049660Y0158685D01*
X0049698Y0158842D01*
X0049739Y0158997D01*
X0049784Y0159151D01*
X0049833Y0159304D01*
X0049886Y0159456D01*
X0049942Y0159607D01*
X0050003Y0159756D01*
X0050066Y0159904D01*
X0050134Y0160050D01*
X0050205Y0160194D01*
X0050279Y0160336D01*
X0050357Y0160477D01*
X0050439Y0160615D01*
X0050524Y0160752D01*
X0050612Y0160886D01*
X0050704Y0161018D01*
X0050799Y0161148D01*
X0050897Y0161276D01*
X0050998Y0161401D01*
X0051102Y0161523D01*
X0051209Y0161643D01*
X0051319Y0161760D01*
X0051432Y0161875D01*
X0051548Y0161986D01*
X0051667Y0162095D01*
X0051788Y0162200D01*
X0051912Y0162303D01*
X0052038Y0162403D01*
X0052166Y0162499D01*
X0052297Y0162592D01*
X0052431Y0162682D01*
X0052566Y0162769D01*
X0052704Y0162852D01*
X0052843Y0162932D01*
X0052985Y0163008D01*
X0053128Y0163081D01*
X0053273Y0163150D01*
X0053420Y0163216D01*
X0053568Y0163278D01*
X0053718Y0163336D01*
X0053869Y0163391D01*
X0054022Y0163442D01*
X0054176Y0163489D01*
X0054331Y0163532D01*
X0054487Y0163571D01*
X0054643Y0163607D01*
X0054801Y0163638D01*
X0054959Y0163666D01*
X0055118Y0163690D01*
X0055278Y0163710D01*
X0055438Y0163726D01*
X0055598Y0163738D01*
X0055759Y0163746D01*
X0055920Y0163750D01*
X0056080Y0163750D01*
X0056241Y0163746D01*
X0056402Y0163738D01*
X0056562Y0163726D01*
X0056722Y0163710D01*
X0056882Y0163690D01*
X0057041Y0163666D01*
X0057199Y0163638D01*
X0057357Y0163607D01*
X0057513Y0163571D01*
X0057669Y0163532D01*
X0057824Y0163489D01*
X0057978Y0163442D01*
X0058131Y0163391D01*
X0058282Y0163336D01*
X0058432Y0163278D01*
X0058580Y0163216D01*
X0058727Y0163150D01*
X0058872Y0163081D01*
X0059015Y0163008D01*
X0059157Y0162932D01*
X0059296Y0162852D01*
X0059434Y0162769D01*
X0059569Y0162682D01*
X0059703Y0162592D01*
X0059834Y0162499D01*
X0059962Y0162403D01*
X0060088Y0162303D01*
X0060212Y0162200D01*
X0060333Y0162095D01*
X0060452Y0161986D01*
X0060568Y0161875D01*
X0060681Y0161760D01*
X0060791Y0161643D01*
X0060898Y0161523D01*
X0061002Y0161401D01*
X0061103Y0161276D01*
X0061201Y0161148D01*
X0061296Y0161018D01*
X0061388Y0160886D01*
X0061476Y0160752D01*
X0061561Y0160615D01*
X0061643Y0160477D01*
X0061721Y0160336D01*
X0061795Y0160194D01*
X0061866Y0160050D01*
X0061934Y0159904D01*
X0061997Y0159756D01*
X0062058Y0159607D01*
X0062114Y0159456D01*
X0062167Y0159304D01*
X0062216Y0159151D01*
X0062261Y0158997D01*
X0062302Y0158842D01*
X0062340Y0158685D01*
X0062373Y0158528D01*
X0062403Y0158370D01*
X0062429Y0158211D01*
X0062450Y0158052D01*
X0062468Y0157892D01*
X0062482Y0157732D01*
X0062492Y0157571D01*
X0062498Y0157411D01*
X0062500Y0157250D01*
X0062498Y0157089D01*
X0062492Y0156929D01*
X0062482Y0156768D01*
X0062468Y0156608D01*
X0062450Y0156448D01*
X0062429Y0156289D01*
X0062403Y0156130D01*
X0062373Y0155972D01*
X0062340Y0155815D01*
X0062302Y0155658D01*
X0062261Y0155503D01*
X0062216Y0155349D01*
X0062167Y0155196D01*
X0062114Y0155044D01*
X0062058Y0154893D01*
X0061997Y0154744D01*
X0061934Y0154596D01*
X0061866Y0154450D01*
X0061795Y0154306D01*
X0061721Y0154164D01*
X0061643Y0154023D01*
X0061561Y0153885D01*
X0061476Y0153748D01*
X0061388Y0153614D01*
X0061296Y0153482D01*
X0061201Y0153352D01*
X0061103Y0153224D01*
X0061002Y0153099D01*
X0060898Y0152977D01*
X0060791Y0152857D01*
X0060681Y0152740D01*
X0060568Y0152625D01*
X0060452Y0152514D01*
X0060333Y0152405D01*
X0060212Y0152300D01*
X0060088Y0152197D01*
X0059962Y0152097D01*
X0059834Y0152001D01*
X0059703Y0151908D01*
X0059569Y0151818D01*
X0059434Y0151731D01*
X0059296Y0151648D01*
X0059157Y0151568D01*
X0059015Y0151492D01*
X0058872Y0151419D01*
X0058727Y0151350D01*
X0058580Y0151284D01*
X0058432Y0151222D01*
X0058282Y0151164D01*
X0058131Y0151109D01*
X0057978Y0151058D01*
X0057824Y0151011D01*
X0057669Y0150968D01*
X0057513Y0150929D01*
X0057357Y0150893D01*
X0057199Y0150862D01*
X0057041Y0150834D01*
X0056882Y0150810D01*
X0056722Y0150790D01*
X0056562Y0150774D01*
X0056402Y0150762D01*
X0056241Y0150754D01*
X0056080Y0150750D01*
X0055920Y0150750D01*
X0055759Y0150754D01*
X0055598Y0150762D01*
X0055438Y0150774D01*
X0055278Y0150790D01*
X0055118Y0150810D01*
X0054959Y0150834D01*
X0054801Y0150862D01*
X0054643Y0150893D01*
X0054487Y0150929D01*
X0054331Y0150968D01*
X0054176Y0151011D01*
X0054022Y0151058D01*
X0053869Y0151109D01*
X0053718Y0151164D01*
X0053568Y0151222D01*
X0053420Y0151284D01*
X0053273Y0151350D01*
X0053128Y0151419D01*
X0052985Y0151492D01*
X0052843Y0151568D01*
X0052704Y0151648D01*
X0052566Y0151731D01*
X0052431Y0151818D01*
X0052297Y0151908D01*
X0052166Y0152001D01*
X0052038Y0152097D01*
X0051912Y0152197D01*
X0051788Y0152300D01*
X0051667Y0152405D01*
X0051548Y0152514D01*
X0051432Y0152625D01*
X0051319Y0152740D01*
X0051209Y0152857D01*
X0051102Y0152977D01*
X0050998Y0153099D01*
X0050897Y0153224D01*
X0050799Y0153352D01*
X0050704Y0153482D01*
X0050612Y0153614D01*
X0050524Y0153748D01*
X0050439Y0153885D01*
X0050357Y0154023D01*
X0050279Y0154164D01*
X0050205Y0154306D01*
X0050134Y0154450D01*
X0050066Y0154596D01*
X0050003Y0154744D01*
X0049942Y0154893D01*
X0049886Y0155044D01*
X0049833Y0155196D01*
X0049784Y0155349D01*
X0049739Y0155503D01*
X0049698Y0155658D01*
X0049660Y0155815D01*
X0049627Y0155972D01*
X0049597Y0156130D01*
X0049571Y0156289D01*
X0049550Y0156448D01*
X0049532Y0156608D01*
X0049518Y0156768D01*
X0049508Y0156929D01*
X0049502Y0157089D01*
X0049500Y0157250D01*
M02*
