%
M48
M72
T01C0.0200
T02C0.0400
T03C0.0402
T04C0.0440
T05C0.1201
T06C0.1300
%
T01
X13200Y5100
X14300Y4200
X18000Y2600
X17300Y2500
X19700Y2700
X21100Y2600
X18600Y3600
X19500Y5100
X24200Y2400
X21100Y600
X33600Y11100
X33600Y11600
X36100Y11600
X36100Y11100
T02
X34100Y13100
X33100Y13100
X32100Y13100
X31100Y13100
X30100Y13100
X25600Y13100
X25600Y12100
X25600Y11100
X25600Y10100
X25600Y9100
X25600Y8100
X25600Y7100
X25600Y6100
X31100Y6400
X31400Y7200
X32800Y7200
X33100Y6400
X32600Y8100
X31600Y8100
X38050Y7600
X39150Y7600
X39150Y6600
X38050Y6600
X38050Y5600
X39150Y5600
X39150Y4600
X38050Y4600
X38050Y3600
X39150Y3600
X7100Y8100
X7100Y9100
X7100Y10100
X7100Y11100
X7100Y12100
X7100Y13100
X7100Y14100
X3150Y7100
X2050Y7100
X2050Y6100
X3150Y6100
X3150Y5100
X2050Y5100
X2050Y4100
X3150Y4100
X3150Y3100
X2050Y3100
T03
X37222Y11100
X38600Y11100
T04
X33100Y3100
X32100Y3100
X31100Y3100
X30100Y3100
X29100Y3100
X28100Y3100
T05
X37911Y14214
T06
X6100Y2100
X35100Y3100
X34100Y15100
X1600Y15100
M30
