G75*
%MOIN*%
%OFA0B0*%
%FSLAX25Y25*%
%IPPOS*%
%LPD*%
%AMOC8*
5,1,8,0,0,1.08239X$1,22.5*
%
%ADD10C,0.07400*%
%ADD11R,0.04724X0.07087*%
%ADD12R,0.02362X0.06102*%
%ADD13R,0.04331X0.03937*%
%ADD14C,0.06024*%
%ADD15C,0.07400*%
%ADD16R,0.03937X0.04331*%
%ADD17C,0.04000*%
%ADD18C,0.10000*%
%ADD19C,0.01500*%
%ADD20C,0.01000*%
%ADD21C,0.02000*%
%ADD22C,0.03200*%
D10*
X0281000Y0027300D02*
X0281000Y0034700D01*
X0291000Y0034700D02*
X0291000Y0027300D01*
X0301000Y0027300D02*
X0301000Y0034700D01*
X0311000Y0034700D02*
X0311000Y0027300D01*
X0321000Y0027300D02*
X0321000Y0034700D01*
X0331000Y0034700D02*
X0331000Y0027300D01*
D11*
X0247803Y0022240D03*
X0225882Y0022240D03*
X0160803Y0022240D03*
X0130882Y0022240D03*
X0115803Y0022240D03*
X0085882Y0022240D03*
D12*
X0091000Y0031000D03*
X0094937Y0031000D03*
X0098874Y0031000D03*
X0102811Y0031000D03*
X0106748Y0031000D03*
X0110685Y0031000D03*
X0136000Y0031000D03*
X0139937Y0031000D03*
X0143874Y0031000D03*
X0147811Y0031000D03*
X0151748Y0031000D03*
X0155685Y0031000D03*
X0231000Y0031000D03*
X0234937Y0031000D03*
X0238874Y0031000D03*
X0242811Y0031000D03*
D13*
X0184346Y0031000D03*
X0177654Y0031000D03*
X0177654Y0021000D03*
X0184346Y0021000D03*
X0184346Y0041000D03*
X0177654Y0041000D03*
X0177654Y0051000D03*
X0184346Y0051000D03*
D14*
X0372220Y0107988D02*
X0372220Y0114012D01*
X0386000Y0114012D02*
X0386000Y0107988D01*
D15*
X0341000Y0131000D03*
X0331000Y0131000D03*
X0321000Y0131000D03*
X0311000Y0131000D03*
X0301000Y0131000D03*
X0256000Y0131000D03*
X0256000Y0121000D03*
X0256000Y0111000D03*
X0256000Y0101000D03*
X0256000Y0091000D03*
X0256000Y0081000D03*
X0256000Y0071000D03*
X0256000Y0061000D03*
X0311000Y0064000D03*
X0314000Y0072000D03*
X0328000Y0072000D03*
X0331000Y0064000D03*
X0326000Y0081000D03*
X0316000Y0081000D03*
X0380500Y0076000D03*
X0391500Y0076000D03*
X0391500Y0066000D03*
X0380500Y0066000D03*
X0380500Y0056000D03*
X0391500Y0056000D03*
X0391500Y0046000D03*
X0380500Y0046000D03*
X0380500Y0036000D03*
X0391500Y0036000D03*
X0071000Y0081000D03*
X0071000Y0091000D03*
X0071000Y0101000D03*
X0071000Y0111000D03*
X0071000Y0121000D03*
X0071000Y0131000D03*
X0071000Y0141000D03*
X0031500Y0071000D03*
X0020500Y0071000D03*
X0020500Y0061000D03*
X0031500Y0061000D03*
X0031500Y0051000D03*
X0020500Y0051000D03*
X0020500Y0041000D03*
X0031500Y0041000D03*
X0031500Y0031000D03*
X0020500Y0031000D03*
D16*
X0271000Y0092654D03*
X0271000Y0099346D03*
D17*
X0336000Y0111000D03*
X0336000Y0116000D03*
X0361000Y0116000D03*
X0361000Y0111000D03*
X0195000Y0051000D03*
X0201000Y0041000D03*
X0186000Y0036000D03*
X0201000Y0031000D03*
X0197000Y0027000D03*
X0211000Y0026000D03*
X0242000Y0024000D03*
X0281000Y0011000D03*
X0291000Y0011000D03*
X0301000Y0011000D03*
X0311000Y0011000D03*
X0321000Y0011000D03*
X0331000Y0011000D03*
X0346000Y0011000D03*
X0211000Y0006000D03*
X0173000Y0025000D03*
X0180000Y0026000D03*
X0143000Y0042000D03*
X0132000Y0051000D03*
X0051000Y0121000D03*
X0051000Y0131000D03*
D18*
X0256000Y0071000D02*
X0256000Y0061000D01*
X0291000Y0096000D01*
X0381000Y0096000D01*
X0386000Y0101000D01*
X0386000Y0111000D01*
D19*
X0271000Y0099346D02*
X0269346Y0101000D01*
X0256000Y0101000D01*
X0269346Y0091000D02*
X0271000Y0092654D01*
X0269346Y0091000D02*
X0256000Y0091000D01*
X0190338Y0086662D02*
X0190338Y0016338D01*
X0187500Y0013500D01*
X0173500Y0013500D01*
X0164765Y0022235D01*
X0164765Y0028415D01*
X0157529Y0035651D01*
X0153841Y0035651D01*
X0152904Y0034714D01*
X0152904Y0032156D01*
X0151748Y0031000D01*
X0147811Y0031000D02*
X0147811Y0036811D01*
X0149400Y0038400D01*
X0160254Y0038400D01*
X0173327Y0025327D01*
X0177654Y0021000D01*
X0391500Y0056000D02*
X0391600Y0056000D01*
D20*
X0032000Y0006000D02*
X0009000Y0029000D01*
X0009000Y0067000D01*
X0018000Y0076000D01*
X0026000Y0076000D01*
X0031000Y0071000D01*
X0031500Y0071000D01*
X0023000Y0066000D02*
X0018000Y0066000D01*
X0013000Y0061000D01*
X0013000Y0031000D01*
X0034000Y0010000D01*
X0127000Y0010000D01*
X0143000Y0026000D01*
X0143000Y0031000D01*
X0143874Y0031000D01*
X0144000Y0031000D01*
X0144000Y0037000D01*
X0148000Y0041000D01*
X0161000Y0041000D01*
X0171000Y0031000D01*
X0177654Y0031000D01*
X0178000Y0031000D01*
X0180000Y0029000D01*
X0180000Y0026000D01*
X0173327Y0025327D02*
X0173000Y0025000D01*
X0155000Y0028000D02*
X0155000Y0031000D01*
X0155685Y0031000D01*
X0151748Y0031000D02*
X0151000Y0031000D01*
X0151000Y0028000D01*
X0131000Y0008000D01*
X0033000Y0008000D01*
X0011000Y0030000D01*
X0011000Y0062000D01*
X0020000Y0071000D01*
X0020500Y0071000D01*
X0023000Y0066000D02*
X0028000Y0061000D01*
X0031500Y0061000D01*
X0021000Y0061000D02*
X0020500Y0061000D01*
X0021000Y0061000D02*
X0021000Y0051000D01*
X0020500Y0051000D01*
X0018000Y0046000D02*
X0026000Y0046000D01*
X0031000Y0041000D01*
X0031500Y0041000D01*
X0031000Y0041000D02*
X0064000Y0074000D01*
X0064000Y0124000D01*
X0057000Y0131000D01*
X0051000Y0131000D01*
X0047000Y0132000D02*
X0047000Y0130000D01*
X0051000Y0126000D01*
X0051000Y0121000D01*
X0064000Y0124000D02*
X0071000Y0131000D01*
X0076000Y0134000D02*
X0076000Y0086000D01*
X0071000Y0081000D01*
X0110000Y0042000D01*
X0110000Y0031000D01*
X0110685Y0031000D01*
X0102811Y0031000D02*
X0102000Y0031000D01*
X0102000Y0028000D01*
X0086000Y0012000D01*
X0043000Y0012000D01*
X0026000Y0029000D01*
X0026000Y0033000D01*
X0023000Y0036000D01*
X0018000Y0036000D01*
X0015000Y0039000D01*
X0015000Y0043000D01*
X0018000Y0046000D01*
X0020500Y0041000D02*
X0021000Y0041000D01*
X0026000Y0036000D01*
X0066000Y0036000D01*
X0066000Y0114000D01*
X0071000Y0119000D01*
X0071000Y0121000D01*
X0051000Y0136000D02*
X0047000Y0132000D01*
X0051000Y0136000D02*
X0074000Y0136000D01*
X0076000Y0134000D01*
X0132000Y0051000D02*
X0136500Y0046500D01*
X0142500Y0042500D02*
X0143000Y0042000D01*
X0155000Y0028000D02*
X0151000Y0024000D01*
X0164000Y0011000D01*
X0189000Y0011000D01*
X0193000Y0015000D01*
X0193000Y0028000D01*
X0201000Y0036000D01*
X0201000Y0041000D01*
X0186000Y0036000D02*
X0184346Y0036000D01*
X0197000Y0027000D02*
X0201000Y0031000D01*
X0222000Y0029000D02*
X0229000Y0036000D01*
X0234298Y0036000D01*
X0240149Y0041851D01*
X0240149Y0038346D01*
X0236393Y0034590D01*
X0236393Y0032456D01*
X0234937Y0031000D01*
X0235000Y0031000D01*
X0238874Y0031000D02*
X0239000Y0031000D01*
X0239000Y0027000D01*
X0242000Y0024000D01*
X0242000Y0017000D02*
X0231000Y0028000D01*
X0231000Y0031000D01*
X0242811Y0031000D02*
X0270000Y0031000D01*
X0279000Y0040000D01*
X0283000Y0040000D01*
X0286000Y0037000D01*
X0286000Y0025000D01*
X0289000Y0022000D01*
X0303000Y0022000D01*
X0311000Y0014000D01*
X0311000Y0011000D01*
X0310000Y0007000D02*
X0306000Y0011000D01*
X0301000Y0011000D01*
X0310000Y0007000D02*
X0312000Y0007000D01*
X0316000Y0011000D01*
X0316000Y0037000D01*
X0313000Y0040000D01*
X0309000Y0040000D01*
X0301000Y0032000D01*
X0301000Y0031000D01*
X0303000Y0022000D02*
X0311000Y0030000D01*
X0311000Y0031000D01*
X0321000Y0031000D02*
X0321000Y0011000D01*
X0331000Y0011000D02*
X0331000Y0031000D01*
X0291000Y0031000D02*
X0288000Y0034000D01*
X0288000Y0037828D01*
X0283828Y0042000D01*
X0240298Y0042000D01*
X0240149Y0041851D01*
X0222000Y0029000D02*
X0222000Y0018000D01*
X0225000Y0015000D01*
X0270000Y0015000D01*
X0278000Y0007000D01*
X0282000Y0007000D01*
X0286000Y0011000D01*
X0291000Y0011000D01*
X0281000Y0011000D02*
X0271000Y0021000D01*
X0267000Y0017000D01*
X0242000Y0017000D01*
X0271000Y0021000D02*
X0281000Y0031000D01*
X0346000Y0011000D02*
X0366000Y0011000D01*
X0391000Y0036000D01*
X0391500Y0036000D01*
X0383000Y0051000D02*
X0195000Y0051000D01*
X0151000Y0024000D02*
X0133000Y0006000D01*
X0032000Y0006000D01*
X0098000Y0031000D02*
X0098874Y0031000D01*
X0098000Y0031000D02*
X0098000Y0035000D01*
X0097000Y0036000D01*
X0066000Y0036000D01*
X0311000Y0131000D02*
X0318500Y0123500D01*
X0392036Y0123500D01*
X0394536Y0121000D01*
X0401000Y0121000D01*
X0401000Y0085500D01*
X0391500Y0076000D01*
X0391500Y0056000D02*
X0388000Y0056000D01*
X0383000Y0051000D01*
X0331000Y0131000D02*
X0329737Y0131000D01*
D21*
X0309737Y0151000D01*
X0246000Y0151000D01*
X0184346Y0089346D01*
X0184346Y0051000D01*
X0184346Y0041000D01*
X0184346Y0036000D01*
X0184346Y0031000D01*
X0184346Y0021000D01*
X0211000Y0026000D02*
X0211000Y0006000D01*
X0139937Y0031000D02*
X0139937Y0039937D01*
X0142500Y0042500D01*
X0146000Y0046000D01*
X0171000Y0046000D01*
X0176000Y0041000D01*
X0177654Y0041000D01*
X0177654Y0051000D02*
X0141000Y0051000D01*
X0136500Y0046500D01*
X0136000Y0046000D01*
X0136000Y0031000D01*
X0190338Y0086662D02*
X0247077Y0143400D01*
X0286000Y0143400D01*
X0281000Y0138400D01*
X0281000Y0136000D01*
X0296000Y0121000D01*
X0391000Y0121000D01*
X0396000Y0116000D01*
X0396000Y0091000D01*
X0381000Y0076000D01*
X0380500Y0076000D01*
X0321000Y0131000D02*
X0308600Y0143400D01*
X0286000Y0143400D01*
D22*
X0336000Y0116000D02*
X0361000Y0116000D01*
X0361000Y0111000D02*
X0336000Y0111000D01*
M02*
