G75*
%MOIN*%
%OFA0B0*%
%FSLAX25Y25*%
%IPPOS*%
%LPD*%
%AMOC8*
5,1,8,0,0,1.08239X$1,22.5*
%
%ADD10C,0.01100*%
%ADD11C,0.00600*%
%ADD12C,0.00800*%
%ADD13C,0.01000*%
%ADD14C,0.01600*%
%ADD15C,0.00001*%
%ADD16C,0.00500*%
D10*
X0091550Y0012861D02*
X0091550Y0016139D01*
X0091552Y0016210D01*
X0091558Y0016281D01*
X0091567Y0016351D01*
X0091581Y0016421D01*
X0091598Y0016490D01*
X0091619Y0016558D01*
X0091643Y0016624D01*
X0091671Y0016689D01*
X0091703Y0016753D01*
X0091738Y0016815D01*
X0091776Y0016875D01*
X0091817Y0016932D01*
X0091862Y0016988D01*
X0091909Y0017041D01*
X0091959Y0017091D01*
X0092012Y0017138D01*
X0092068Y0017183D01*
X0092125Y0017224D01*
X0092185Y0017262D01*
X0092247Y0017297D01*
X0092311Y0017329D01*
X0092376Y0017357D01*
X0092442Y0017381D01*
X0092510Y0017402D01*
X0092579Y0017419D01*
X0092649Y0017433D01*
X0092719Y0017442D01*
X0092790Y0017448D01*
X0092861Y0017450D01*
X0094828Y0017450D01*
X0098240Y0017450D02*
X0099878Y0017450D01*
X0098240Y0017450D02*
X0098240Y0011550D01*
X0094828Y0011550D02*
X0092861Y0011550D01*
X0092790Y0011552D01*
X0092719Y0011558D01*
X0092649Y0011567D01*
X0092579Y0011581D01*
X0092510Y0011598D01*
X0092442Y0011619D01*
X0092376Y0011643D01*
X0092311Y0011671D01*
X0092247Y0011703D01*
X0092185Y0011738D01*
X0092125Y0011776D01*
X0092068Y0011817D01*
X0092012Y0011862D01*
X0091959Y0011909D01*
X0091909Y0011959D01*
X0091862Y0012012D01*
X0091817Y0012068D01*
X0091776Y0012125D01*
X0091738Y0012185D01*
X0091703Y0012247D01*
X0091671Y0012311D01*
X0091643Y0012376D01*
X0091619Y0012442D01*
X0091598Y0012510D01*
X0091581Y0012579D01*
X0091567Y0012649D01*
X0091558Y0012719D01*
X0091552Y0012790D01*
X0091550Y0012861D01*
X0093844Y0014828D02*
X0094828Y0014828D01*
X0094828Y0011550D01*
X0098240Y0014172D02*
X0099878Y0014172D01*
X0099957Y0014174D01*
X0100036Y0014180D01*
X0100115Y0014189D01*
X0100193Y0014203D01*
X0100270Y0014220D01*
X0100347Y0014240D01*
X0100422Y0014265D01*
X0100496Y0014293D01*
X0100569Y0014325D01*
X0100640Y0014360D01*
X0100709Y0014398D01*
X0100776Y0014440D01*
X0100841Y0014485D01*
X0100904Y0014533D01*
X0100965Y0014584D01*
X0101023Y0014638D01*
X0101078Y0014695D01*
X0101131Y0014754D01*
X0101180Y0014816D01*
X0101227Y0014880D01*
X0101270Y0014946D01*
X0101310Y0015014D01*
X0101347Y0015085D01*
X0101381Y0015156D01*
X0101410Y0015230D01*
X0101437Y0015305D01*
X0101459Y0015380D01*
X0101478Y0015457D01*
X0101494Y0015535D01*
X0101505Y0015613D01*
X0101513Y0015692D01*
X0101517Y0015771D01*
X0101517Y0015851D01*
X0101513Y0015930D01*
X0101505Y0016009D01*
X0101494Y0016087D01*
X0101478Y0016165D01*
X0101459Y0016242D01*
X0101437Y0016317D01*
X0101410Y0016392D01*
X0101381Y0016466D01*
X0101347Y0016537D01*
X0101310Y0016608D01*
X0101270Y0016676D01*
X0101227Y0016742D01*
X0101180Y0016806D01*
X0101131Y0016868D01*
X0101078Y0016927D01*
X0101023Y0016984D01*
X0100965Y0017038D01*
X0100904Y0017089D01*
X0100841Y0017137D01*
X0100776Y0017182D01*
X0100709Y0017224D01*
X0100640Y0017262D01*
X0100569Y0017297D01*
X0100496Y0017329D01*
X0100422Y0017357D01*
X0100347Y0017382D01*
X0100270Y0017402D01*
X0100193Y0017419D01*
X0100115Y0017433D01*
X0100036Y0017442D01*
X0099957Y0017448D01*
X0099878Y0017450D01*
X0103816Y0017450D02*
X0105127Y0017450D01*
X0104471Y0017450D02*
X0104471Y0011550D01*
X0103816Y0011550D02*
X0105127Y0011550D01*
X0107756Y0013189D02*
X0107756Y0015811D01*
X0107755Y0015811D02*
X0107757Y0015890D01*
X0107763Y0015969D01*
X0107772Y0016048D01*
X0107786Y0016126D01*
X0107803Y0016203D01*
X0107823Y0016280D01*
X0107848Y0016355D01*
X0107876Y0016429D01*
X0107908Y0016502D01*
X0107943Y0016573D01*
X0107981Y0016642D01*
X0108023Y0016709D01*
X0108068Y0016774D01*
X0108116Y0016837D01*
X0108167Y0016898D01*
X0108221Y0016956D01*
X0108278Y0017011D01*
X0108337Y0017064D01*
X0108399Y0017113D01*
X0108463Y0017160D01*
X0108529Y0017203D01*
X0108597Y0017243D01*
X0108668Y0017280D01*
X0108739Y0017314D01*
X0108813Y0017343D01*
X0108888Y0017370D01*
X0108963Y0017392D01*
X0109040Y0017411D01*
X0109118Y0017427D01*
X0109196Y0017438D01*
X0109275Y0017446D01*
X0109354Y0017450D01*
X0109434Y0017450D01*
X0109513Y0017446D01*
X0109592Y0017438D01*
X0109670Y0017427D01*
X0109748Y0017411D01*
X0109825Y0017392D01*
X0109900Y0017370D01*
X0109975Y0017343D01*
X0110049Y0017314D01*
X0110120Y0017280D01*
X0110191Y0017243D01*
X0110259Y0017203D01*
X0110325Y0017160D01*
X0110389Y0017113D01*
X0110451Y0017064D01*
X0110510Y0017011D01*
X0110567Y0016956D01*
X0110621Y0016898D01*
X0110672Y0016837D01*
X0110720Y0016774D01*
X0110765Y0016709D01*
X0110807Y0016642D01*
X0110845Y0016573D01*
X0110880Y0016502D01*
X0110912Y0016429D01*
X0110940Y0016355D01*
X0110965Y0016280D01*
X0110985Y0016203D01*
X0111002Y0016126D01*
X0111016Y0016048D01*
X0111025Y0015969D01*
X0111031Y0015890D01*
X0111033Y0015811D01*
X0111033Y0013189D01*
X0111031Y0013110D01*
X0111025Y0013031D01*
X0111016Y0012952D01*
X0111002Y0012874D01*
X0110985Y0012797D01*
X0110965Y0012720D01*
X0110940Y0012645D01*
X0110912Y0012571D01*
X0110880Y0012498D01*
X0110845Y0012427D01*
X0110807Y0012358D01*
X0110765Y0012291D01*
X0110720Y0012226D01*
X0110672Y0012163D01*
X0110621Y0012102D01*
X0110567Y0012044D01*
X0110510Y0011989D01*
X0110451Y0011936D01*
X0110389Y0011887D01*
X0110325Y0011840D01*
X0110259Y0011797D01*
X0110191Y0011757D01*
X0110120Y0011720D01*
X0110049Y0011686D01*
X0109975Y0011657D01*
X0109900Y0011630D01*
X0109825Y0011608D01*
X0109748Y0011589D01*
X0109670Y0011573D01*
X0109592Y0011562D01*
X0109513Y0011554D01*
X0109434Y0011550D01*
X0109354Y0011550D01*
X0109275Y0011554D01*
X0109196Y0011562D01*
X0109118Y0011573D01*
X0109040Y0011589D01*
X0108963Y0011608D01*
X0108888Y0011630D01*
X0108813Y0011657D01*
X0108739Y0011686D01*
X0108668Y0011720D01*
X0108597Y0011757D01*
X0108529Y0011797D01*
X0108463Y0011840D01*
X0108399Y0011887D01*
X0108337Y0011936D01*
X0108278Y0011989D01*
X0108221Y0012044D01*
X0108167Y0012102D01*
X0108116Y0012163D01*
X0108068Y0012226D01*
X0108023Y0012291D01*
X0107981Y0012358D01*
X0107943Y0012427D01*
X0107908Y0012498D01*
X0107876Y0012571D01*
X0107848Y0012645D01*
X0107823Y0012720D01*
X0107803Y0012797D01*
X0107786Y0012874D01*
X0107772Y0012952D01*
X0107763Y0013031D01*
X0107757Y0013110D01*
X0107755Y0013189D01*
X0126550Y0012861D02*
X0126550Y0016139D01*
X0126552Y0016210D01*
X0126558Y0016281D01*
X0126567Y0016351D01*
X0126581Y0016421D01*
X0126598Y0016490D01*
X0126619Y0016558D01*
X0126643Y0016624D01*
X0126671Y0016689D01*
X0126703Y0016753D01*
X0126738Y0016815D01*
X0126776Y0016875D01*
X0126817Y0016932D01*
X0126862Y0016988D01*
X0126909Y0017041D01*
X0126959Y0017091D01*
X0127012Y0017138D01*
X0127068Y0017183D01*
X0127125Y0017224D01*
X0127185Y0017262D01*
X0127247Y0017297D01*
X0127311Y0017329D01*
X0127376Y0017357D01*
X0127442Y0017381D01*
X0127510Y0017402D01*
X0127579Y0017419D01*
X0127649Y0017433D01*
X0127719Y0017442D01*
X0127790Y0017448D01*
X0127861Y0017450D01*
X0129172Y0017450D01*
X0131824Y0015483D02*
X0131824Y0012533D01*
X0131825Y0012533D02*
X0131827Y0012471D01*
X0131833Y0012410D01*
X0131842Y0012349D01*
X0131856Y0012289D01*
X0131873Y0012229D01*
X0131894Y0012171D01*
X0131919Y0012114D01*
X0131947Y0012059D01*
X0131978Y0012006D01*
X0132013Y0011955D01*
X0132051Y0011906D01*
X0132091Y0011860D01*
X0132135Y0011816D01*
X0132181Y0011776D01*
X0132230Y0011738D01*
X0132281Y0011703D01*
X0132334Y0011672D01*
X0132389Y0011644D01*
X0132446Y0011619D01*
X0132504Y0011598D01*
X0132564Y0011581D01*
X0132624Y0011567D01*
X0132685Y0011558D01*
X0132746Y0011552D01*
X0132808Y0011550D01*
X0134447Y0011550D01*
X0134447Y0015483D01*
X0137619Y0015483D02*
X0139585Y0015483D01*
X0139585Y0014828D01*
X0137619Y0015483D02*
X0137619Y0011550D01*
X0141926Y0011550D02*
X0141926Y0015483D01*
X0143893Y0015483D01*
X0143893Y0014828D01*
X0145979Y0014172D02*
X0145979Y0012533D01*
X0145981Y0012471D01*
X0145987Y0012410D01*
X0145996Y0012349D01*
X0146010Y0012289D01*
X0146027Y0012229D01*
X0146048Y0012171D01*
X0146073Y0012114D01*
X0146101Y0012059D01*
X0146132Y0012006D01*
X0146167Y0011955D01*
X0146205Y0011906D01*
X0146245Y0011860D01*
X0146289Y0011816D01*
X0146335Y0011776D01*
X0146384Y0011738D01*
X0146435Y0011703D01*
X0146488Y0011672D01*
X0146543Y0011644D01*
X0146600Y0011619D01*
X0146658Y0011598D01*
X0146718Y0011581D01*
X0146778Y0011567D01*
X0146839Y0011558D01*
X0146900Y0011552D01*
X0146962Y0011550D01*
X0148601Y0011550D01*
X0151517Y0011550D02*
X0151517Y0015483D01*
X0153156Y0015483D01*
X0153218Y0015481D01*
X0153279Y0015475D01*
X0153340Y0015466D01*
X0153400Y0015452D01*
X0153460Y0015435D01*
X0153518Y0015414D01*
X0153575Y0015389D01*
X0153630Y0015361D01*
X0153683Y0015330D01*
X0153734Y0015295D01*
X0153783Y0015257D01*
X0153829Y0015217D01*
X0153873Y0015173D01*
X0153913Y0015127D01*
X0153951Y0015078D01*
X0153986Y0015027D01*
X0154017Y0014974D01*
X0154045Y0014919D01*
X0154070Y0014862D01*
X0154091Y0014804D01*
X0154108Y0014744D01*
X0154122Y0014684D01*
X0154131Y0014623D01*
X0154137Y0014562D01*
X0154139Y0014500D01*
X0154140Y0014500D02*
X0154140Y0011550D01*
X0157150Y0012533D02*
X0157150Y0017450D01*
X0156494Y0015483D02*
X0158461Y0015483D01*
X0157150Y0012533D02*
X0157152Y0012471D01*
X0157158Y0012410D01*
X0157167Y0012349D01*
X0157181Y0012289D01*
X0157198Y0012229D01*
X0157219Y0012171D01*
X0157244Y0012114D01*
X0157272Y0012059D01*
X0157303Y0012006D01*
X0157338Y0011955D01*
X0157376Y0011906D01*
X0157416Y0011860D01*
X0157460Y0011816D01*
X0157506Y0011776D01*
X0157555Y0011738D01*
X0157606Y0011703D01*
X0157659Y0011672D01*
X0157714Y0011644D01*
X0157771Y0011619D01*
X0157829Y0011598D01*
X0157889Y0011581D01*
X0157949Y0011567D01*
X0158010Y0011558D01*
X0158071Y0011552D01*
X0158133Y0011550D01*
X0158461Y0011550D01*
X0148601Y0013517D02*
X0145979Y0013517D01*
X0145979Y0014172D02*
X0145981Y0014243D01*
X0145987Y0014314D01*
X0145996Y0014384D01*
X0146010Y0014454D01*
X0146027Y0014523D01*
X0146048Y0014591D01*
X0146072Y0014657D01*
X0146100Y0014722D01*
X0146132Y0014786D01*
X0146167Y0014848D01*
X0146205Y0014908D01*
X0146246Y0014965D01*
X0146291Y0015021D01*
X0146338Y0015074D01*
X0146388Y0015124D01*
X0146441Y0015171D01*
X0146497Y0015216D01*
X0146554Y0015257D01*
X0146614Y0015295D01*
X0146676Y0015330D01*
X0146740Y0015362D01*
X0146805Y0015390D01*
X0146871Y0015414D01*
X0146939Y0015435D01*
X0147008Y0015452D01*
X0147078Y0015466D01*
X0147148Y0015475D01*
X0147219Y0015481D01*
X0147290Y0015483D01*
X0147361Y0015481D01*
X0147432Y0015475D01*
X0147502Y0015466D01*
X0147572Y0015452D01*
X0147641Y0015435D01*
X0147709Y0015414D01*
X0147775Y0015390D01*
X0147840Y0015362D01*
X0147904Y0015330D01*
X0147966Y0015295D01*
X0148026Y0015257D01*
X0148083Y0015216D01*
X0148139Y0015171D01*
X0148192Y0015124D01*
X0148242Y0015074D01*
X0148289Y0015021D01*
X0148334Y0014965D01*
X0148375Y0014908D01*
X0148413Y0014848D01*
X0148448Y0014786D01*
X0148480Y0014722D01*
X0148508Y0014657D01*
X0148532Y0014591D01*
X0148553Y0014523D01*
X0148570Y0014454D01*
X0148584Y0014384D01*
X0148593Y0014314D01*
X0148599Y0014243D01*
X0148601Y0014172D01*
X0148601Y0013517D01*
X0129172Y0011550D02*
X0127861Y0011550D01*
X0127790Y0011552D01*
X0127719Y0011558D01*
X0127649Y0011567D01*
X0127579Y0011581D01*
X0127510Y0011598D01*
X0127442Y0011619D01*
X0127376Y0011643D01*
X0127311Y0011671D01*
X0127247Y0011703D01*
X0127185Y0011738D01*
X0127125Y0011776D01*
X0127068Y0011817D01*
X0127012Y0011862D01*
X0126959Y0011909D01*
X0126909Y0011959D01*
X0126862Y0012012D01*
X0126817Y0012068D01*
X0126776Y0012125D01*
X0126738Y0012185D01*
X0126703Y0012247D01*
X0126671Y0012311D01*
X0126643Y0012376D01*
X0126619Y0012442D01*
X0126598Y0012510D01*
X0126581Y0012579D01*
X0126567Y0012649D01*
X0126558Y0012719D01*
X0126552Y0012790D01*
X0126550Y0012861D01*
X0206550Y0033189D02*
X0206550Y0035811D01*
X0206552Y0035890D01*
X0206558Y0035969D01*
X0206567Y0036048D01*
X0206581Y0036126D01*
X0206598Y0036203D01*
X0206618Y0036280D01*
X0206643Y0036355D01*
X0206671Y0036429D01*
X0206703Y0036502D01*
X0206738Y0036573D01*
X0206776Y0036642D01*
X0206818Y0036709D01*
X0206863Y0036774D01*
X0206911Y0036837D01*
X0206962Y0036898D01*
X0207016Y0036956D01*
X0207073Y0037011D01*
X0207132Y0037064D01*
X0207194Y0037113D01*
X0207258Y0037160D01*
X0207324Y0037203D01*
X0207392Y0037243D01*
X0207463Y0037280D01*
X0207534Y0037314D01*
X0207608Y0037343D01*
X0207683Y0037370D01*
X0207758Y0037392D01*
X0207835Y0037411D01*
X0207913Y0037427D01*
X0207991Y0037438D01*
X0208070Y0037446D01*
X0208149Y0037450D01*
X0208229Y0037450D01*
X0208308Y0037446D01*
X0208387Y0037438D01*
X0208465Y0037427D01*
X0208543Y0037411D01*
X0208620Y0037392D01*
X0208695Y0037370D01*
X0208770Y0037343D01*
X0208844Y0037314D01*
X0208915Y0037280D01*
X0208986Y0037243D01*
X0209054Y0037203D01*
X0209120Y0037160D01*
X0209184Y0037113D01*
X0209246Y0037064D01*
X0209305Y0037011D01*
X0209362Y0036956D01*
X0209416Y0036898D01*
X0209467Y0036837D01*
X0209515Y0036774D01*
X0209560Y0036709D01*
X0209602Y0036642D01*
X0209640Y0036573D01*
X0209675Y0036502D01*
X0209707Y0036429D01*
X0209735Y0036355D01*
X0209760Y0036280D01*
X0209780Y0036203D01*
X0209797Y0036126D01*
X0209811Y0036048D01*
X0209820Y0035969D01*
X0209826Y0035890D01*
X0209828Y0035811D01*
X0209828Y0033189D01*
X0209826Y0033110D01*
X0209820Y0033031D01*
X0209811Y0032952D01*
X0209797Y0032874D01*
X0209780Y0032797D01*
X0209760Y0032720D01*
X0209735Y0032645D01*
X0209707Y0032571D01*
X0209675Y0032498D01*
X0209640Y0032427D01*
X0209602Y0032358D01*
X0209560Y0032291D01*
X0209515Y0032226D01*
X0209467Y0032163D01*
X0209416Y0032102D01*
X0209362Y0032044D01*
X0209305Y0031989D01*
X0209246Y0031936D01*
X0209184Y0031887D01*
X0209120Y0031840D01*
X0209054Y0031797D01*
X0208986Y0031757D01*
X0208915Y0031720D01*
X0208844Y0031686D01*
X0208770Y0031657D01*
X0208695Y0031630D01*
X0208620Y0031608D01*
X0208543Y0031589D01*
X0208465Y0031573D01*
X0208387Y0031562D01*
X0208308Y0031554D01*
X0208229Y0031550D01*
X0208149Y0031550D01*
X0208070Y0031554D01*
X0207991Y0031562D01*
X0207913Y0031573D01*
X0207835Y0031589D01*
X0207758Y0031608D01*
X0207683Y0031630D01*
X0207608Y0031657D01*
X0207534Y0031686D01*
X0207463Y0031720D01*
X0207392Y0031757D01*
X0207324Y0031797D01*
X0207258Y0031840D01*
X0207194Y0031887D01*
X0207132Y0031936D01*
X0207073Y0031989D01*
X0207016Y0032044D01*
X0206962Y0032102D01*
X0206911Y0032163D01*
X0206863Y0032226D01*
X0206818Y0032291D01*
X0206776Y0032358D01*
X0206738Y0032427D01*
X0206703Y0032498D01*
X0206671Y0032571D01*
X0206643Y0032645D01*
X0206618Y0032720D01*
X0206598Y0032797D01*
X0206581Y0032874D01*
X0206567Y0032952D01*
X0206558Y0033031D01*
X0206552Y0033110D01*
X0206550Y0033189D01*
X0212909Y0033189D02*
X0212909Y0037450D01*
X0216187Y0037450D02*
X0216187Y0033189D01*
X0216185Y0033110D01*
X0216179Y0033031D01*
X0216170Y0032952D01*
X0216156Y0032874D01*
X0216139Y0032797D01*
X0216119Y0032720D01*
X0216094Y0032645D01*
X0216066Y0032571D01*
X0216034Y0032498D01*
X0215999Y0032427D01*
X0215961Y0032358D01*
X0215919Y0032291D01*
X0215874Y0032226D01*
X0215826Y0032163D01*
X0215775Y0032102D01*
X0215721Y0032044D01*
X0215664Y0031989D01*
X0215605Y0031936D01*
X0215543Y0031887D01*
X0215479Y0031840D01*
X0215413Y0031797D01*
X0215345Y0031757D01*
X0215274Y0031720D01*
X0215203Y0031686D01*
X0215129Y0031657D01*
X0215054Y0031630D01*
X0214979Y0031608D01*
X0214902Y0031589D01*
X0214824Y0031573D01*
X0214746Y0031562D01*
X0214667Y0031554D01*
X0214588Y0031550D01*
X0214508Y0031550D01*
X0214429Y0031554D01*
X0214350Y0031562D01*
X0214272Y0031573D01*
X0214194Y0031589D01*
X0214117Y0031608D01*
X0214042Y0031630D01*
X0213967Y0031657D01*
X0213893Y0031686D01*
X0213822Y0031720D01*
X0213751Y0031757D01*
X0213683Y0031797D01*
X0213617Y0031840D01*
X0213553Y0031887D01*
X0213491Y0031936D01*
X0213432Y0031989D01*
X0213375Y0032044D01*
X0213321Y0032102D01*
X0213270Y0032163D01*
X0213222Y0032226D01*
X0213177Y0032291D01*
X0213135Y0032358D01*
X0213097Y0032427D01*
X0213062Y0032498D01*
X0213030Y0032571D01*
X0213002Y0032645D01*
X0212977Y0032720D01*
X0212957Y0032797D01*
X0212940Y0032874D01*
X0212926Y0032952D01*
X0212917Y0033031D01*
X0212911Y0033110D01*
X0212909Y0033189D01*
X0220497Y0031550D02*
X0220497Y0037450D01*
X0218858Y0037450D02*
X0222136Y0037450D01*
X0221317Y0041550D02*
X0219679Y0041550D01*
X0219679Y0047450D01*
X0221317Y0047450D01*
X0221395Y0047448D01*
X0221473Y0047443D01*
X0221550Y0047433D01*
X0221627Y0047420D01*
X0221703Y0047404D01*
X0221779Y0047384D01*
X0221853Y0047360D01*
X0221926Y0047333D01*
X0221998Y0047302D01*
X0222068Y0047268D01*
X0222137Y0047230D01*
X0222203Y0047190D01*
X0222268Y0047146D01*
X0222330Y0047099D01*
X0222390Y0047050D01*
X0222448Y0046997D01*
X0222503Y0046942D01*
X0222556Y0046884D01*
X0222605Y0046824D01*
X0222652Y0046762D01*
X0222696Y0046697D01*
X0222736Y0046631D01*
X0222774Y0046562D01*
X0222808Y0046492D01*
X0222839Y0046420D01*
X0222866Y0046347D01*
X0222890Y0046273D01*
X0222910Y0046197D01*
X0222926Y0046121D01*
X0222939Y0046044D01*
X0222949Y0045967D01*
X0222954Y0045889D01*
X0222956Y0045811D01*
X0222956Y0043189D01*
X0222954Y0043111D01*
X0222949Y0043033D01*
X0222939Y0042956D01*
X0222926Y0042879D01*
X0222910Y0042803D01*
X0222890Y0042727D01*
X0222866Y0042653D01*
X0222839Y0042580D01*
X0222808Y0042508D01*
X0222774Y0042438D01*
X0222736Y0042370D01*
X0222696Y0042303D01*
X0222652Y0042238D01*
X0222605Y0042176D01*
X0222556Y0042116D01*
X0222503Y0042058D01*
X0222448Y0042003D01*
X0222390Y0041950D01*
X0222330Y0041901D01*
X0222268Y0041854D01*
X0222203Y0041810D01*
X0222137Y0041770D01*
X0222068Y0041732D01*
X0221998Y0041698D01*
X0221926Y0041667D01*
X0221853Y0041640D01*
X0221779Y0041616D01*
X0221703Y0041596D01*
X0221627Y0041580D01*
X0221550Y0041567D01*
X0221473Y0041557D01*
X0221395Y0041552D01*
X0221317Y0041550D01*
X0216392Y0041550D02*
X0216392Y0047450D01*
X0213114Y0047450D02*
X0216392Y0041550D01*
X0213114Y0041550D02*
X0213114Y0047450D01*
X0209828Y0047450D02*
X0207861Y0047450D01*
X0207790Y0047448D01*
X0207719Y0047442D01*
X0207649Y0047433D01*
X0207579Y0047419D01*
X0207510Y0047402D01*
X0207442Y0047381D01*
X0207376Y0047357D01*
X0207311Y0047329D01*
X0207247Y0047297D01*
X0207185Y0047262D01*
X0207125Y0047224D01*
X0207068Y0047183D01*
X0207012Y0047138D01*
X0206959Y0047091D01*
X0206909Y0047041D01*
X0206862Y0046988D01*
X0206817Y0046932D01*
X0206776Y0046875D01*
X0206738Y0046815D01*
X0206703Y0046753D01*
X0206671Y0046689D01*
X0206643Y0046624D01*
X0206619Y0046558D01*
X0206598Y0046490D01*
X0206581Y0046421D01*
X0206567Y0046351D01*
X0206558Y0046281D01*
X0206552Y0046210D01*
X0206550Y0046139D01*
X0206550Y0042861D01*
X0206552Y0042790D01*
X0206558Y0042719D01*
X0206567Y0042649D01*
X0206581Y0042579D01*
X0206598Y0042510D01*
X0206619Y0042442D01*
X0206643Y0042376D01*
X0206671Y0042311D01*
X0206703Y0042247D01*
X0206738Y0042185D01*
X0206776Y0042125D01*
X0206817Y0042068D01*
X0206862Y0042012D01*
X0206909Y0041959D01*
X0206959Y0041909D01*
X0207012Y0041862D01*
X0207068Y0041817D01*
X0207125Y0041776D01*
X0207185Y0041738D01*
X0207247Y0041703D01*
X0207311Y0041671D01*
X0207376Y0041643D01*
X0207442Y0041619D01*
X0207510Y0041598D01*
X0207579Y0041581D01*
X0207649Y0041567D01*
X0207719Y0041558D01*
X0207790Y0041552D01*
X0207861Y0041550D01*
X0209828Y0041550D01*
X0209828Y0044828D01*
X0208844Y0044828D01*
X0226550Y0017450D02*
X0229172Y0017450D01*
X0226550Y0017450D02*
X0226550Y0011550D01*
X0229172Y0011550D01*
X0231866Y0011550D02*
X0231866Y0017450D01*
X0235144Y0011550D01*
X0235144Y0017450D01*
X0238202Y0016139D02*
X0238202Y0012861D01*
X0238204Y0012790D01*
X0238210Y0012719D01*
X0238219Y0012649D01*
X0238233Y0012579D01*
X0238250Y0012510D01*
X0238271Y0012442D01*
X0238295Y0012376D01*
X0238323Y0012311D01*
X0238355Y0012247D01*
X0238390Y0012185D01*
X0238428Y0012125D01*
X0238469Y0012068D01*
X0238514Y0012012D01*
X0238561Y0011959D01*
X0238611Y0011909D01*
X0238664Y0011862D01*
X0238720Y0011817D01*
X0238777Y0011776D01*
X0238837Y0011738D01*
X0238899Y0011703D01*
X0238963Y0011671D01*
X0239028Y0011643D01*
X0239094Y0011619D01*
X0239162Y0011598D01*
X0239231Y0011581D01*
X0239301Y0011567D01*
X0239371Y0011558D01*
X0239442Y0011552D01*
X0239513Y0011550D01*
X0240824Y0011550D01*
X0238202Y0016139D02*
X0238204Y0016210D01*
X0238210Y0016281D01*
X0238219Y0016351D01*
X0238233Y0016421D01*
X0238250Y0016490D01*
X0238271Y0016558D01*
X0238295Y0016624D01*
X0238323Y0016689D01*
X0238355Y0016753D01*
X0238390Y0016815D01*
X0238428Y0016875D01*
X0238469Y0016932D01*
X0238514Y0016988D01*
X0238561Y0017041D01*
X0238611Y0017091D01*
X0238664Y0017138D01*
X0238720Y0017183D01*
X0238777Y0017224D01*
X0238837Y0017262D01*
X0238899Y0017297D01*
X0238963Y0017329D01*
X0239028Y0017357D01*
X0239094Y0017381D01*
X0239162Y0017402D01*
X0239231Y0017419D01*
X0239301Y0017433D01*
X0239371Y0017442D01*
X0239442Y0017448D01*
X0239513Y0017450D01*
X0240824Y0017450D01*
X0228517Y0014828D02*
X0226550Y0014828D01*
X0291550Y0016550D02*
X0291550Y0022450D01*
X0293517Y0019172D01*
X0295483Y0022450D01*
X0295483Y0016550D01*
X0298565Y0017861D02*
X0298565Y0019172D01*
X0298567Y0019243D01*
X0298573Y0019314D01*
X0298582Y0019384D01*
X0298596Y0019454D01*
X0298613Y0019523D01*
X0298634Y0019591D01*
X0298658Y0019657D01*
X0298686Y0019722D01*
X0298718Y0019786D01*
X0298753Y0019848D01*
X0298791Y0019908D01*
X0298832Y0019965D01*
X0298877Y0020021D01*
X0298924Y0020074D01*
X0298974Y0020124D01*
X0299027Y0020171D01*
X0299083Y0020216D01*
X0299140Y0020257D01*
X0299200Y0020295D01*
X0299262Y0020330D01*
X0299326Y0020362D01*
X0299391Y0020390D01*
X0299457Y0020414D01*
X0299525Y0020435D01*
X0299594Y0020452D01*
X0299664Y0020466D01*
X0299734Y0020475D01*
X0299805Y0020481D01*
X0299876Y0020483D01*
X0299947Y0020481D01*
X0300018Y0020475D01*
X0300088Y0020466D01*
X0300158Y0020452D01*
X0300227Y0020435D01*
X0300295Y0020414D01*
X0300361Y0020390D01*
X0300426Y0020362D01*
X0300490Y0020330D01*
X0300552Y0020295D01*
X0300612Y0020257D01*
X0300669Y0020216D01*
X0300725Y0020171D01*
X0300778Y0020124D01*
X0300828Y0020074D01*
X0300875Y0020021D01*
X0300920Y0019965D01*
X0300961Y0019908D01*
X0300999Y0019848D01*
X0301034Y0019786D01*
X0301066Y0019722D01*
X0301094Y0019657D01*
X0301118Y0019591D01*
X0301139Y0019523D01*
X0301156Y0019454D01*
X0301170Y0019384D01*
X0301179Y0019314D01*
X0301185Y0019243D01*
X0301187Y0019172D01*
X0301187Y0017861D01*
X0301185Y0017790D01*
X0301179Y0017719D01*
X0301170Y0017649D01*
X0301156Y0017579D01*
X0301139Y0017510D01*
X0301118Y0017442D01*
X0301094Y0017376D01*
X0301066Y0017311D01*
X0301034Y0017247D01*
X0300999Y0017185D01*
X0300961Y0017125D01*
X0300920Y0017068D01*
X0300875Y0017012D01*
X0300828Y0016959D01*
X0300778Y0016909D01*
X0300725Y0016862D01*
X0300669Y0016817D01*
X0300612Y0016776D01*
X0300552Y0016738D01*
X0300490Y0016703D01*
X0300426Y0016671D01*
X0300361Y0016643D01*
X0300295Y0016619D01*
X0300227Y0016598D01*
X0300158Y0016581D01*
X0300088Y0016567D01*
X0300018Y0016558D01*
X0299947Y0016552D01*
X0299876Y0016550D01*
X0299805Y0016552D01*
X0299734Y0016558D01*
X0299664Y0016567D01*
X0299594Y0016581D01*
X0299525Y0016598D01*
X0299457Y0016619D01*
X0299391Y0016643D01*
X0299326Y0016671D01*
X0299262Y0016703D01*
X0299200Y0016738D01*
X0299140Y0016776D01*
X0299083Y0016817D01*
X0299027Y0016862D01*
X0298974Y0016909D01*
X0298924Y0016959D01*
X0298877Y0017012D01*
X0298832Y0017068D01*
X0298791Y0017125D01*
X0298753Y0017185D01*
X0298718Y0017247D01*
X0298686Y0017311D01*
X0298658Y0017376D01*
X0298634Y0017442D01*
X0298613Y0017510D01*
X0298596Y0017579D01*
X0298582Y0017649D01*
X0298573Y0017719D01*
X0298567Y0017790D01*
X0298565Y0017861D01*
X0303992Y0017533D02*
X0303992Y0022450D01*
X0303336Y0020483D02*
X0305303Y0020483D01*
X0307796Y0019172D02*
X0307796Y0017861D01*
X0307798Y0017790D01*
X0307804Y0017719D01*
X0307813Y0017649D01*
X0307827Y0017579D01*
X0307844Y0017510D01*
X0307865Y0017442D01*
X0307889Y0017376D01*
X0307917Y0017311D01*
X0307949Y0017247D01*
X0307984Y0017185D01*
X0308022Y0017125D01*
X0308063Y0017068D01*
X0308108Y0017012D01*
X0308155Y0016959D01*
X0308205Y0016909D01*
X0308258Y0016862D01*
X0308314Y0016817D01*
X0308371Y0016776D01*
X0308431Y0016738D01*
X0308493Y0016703D01*
X0308557Y0016671D01*
X0308622Y0016643D01*
X0308688Y0016619D01*
X0308756Y0016598D01*
X0308825Y0016581D01*
X0308895Y0016567D01*
X0308965Y0016558D01*
X0309036Y0016552D01*
X0309107Y0016550D01*
X0309178Y0016552D01*
X0309249Y0016558D01*
X0309319Y0016567D01*
X0309389Y0016581D01*
X0309458Y0016598D01*
X0309526Y0016619D01*
X0309592Y0016643D01*
X0309657Y0016671D01*
X0309721Y0016703D01*
X0309783Y0016738D01*
X0309843Y0016776D01*
X0309900Y0016817D01*
X0309956Y0016862D01*
X0310009Y0016909D01*
X0310059Y0016959D01*
X0310106Y0017012D01*
X0310151Y0017068D01*
X0310192Y0017125D01*
X0310230Y0017185D01*
X0310265Y0017247D01*
X0310297Y0017311D01*
X0310325Y0017376D01*
X0310349Y0017442D01*
X0310370Y0017510D01*
X0310387Y0017579D01*
X0310401Y0017649D01*
X0310410Y0017719D01*
X0310416Y0017790D01*
X0310418Y0017861D01*
X0310418Y0019172D01*
X0310416Y0019243D01*
X0310410Y0019314D01*
X0310401Y0019384D01*
X0310387Y0019454D01*
X0310370Y0019523D01*
X0310349Y0019591D01*
X0310325Y0019657D01*
X0310297Y0019722D01*
X0310265Y0019786D01*
X0310230Y0019848D01*
X0310192Y0019908D01*
X0310151Y0019965D01*
X0310106Y0020021D01*
X0310059Y0020074D01*
X0310009Y0020124D01*
X0309956Y0020171D01*
X0309900Y0020216D01*
X0309843Y0020257D01*
X0309783Y0020295D01*
X0309721Y0020330D01*
X0309657Y0020362D01*
X0309592Y0020390D01*
X0309526Y0020414D01*
X0309458Y0020435D01*
X0309389Y0020452D01*
X0309319Y0020466D01*
X0309249Y0020475D01*
X0309178Y0020481D01*
X0309107Y0020483D01*
X0309036Y0020481D01*
X0308965Y0020475D01*
X0308895Y0020466D01*
X0308825Y0020452D01*
X0308756Y0020435D01*
X0308688Y0020414D01*
X0308622Y0020390D01*
X0308557Y0020362D01*
X0308493Y0020330D01*
X0308431Y0020295D01*
X0308371Y0020257D01*
X0308314Y0020216D01*
X0308258Y0020171D01*
X0308205Y0020124D01*
X0308155Y0020074D01*
X0308108Y0020021D01*
X0308063Y0019965D01*
X0308022Y0019908D01*
X0307984Y0019848D01*
X0307949Y0019786D01*
X0307917Y0019722D01*
X0307889Y0019657D01*
X0307865Y0019591D01*
X0307844Y0019523D01*
X0307827Y0019454D01*
X0307813Y0019384D01*
X0307804Y0019314D01*
X0307798Y0019243D01*
X0307796Y0019172D01*
X0304975Y0016550D02*
X0304913Y0016552D01*
X0304852Y0016558D01*
X0304791Y0016567D01*
X0304731Y0016581D01*
X0304671Y0016598D01*
X0304613Y0016619D01*
X0304556Y0016644D01*
X0304501Y0016672D01*
X0304448Y0016703D01*
X0304397Y0016738D01*
X0304348Y0016776D01*
X0304302Y0016816D01*
X0304258Y0016860D01*
X0304218Y0016906D01*
X0304180Y0016955D01*
X0304145Y0017006D01*
X0304114Y0017059D01*
X0304086Y0017114D01*
X0304061Y0017171D01*
X0304040Y0017229D01*
X0304023Y0017289D01*
X0304009Y0017349D01*
X0304000Y0017410D01*
X0303994Y0017471D01*
X0303992Y0017533D01*
X0304975Y0016550D02*
X0305303Y0016550D01*
X0313385Y0016550D02*
X0313385Y0020483D01*
X0315351Y0020483D01*
X0315351Y0019828D01*
X0320966Y0018025D02*
X0323916Y0018025D01*
X0324407Y0016550D02*
X0322441Y0022450D01*
X0320474Y0016550D01*
X0329868Y0022614D02*
X0330851Y0023597D01*
X0331834Y0022614D01*
X0351550Y0016139D02*
X0351550Y0012861D01*
X0351552Y0012790D01*
X0351558Y0012719D01*
X0351567Y0012649D01*
X0351581Y0012579D01*
X0351598Y0012510D01*
X0351619Y0012442D01*
X0351643Y0012376D01*
X0351671Y0012311D01*
X0351703Y0012247D01*
X0351738Y0012185D01*
X0351776Y0012125D01*
X0351817Y0012068D01*
X0351862Y0012012D01*
X0351909Y0011959D01*
X0351959Y0011909D01*
X0352012Y0011862D01*
X0352068Y0011817D01*
X0352125Y0011776D01*
X0352185Y0011738D01*
X0352247Y0011703D01*
X0352311Y0011671D01*
X0352376Y0011643D01*
X0352442Y0011619D01*
X0352510Y0011598D01*
X0352579Y0011581D01*
X0352649Y0011567D01*
X0352719Y0011558D01*
X0352790Y0011552D01*
X0352861Y0011550D01*
X0354828Y0011550D01*
X0354828Y0014828D01*
X0353844Y0014828D01*
X0351550Y0016139D02*
X0351552Y0016210D01*
X0351558Y0016281D01*
X0351567Y0016351D01*
X0351581Y0016421D01*
X0351598Y0016490D01*
X0351619Y0016558D01*
X0351643Y0016624D01*
X0351671Y0016689D01*
X0351703Y0016753D01*
X0351738Y0016815D01*
X0351776Y0016875D01*
X0351817Y0016932D01*
X0351862Y0016988D01*
X0351909Y0017041D01*
X0351959Y0017091D01*
X0352012Y0017138D01*
X0352068Y0017183D01*
X0352125Y0017224D01*
X0352185Y0017262D01*
X0352247Y0017297D01*
X0352311Y0017329D01*
X0352376Y0017357D01*
X0352442Y0017381D01*
X0352510Y0017402D01*
X0352579Y0017419D01*
X0352649Y0017433D01*
X0352719Y0017442D01*
X0352790Y0017448D01*
X0352861Y0017450D01*
X0354828Y0017450D01*
X0358114Y0017450D02*
X0361392Y0011550D01*
X0361392Y0017450D01*
X0358114Y0017450D02*
X0358114Y0011550D01*
X0364679Y0011550D02*
X0366317Y0011550D01*
X0364679Y0011550D02*
X0364679Y0017450D01*
X0366317Y0017450D01*
X0366395Y0017448D01*
X0366473Y0017443D01*
X0366550Y0017433D01*
X0366627Y0017420D01*
X0366703Y0017404D01*
X0366779Y0017384D01*
X0366853Y0017360D01*
X0366926Y0017333D01*
X0366998Y0017302D01*
X0367068Y0017268D01*
X0367137Y0017230D01*
X0367203Y0017190D01*
X0367268Y0017146D01*
X0367330Y0017099D01*
X0367390Y0017050D01*
X0367448Y0016997D01*
X0367503Y0016942D01*
X0367556Y0016884D01*
X0367605Y0016824D01*
X0367652Y0016762D01*
X0367696Y0016697D01*
X0367736Y0016631D01*
X0367774Y0016562D01*
X0367808Y0016492D01*
X0367839Y0016420D01*
X0367866Y0016347D01*
X0367890Y0016273D01*
X0367910Y0016197D01*
X0367926Y0016121D01*
X0367939Y0016044D01*
X0367949Y0015967D01*
X0367954Y0015889D01*
X0367956Y0015811D01*
X0367956Y0013189D01*
X0367954Y0013111D01*
X0367949Y0013033D01*
X0367939Y0012956D01*
X0367926Y0012879D01*
X0367910Y0012803D01*
X0367890Y0012727D01*
X0367866Y0012653D01*
X0367839Y0012580D01*
X0367808Y0012508D01*
X0367774Y0012438D01*
X0367736Y0012370D01*
X0367696Y0012303D01*
X0367652Y0012238D01*
X0367605Y0012176D01*
X0367556Y0012116D01*
X0367503Y0012058D01*
X0367448Y0012003D01*
X0367390Y0011950D01*
X0367330Y0011901D01*
X0367268Y0011854D01*
X0367203Y0011810D01*
X0367137Y0011770D01*
X0367068Y0011732D01*
X0366998Y0011698D01*
X0366926Y0011667D01*
X0366853Y0011640D01*
X0366779Y0011616D01*
X0366703Y0011596D01*
X0366627Y0011580D01*
X0366550Y0011567D01*
X0366473Y0011557D01*
X0366395Y0011552D01*
X0366317Y0011550D01*
X0375549Y0011550D02*
X0375549Y0017450D01*
X0377187Y0017450D02*
X0373910Y0017450D01*
X0379984Y0017450D02*
X0381623Y0017450D01*
X0381702Y0017448D01*
X0381781Y0017442D01*
X0381860Y0017433D01*
X0381938Y0017419D01*
X0382015Y0017402D01*
X0382092Y0017382D01*
X0382167Y0017357D01*
X0382241Y0017329D01*
X0382314Y0017297D01*
X0382385Y0017262D01*
X0382454Y0017224D01*
X0382521Y0017182D01*
X0382586Y0017137D01*
X0382649Y0017089D01*
X0382710Y0017038D01*
X0382768Y0016984D01*
X0382823Y0016927D01*
X0382876Y0016868D01*
X0382925Y0016806D01*
X0382972Y0016742D01*
X0383015Y0016676D01*
X0383055Y0016608D01*
X0383092Y0016537D01*
X0383126Y0016466D01*
X0383155Y0016392D01*
X0383182Y0016317D01*
X0383204Y0016242D01*
X0383223Y0016165D01*
X0383239Y0016087D01*
X0383250Y0016009D01*
X0383258Y0015930D01*
X0383262Y0015851D01*
X0383262Y0015771D01*
X0383258Y0015692D01*
X0383250Y0015613D01*
X0383239Y0015535D01*
X0383223Y0015457D01*
X0383204Y0015380D01*
X0383182Y0015305D01*
X0383155Y0015230D01*
X0383126Y0015156D01*
X0383092Y0015085D01*
X0383055Y0015014D01*
X0383015Y0014946D01*
X0382972Y0014880D01*
X0382925Y0014816D01*
X0382876Y0014754D01*
X0382823Y0014695D01*
X0382768Y0014638D01*
X0382710Y0014584D01*
X0382649Y0014533D01*
X0382586Y0014485D01*
X0382521Y0014440D01*
X0382454Y0014398D01*
X0382385Y0014360D01*
X0382314Y0014325D01*
X0382241Y0014293D01*
X0382167Y0014265D01*
X0382092Y0014240D01*
X0382015Y0014220D01*
X0381938Y0014203D01*
X0381860Y0014189D01*
X0381781Y0014180D01*
X0381702Y0014174D01*
X0381623Y0014172D01*
X0379984Y0014172D01*
X0379984Y0011550D02*
X0379984Y0017450D01*
X0041623Y0119172D02*
X0039984Y0119172D01*
X0041623Y0119172D02*
X0041702Y0119174D01*
X0041781Y0119180D01*
X0041860Y0119189D01*
X0041938Y0119203D01*
X0042015Y0119220D01*
X0042092Y0119240D01*
X0042167Y0119265D01*
X0042241Y0119293D01*
X0042314Y0119325D01*
X0042385Y0119360D01*
X0042454Y0119398D01*
X0042521Y0119440D01*
X0042586Y0119485D01*
X0042649Y0119533D01*
X0042710Y0119584D01*
X0042768Y0119638D01*
X0042823Y0119695D01*
X0042876Y0119754D01*
X0042925Y0119816D01*
X0042972Y0119880D01*
X0043015Y0119946D01*
X0043055Y0120014D01*
X0043092Y0120085D01*
X0043126Y0120156D01*
X0043155Y0120230D01*
X0043182Y0120305D01*
X0043204Y0120380D01*
X0043223Y0120457D01*
X0043239Y0120535D01*
X0043250Y0120613D01*
X0043258Y0120692D01*
X0043262Y0120771D01*
X0043262Y0120851D01*
X0043258Y0120930D01*
X0043250Y0121009D01*
X0043239Y0121087D01*
X0043223Y0121165D01*
X0043204Y0121242D01*
X0043182Y0121317D01*
X0043155Y0121392D01*
X0043126Y0121466D01*
X0043092Y0121537D01*
X0043055Y0121608D01*
X0043015Y0121676D01*
X0042972Y0121742D01*
X0042925Y0121806D01*
X0042876Y0121868D01*
X0042823Y0121927D01*
X0042768Y0121984D01*
X0042710Y0122038D01*
X0042649Y0122089D01*
X0042586Y0122137D01*
X0042521Y0122182D01*
X0042454Y0122224D01*
X0042385Y0122262D01*
X0042314Y0122297D01*
X0042241Y0122329D01*
X0042167Y0122357D01*
X0042092Y0122382D01*
X0042015Y0122402D01*
X0041938Y0122419D01*
X0041860Y0122433D01*
X0041781Y0122442D01*
X0041702Y0122448D01*
X0041623Y0122450D01*
X0039984Y0122450D01*
X0039984Y0116550D01*
X0035549Y0116550D02*
X0035549Y0122450D01*
X0037187Y0122450D02*
X0033910Y0122450D01*
X0027956Y0120811D02*
X0027956Y0118189D01*
X0027954Y0118111D01*
X0027949Y0118033D01*
X0027939Y0117956D01*
X0027926Y0117879D01*
X0027910Y0117803D01*
X0027890Y0117727D01*
X0027866Y0117653D01*
X0027839Y0117580D01*
X0027808Y0117508D01*
X0027774Y0117438D01*
X0027736Y0117370D01*
X0027696Y0117303D01*
X0027652Y0117238D01*
X0027605Y0117176D01*
X0027556Y0117116D01*
X0027503Y0117058D01*
X0027448Y0117003D01*
X0027390Y0116950D01*
X0027330Y0116901D01*
X0027268Y0116854D01*
X0027203Y0116810D01*
X0027137Y0116770D01*
X0027068Y0116732D01*
X0026998Y0116698D01*
X0026926Y0116667D01*
X0026853Y0116640D01*
X0026779Y0116616D01*
X0026703Y0116596D01*
X0026627Y0116580D01*
X0026550Y0116567D01*
X0026473Y0116557D01*
X0026395Y0116552D01*
X0026317Y0116550D01*
X0024679Y0116550D01*
X0024679Y0122450D01*
X0026317Y0122450D01*
X0026395Y0122448D01*
X0026473Y0122443D01*
X0026550Y0122433D01*
X0026627Y0122420D01*
X0026703Y0122404D01*
X0026779Y0122384D01*
X0026853Y0122360D01*
X0026926Y0122333D01*
X0026998Y0122302D01*
X0027068Y0122268D01*
X0027137Y0122230D01*
X0027203Y0122190D01*
X0027268Y0122146D01*
X0027330Y0122099D01*
X0027390Y0122050D01*
X0027448Y0121997D01*
X0027503Y0121942D01*
X0027556Y0121884D01*
X0027605Y0121824D01*
X0027652Y0121762D01*
X0027696Y0121697D01*
X0027736Y0121631D01*
X0027774Y0121562D01*
X0027808Y0121492D01*
X0027839Y0121420D01*
X0027866Y0121347D01*
X0027890Y0121273D01*
X0027910Y0121197D01*
X0027926Y0121121D01*
X0027939Y0121044D01*
X0027949Y0120967D01*
X0027954Y0120889D01*
X0027956Y0120811D01*
X0021392Y0122450D02*
X0021392Y0116550D01*
X0018114Y0122450D01*
X0018114Y0116550D01*
X0014828Y0116550D02*
X0012861Y0116550D01*
X0012790Y0116552D01*
X0012719Y0116558D01*
X0012649Y0116567D01*
X0012579Y0116581D01*
X0012510Y0116598D01*
X0012442Y0116619D01*
X0012376Y0116643D01*
X0012311Y0116671D01*
X0012247Y0116703D01*
X0012185Y0116738D01*
X0012125Y0116776D01*
X0012068Y0116817D01*
X0012012Y0116862D01*
X0011959Y0116909D01*
X0011909Y0116959D01*
X0011862Y0117012D01*
X0011817Y0117068D01*
X0011776Y0117125D01*
X0011738Y0117185D01*
X0011703Y0117247D01*
X0011671Y0117311D01*
X0011643Y0117376D01*
X0011619Y0117442D01*
X0011598Y0117510D01*
X0011581Y0117579D01*
X0011567Y0117649D01*
X0011558Y0117719D01*
X0011552Y0117790D01*
X0011550Y0117861D01*
X0011550Y0121139D01*
X0011552Y0121210D01*
X0011558Y0121281D01*
X0011567Y0121351D01*
X0011581Y0121421D01*
X0011598Y0121490D01*
X0011619Y0121558D01*
X0011643Y0121624D01*
X0011671Y0121689D01*
X0011703Y0121753D01*
X0011738Y0121815D01*
X0011776Y0121875D01*
X0011817Y0121932D01*
X0011862Y0121988D01*
X0011909Y0122041D01*
X0011959Y0122091D01*
X0012012Y0122138D01*
X0012068Y0122183D01*
X0012125Y0122224D01*
X0012185Y0122262D01*
X0012247Y0122297D01*
X0012311Y0122329D01*
X0012376Y0122357D01*
X0012442Y0122381D01*
X0012510Y0122402D01*
X0012579Y0122419D01*
X0012649Y0122433D01*
X0012719Y0122442D01*
X0012790Y0122448D01*
X0012861Y0122450D01*
X0014828Y0122450D01*
X0014828Y0119828D02*
X0014828Y0116550D01*
X0014828Y0119828D02*
X0013844Y0119828D01*
X0014172Y0131550D02*
X0011550Y0131550D01*
X0011550Y0137450D01*
X0014172Y0137450D01*
X0016920Y0137450D02*
X0018559Y0137450D01*
X0016920Y0137450D02*
X0016920Y0131550D01*
X0018887Y0134172D02*
X0020198Y0131550D01*
X0023279Y0131550D02*
X0023279Y0137450D01*
X0024918Y0137450D01*
X0024997Y0137448D01*
X0025076Y0137442D01*
X0025155Y0137433D01*
X0025233Y0137419D01*
X0025310Y0137402D01*
X0025387Y0137382D01*
X0025462Y0137357D01*
X0025536Y0137329D01*
X0025609Y0137297D01*
X0025680Y0137262D01*
X0025749Y0137224D01*
X0025816Y0137182D01*
X0025881Y0137137D01*
X0025944Y0137089D01*
X0026005Y0137038D01*
X0026063Y0136984D01*
X0026118Y0136927D01*
X0026171Y0136868D01*
X0026220Y0136806D01*
X0026267Y0136742D01*
X0026310Y0136676D01*
X0026350Y0136608D01*
X0026387Y0136537D01*
X0026421Y0136466D01*
X0026450Y0136392D01*
X0026477Y0136317D01*
X0026499Y0136242D01*
X0026518Y0136165D01*
X0026534Y0136087D01*
X0026545Y0136009D01*
X0026553Y0135930D01*
X0026557Y0135851D01*
X0026557Y0135771D01*
X0026553Y0135692D01*
X0026545Y0135613D01*
X0026534Y0135535D01*
X0026518Y0135457D01*
X0026499Y0135380D01*
X0026477Y0135305D01*
X0026450Y0135230D01*
X0026421Y0135156D01*
X0026387Y0135085D01*
X0026350Y0135014D01*
X0026310Y0134946D01*
X0026267Y0134880D01*
X0026220Y0134816D01*
X0026171Y0134754D01*
X0026118Y0134695D01*
X0026063Y0134638D01*
X0026005Y0134584D01*
X0025944Y0134533D01*
X0025881Y0134485D01*
X0025816Y0134440D01*
X0025749Y0134398D01*
X0025680Y0134360D01*
X0025609Y0134325D01*
X0025536Y0134293D01*
X0025462Y0134265D01*
X0025387Y0134240D01*
X0025310Y0134220D01*
X0025233Y0134203D01*
X0025155Y0134189D01*
X0025076Y0134180D01*
X0024997Y0134174D01*
X0024918Y0134172D01*
X0023279Y0134172D01*
X0025246Y0134172D02*
X0026557Y0131550D01*
X0033890Y0131550D02*
X0033890Y0137450D01*
X0032251Y0137450D02*
X0035529Y0137450D01*
X0038325Y0137450D02*
X0039964Y0137450D01*
X0040043Y0137448D01*
X0040122Y0137442D01*
X0040201Y0137433D01*
X0040279Y0137419D01*
X0040356Y0137402D01*
X0040433Y0137382D01*
X0040508Y0137357D01*
X0040582Y0137329D01*
X0040655Y0137297D01*
X0040726Y0137262D01*
X0040795Y0137224D01*
X0040862Y0137182D01*
X0040927Y0137137D01*
X0040990Y0137089D01*
X0041051Y0137038D01*
X0041109Y0136984D01*
X0041164Y0136927D01*
X0041217Y0136868D01*
X0041266Y0136806D01*
X0041313Y0136742D01*
X0041356Y0136676D01*
X0041396Y0136608D01*
X0041433Y0136537D01*
X0041467Y0136466D01*
X0041496Y0136392D01*
X0041523Y0136317D01*
X0041545Y0136242D01*
X0041564Y0136165D01*
X0041580Y0136087D01*
X0041591Y0136009D01*
X0041599Y0135930D01*
X0041603Y0135851D01*
X0041603Y0135771D01*
X0041599Y0135692D01*
X0041591Y0135613D01*
X0041580Y0135535D01*
X0041564Y0135457D01*
X0041545Y0135380D01*
X0041523Y0135305D01*
X0041496Y0135230D01*
X0041467Y0135156D01*
X0041433Y0135085D01*
X0041396Y0135014D01*
X0041356Y0134946D01*
X0041313Y0134880D01*
X0041266Y0134816D01*
X0041217Y0134754D01*
X0041164Y0134695D01*
X0041109Y0134638D01*
X0041051Y0134584D01*
X0040990Y0134533D01*
X0040927Y0134485D01*
X0040862Y0134440D01*
X0040795Y0134398D01*
X0040726Y0134360D01*
X0040655Y0134325D01*
X0040582Y0134293D01*
X0040508Y0134265D01*
X0040433Y0134240D01*
X0040356Y0134220D01*
X0040279Y0134203D01*
X0040201Y0134189D01*
X0040122Y0134180D01*
X0040043Y0134174D01*
X0039964Y0134172D01*
X0038325Y0134172D01*
X0038325Y0131550D02*
X0038325Y0137450D01*
X0018559Y0137450D02*
X0018638Y0137448D01*
X0018717Y0137442D01*
X0018796Y0137433D01*
X0018874Y0137419D01*
X0018951Y0137402D01*
X0019028Y0137382D01*
X0019103Y0137357D01*
X0019177Y0137329D01*
X0019250Y0137297D01*
X0019321Y0137262D01*
X0019390Y0137224D01*
X0019457Y0137182D01*
X0019522Y0137137D01*
X0019585Y0137089D01*
X0019646Y0137038D01*
X0019704Y0136984D01*
X0019759Y0136927D01*
X0019812Y0136868D01*
X0019861Y0136806D01*
X0019908Y0136742D01*
X0019951Y0136676D01*
X0019991Y0136608D01*
X0020028Y0136537D01*
X0020062Y0136466D01*
X0020091Y0136392D01*
X0020118Y0136317D01*
X0020140Y0136242D01*
X0020159Y0136165D01*
X0020175Y0136087D01*
X0020186Y0136009D01*
X0020194Y0135930D01*
X0020198Y0135851D01*
X0020198Y0135771D01*
X0020194Y0135692D01*
X0020186Y0135613D01*
X0020175Y0135535D01*
X0020159Y0135457D01*
X0020140Y0135380D01*
X0020118Y0135305D01*
X0020091Y0135230D01*
X0020062Y0135156D01*
X0020028Y0135085D01*
X0019991Y0135014D01*
X0019951Y0134946D01*
X0019908Y0134880D01*
X0019861Y0134816D01*
X0019812Y0134754D01*
X0019759Y0134695D01*
X0019704Y0134638D01*
X0019646Y0134584D01*
X0019585Y0134533D01*
X0019522Y0134485D01*
X0019457Y0134440D01*
X0019390Y0134398D01*
X0019321Y0134360D01*
X0019250Y0134325D01*
X0019177Y0134293D01*
X0019103Y0134265D01*
X0019028Y0134240D01*
X0018951Y0134220D01*
X0018874Y0134203D01*
X0018796Y0134189D01*
X0018717Y0134180D01*
X0018638Y0134174D01*
X0018559Y0134172D01*
X0016920Y0134172D01*
X0013517Y0134828D02*
X0011550Y0134828D01*
D11*
X0192433Y0059700D02*
X0193567Y0056300D01*
X0193283Y0057150D02*
X0191583Y0057150D01*
X0191300Y0056300D02*
X0192433Y0059700D01*
X0194936Y0059700D02*
X0195691Y0059700D01*
X0195313Y0059700D02*
X0195313Y0056300D01*
X0194936Y0056300D02*
X0195691Y0056300D01*
X0197369Y0056300D02*
X0197369Y0059700D01*
X0199258Y0056300D01*
X0199258Y0059700D01*
X0201089Y0059700D02*
X0202222Y0059700D01*
X0202276Y0059698D01*
X0202330Y0059692D01*
X0202383Y0059683D01*
X0202435Y0059669D01*
X0202486Y0059652D01*
X0202536Y0059632D01*
X0202584Y0059608D01*
X0202631Y0059580D01*
X0202675Y0059549D01*
X0202717Y0059515D01*
X0202757Y0059479D01*
X0202793Y0059439D01*
X0202827Y0059397D01*
X0202858Y0059353D01*
X0202886Y0059306D01*
X0202910Y0059258D01*
X0202930Y0059208D01*
X0202947Y0059157D01*
X0202961Y0059105D01*
X0202970Y0059052D01*
X0202976Y0058998D01*
X0202978Y0058944D01*
X0202976Y0058890D01*
X0202970Y0058836D01*
X0202961Y0058783D01*
X0202947Y0058731D01*
X0202930Y0058680D01*
X0202910Y0058630D01*
X0202886Y0058582D01*
X0202858Y0058535D01*
X0202827Y0058491D01*
X0202793Y0058449D01*
X0202757Y0058409D01*
X0202717Y0058373D01*
X0202675Y0058339D01*
X0202631Y0058308D01*
X0202584Y0058280D01*
X0202536Y0058256D01*
X0202486Y0058236D01*
X0202435Y0058219D01*
X0202383Y0058205D01*
X0202330Y0058196D01*
X0202276Y0058190D01*
X0202222Y0058188D01*
X0202222Y0058189D02*
X0201467Y0058189D01*
X0202033Y0058188D02*
X0202093Y0058186D01*
X0202154Y0058180D01*
X0202213Y0058171D01*
X0202272Y0058157D01*
X0202330Y0058140D01*
X0202387Y0058119D01*
X0202443Y0058095D01*
X0202496Y0058067D01*
X0202548Y0058035D01*
X0202598Y0058001D01*
X0202645Y0057963D01*
X0202690Y0057922D01*
X0202732Y0057879D01*
X0202771Y0057833D01*
X0202807Y0057784D01*
X0202840Y0057733D01*
X0202870Y0057681D01*
X0202896Y0057626D01*
X0202919Y0057570D01*
X0202938Y0057513D01*
X0202953Y0057454D01*
X0202965Y0057395D01*
X0202973Y0057335D01*
X0202977Y0057274D01*
X0202977Y0057214D01*
X0202973Y0057153D01*
X0202965Y0057093D01*
X0202953Y0057034D01*
X0202938Y0056975D01*
X0202919Y0056918D01*
X0202896Y0056862D01*
X0202870Y0056807D01*
X0202840Y0056755D01*
X0202807Y0056704D01*
X0202771Y0056655D01*
X0202732Y0056609D01*
X0202690Y0056566D01*
X0202645Y0056525D01*
X0202598Y0056487D01*
X0202548Y0056453D01*
X0202496Y0056421D01*
X0202443Y0056393D01*
X0202387Y0056369D01*
X0202330Y0056348D01*
X0202272Y0056331D01*
X0202213Y0056317D01*
X0202154Y0056308D01*
X0202093Y0056302D01*
X0202033Y0056300D01*
X0201089Y0056300D01*
X0199258Y0049700D02*
X0199258Y0046300D01*
X0197369Y0049700D01*
X0197369Y0046300D01*
X0195691Y0046300D02*
X0194936Y0046300D01*
X0195313Y0046300D02*
X0195313Y0049700D01*
X0194936Y0049700D02*
X0195691Y0049700D01*
X0192433Y0049700D02*
X0193567Y0046300D01*
X0193283Y0047150D02*
X0191583Y0047150D01*
X0191300Y0046300D02*
X0192433Y0049700D01*
X0201089Y0046300D02*
X0202978Y0046300D01*
X0201089Y0046300D02*
X0202694Y0048189D01*
X0202128Y0049700D02*
X0202063Y0049698D01*
X0201998Y0049692D01*
X0201933Y0049682D01*
X0201869Y0049669D01*
X0201806Y0049651D01*
X0201744Y0049630D01*
X0201684Y0049605D01*
X0201625Y0049577D01*
X0201568Y0049545D01*
X0201512Y0049510D01*
X0201460Y0049472D01*
X0201409Y0049430D01*
X0201361Y0049385D01*
X0201316Y0049338D01*
X0201274Y0049288D01*
X0201235Y0049236D01*
X0201199Y0049181D01*
X0201166Y0049125D01*
X0201137Y0049066D01*
X0201111Y0049006D01*
X0201089Y0048944D01*
X0202695Y0048189D02*
X0202735Y0048229D01*
X0202772Y0048272D01*
X0202807Y0048317D01*
X0202838Y0048365D01*
X0202867Y0048414D01*
X0202893Y0048464D01*
X0202915Y0048517D01*
X0202934Y0048570D01*
X0202950Y0048625D01*
X0202962Y0048680D01*
X0202971Y0048737D01*
X0202976Y0048793D01*
X0202978Y0048850D01*
X0202976Y0048906D01*
X0202971Y0048961D01*
X0202962Y0049016D01*
X0202949Y0049070D01*
X0202933Y0049123D01*
X0202913Y0049175D01*
X0202890Y0049226D01*
X0202864Y0049275D01*
X0202835Y0049322D01*
X0202802Y0049367D01*
X0202767Y0049410D01*
X0202729Y0049451D01*
X0202688Y0049489D01*
X0202645Y0049524D01*
X0202600Y0049557D01*
X0202553Y0049586D01*
X0202504Y0049612D01*
X0202453Y0049635D01*
X0202401Y0049655D01*
X0202348Y0049671D01*
X0202294Y0049684D01*
X0202239Y0049693D01*
X0202184Y0049698D01*
X0202128Y0049700D01*
X0202033Y0039700D02*
X0201089Y0038944D01*
X0202033Y0039700D02*
X0202033Y0036300D01*
X0201089Y0036300D02*
X0202978Y0036300D01*
X0199258Y0036300D02*
X0199258Y0039700D01*
X0197369Y0039700D02*
X0199258Y0036300D01*
X0197369Y0036300D02*
X0197369Y0039700D01*
X0195691Y0039700D02*
X0194936Y0039700D01*
X0195313Y0039700D02*
X0195313Y0036300D01*
X0194936Y0036300D02*
X0195691Y0036300D01*
X0193567Y0036300D02*
X0192433Y0039700D01*
X0191300Y0036300D01*
X0191583Y0037150D02*
X0193283Y0037150D01*
X0192433Y0024700D02*
X0193567Y0021300D01*
X0193283Y0022150D02*
X0191583Y0022150D01*
X0191300Y0021300D02*
X0192433Y0024700D01*
X0194936Y0024700D02*
X0195691Y0024700D01*
X0195313Y0024700D02*
X0195313Y0021300D01*
X0194936Y0021300D02*
X0195691Y0021300D01*
X0197369Y0021300D02*
X0197369Y0024700D01*
X0199258Y0021300D01*
X0199258Y0024700D01*
X0202978Y0023000D02*
X0202976Y0022902D01*
X0202971Y0022805D01*
X0202963Y0022707D01*
X0202951Y0022610D01*
X0202935Y0022514D01*
X0202917Y0022418D01*
X0202895Y0022322D01*
X0202870Y0022228D01*
X0202841Y0022134D01*
X0202809Y0022042D01*
X0202774Y0021951D01*
X0202736Y0021861D01*
X0202695Y0021772D01*
X0202694Y0021772D02*
X0202676Y0021725D01*
X0202654Y0021679D01*
X0202629Y0021634D01*
X0202601Y0021592D01*
X0202570Y0021551D01*
X0202536Y0021513D01*
X0202499Y0021478D01*
X0202460Y0021445D01*
X0202418Y0021416D01*
X0202375Y0021389D01*
X0202329Y0021366D01*
X0202282Y0021346D01*
X0202234Y0021330D01*
X0202185Y0021317D01*
X0202135Y0021307D01*
X0202084Y0021302D01*
X0202033Y0021300D01*
X0201982Y0021302D01*
X0201931Y0021307D01*
X0201881Y0021317D01*
X0201832Y0021330D01*
X0201784Y0021346D01*
X0201737Y0021366D01*
X0201691Y0021389D01*
X0201648Y0021416D01*
X0201606Y0021445D01*
X0201567Y0021478D01*
X0201530Y0021513D01*
X0201496Y0021551D01*
X0201465Y0021592D01*
X0201437Y0021634D01*
X0201412Y0021679D01*
X0201390Y0021725D01*
X0201372Y0021772D01*
X0201278Y0022056D02*
X0202789Y0023944D01*
X0202694Y0024228D02*
X0202676Y0024275D01*
X0202654Y0024321D01*
X0202629Y0024366D01*
X0202601Y0024408D01*
X0202570Y0024449D01*
X0202536Y0024487D01*
X0202499Y0024522D01*
X0202460Y0024555D01*
X0202418Y0024584D01*
X0202375Y0024611D01*
X0202329Y0024634D01*
X0202282Y0024654D01*
X0202234Y0024670D01*
X0202185Y0024683D01*
X0202135Y0024693D01*
X0202084Y0024698D01*
X0202033Y0024700D01*
X0201982Y0024698D01*
X0201931Y0024693D01*
X0201881Y0024683D01*
X0201832Y0024670D01*
X0201784Y0024654D01*
X0201737Y0024634D01*
X0201691Y0024611D01*
X0201648Y0024584D01*
X0201606Y0024555D01*
X0201567Y0024522D01*
X0201530Y0024487D01*
X0201496Y0024449D01*
X0201465Y0024408D01*
X0201437Y0024366D01*
X0201412Y0024321D01*
X0201390Y0024275D01*
X0201372Y0024228D01*
X0202695Y0024228D02*
X0202736Y0024139D01*
X0202774Y0024049D01*
X0202809Y0023958D01*
X0202841Y0023866D01*
X0202870Y0023772D01*
X0202895Y0023678D01*
X0202917Y0023582D01*
X0202935Y0023486D01*
X0202951Y0023390D01*
X0202963Y0023293D01*
X0202971Y0023195D01*
X0202976Y0023098D01*
X0202978Y0023000D01*
X0201089Y0023000D02*
X0201091Y0023098D01*
X0201096Y0023195D01*
X0201104Y0023293D01*
X0201116Y0023390D01*
X0201132Y0023486D01*
X0201150Y0023582D01*
X0201172Y0023678D01*
X0201197Y0023772D01*
X0201226Y0023866D01*
X0201258Y0023958D01*
X0201293Y0024049D01*
X0201331Y0024139D01*
X0201372Y0024228D01*
X0201089Y0023000D02*
X0201091Y0022902D01*
X0201096Y0022805D01*
X0201104Y0022707D01*
X0201116Y0022610D01*
X0201132Y0022514D01*
X0201150Y0022418D01*
X0201172Y0022322D01*
X0201197Y0022228D01*
X0201226Y0022134D01*
X0201258Y0022042D01*
X0201293Y0021951D01*
X0201331Y0021861D01*
X0201372Y0021772D01*
D12*
X0043717Y0011236D02*
X0008283Y0011236D01*
X0008283Y0042339D01*
X0014189Y0042339D01*
X0014189Y0059661D01*
X0008283Y0059661D01*
X0008283Y0090764D01*
X0043323Y0090764D01*
X0043717Y0090764D02*
X0043717Y0011236D01*
X0008283Y0042339D02*
X0008283Y0059661D01*
X0015075Y0068500D02*
X0015075Y0073500D01*
X0066000Y0078500D02*
X0068500Y0076000D01*
X0073500Y0076000D01*
X0076000Y0078500D01*
X0076000Y0083500D01*
X0073500Y0086000D01*
X0076000Y0088500D01*
X0076000Y0093500D01*
X0073500Y0096000D01*
X0076000Y0098500D01*
X0076000Y0103500D01*
X0073500Y0106000D01*
X0076000Y0108500D01*
X0076000Y0113500D01*
X0073500Y0116000D01*
X0076000Y0118500D01*
X0076000Y0123500D01*
X0073500Y0126000D01*
X0076000Y0128500D01*
X0076000Y0133500D01*
X0073500Y0136000D01*
X0076000Y0138500D01*
X0076000Y0143500D01*
X0073500Y0146000D01*
X0068500Y0146000D01*
X0066000Y0143500D01*
X0066000Y0138500D01*
X0068500Y0136000D01*
X0066000Y0133500D01*
X0066000Y0128500D01*
X0068500Y0126000D01*
X0066000Y0123500D01*
X0066000Y0118500D01*
X0068500Y0116000D01*
X0066000Y0113500D01*
X0066000Y0108500D01*
X0068500Y0106000D01*
X0066000Y0103500D01*
X0066000Y0098500D01*
X0068500Y0096000D01*
X0066000Y0093500D01*
X0066000Y0088500D01*
X0068500Y0086000D01*
X0066000Y0083500D01*
X0066000Y0078500D01*
X0251000Y0078500D02*
X0251000Y0083500D01*
X0253500Y0086000D01*
X0251000Y0088500D01*
X0251000Y0093500D01*
X0253500Y0096000D01*
X0251000Y0098500D01*
X0251000Y0103500D01*
X0253500Y0106000D01*
X0251000Y0108500D01*
X0251000Y0113500D01*
X0253500Y0116000D01*
X0251000Y0118500D01*
X0251000Y0123500D01*
X0253500Y0126000D01*
X0251000Y0128500D01*
X0251000Y0133500D01*
X0253500Y0136000D01*
X0258500Y0136000D01*
X0261000Y0133500D01*
X0261000Y0128500D01*
X0258500Y0126000D01*
X0261000Y0123500D01*
X0261000Y0118500D01*
X0258500Y0116000D01*
X0261000Y0113500D01*
X0261000Y0108500D01*
X0258500Y0106000D01*
X0261000Y0103500D01*
X0261000Y0098500D01*
X0258500Y0096000D01*
X0261000Y0093500D01*
X0261000Y0088500D01*
X0258500Y0086000D01*
X0261000Y0083500D01*
X0261000Y0078500D01*
X0258500Y0076000D01*
X0261000Y0073500D01*
X0261000Y0068500D01*
X0258500Y0066000D01*
X0261000Y0063500D01*
X0261000Y0058500D01*
X0258500Y0056000D01*
X0253500Y0056000D01*
X0251000Y0058500D01*
X0251000Y0063500D01*
X0253500Y0066000D01*
X0251000Y0068500D01*
X0251000Y0073500D01*
X0253500Y0076000D01*
X0251000Y0078500D01*
X0276000Y0033500D02*
X0276000Y0028500D01*
X0336000Y0028500D02*
X0336000Y0033500D01*
X0368283Y0047339D02*
X0374189Y0047339D01*
X0374189Y0064661D01*
X0368283Y0064661D01*
X0368283Y0095764D01*
X0403323Y0095764D01*
X0403717Y0095764D02*
X0403717Y0016236D01*
X0368283Y0016236D01*
X0368283Y0047339D01*
X0368283Y0064661D01*
X0375075Y0073500D02*
X0375075Y0078500D01*
X0343500Y0126000D02*
X0338500Y0126000D01*
X0336000Y0128500D01*
X0333500Y0126000D01*
X0328500Y0126000D01*
X0326000Y0128500D01*
X0323500Y0126000D01*
X0318500Y0126000D01*
X0316000Y0128500D01*
X0313500Y0126000D01*
X0308500Y0126000D01*
X0306000Y0128500D01*
X0303500Y0126000D01*
X0298500Y0126000D01*
X0296000Y0128500D01*
X0296000Y0133500D01*
X0298500Y0136000D01*
X0303500Y0136000D01*
X0306000Y0133500D01*
X0308500Y0136000D01*
X0313500Y0136000D01*
X0316000Y0133500D01*
X0318500Y0136000D01*
X0323500Y0136000D01*
X0326000Y0133500D01*
X0328500Y0136000D01*
X0333500Y0136000D01*
X0336000Y0133500D01*
X0338500Y0136000D01*
X0343500Y0136000D01*
X0346000Y0133500D01*
X0346000Y0128500D01*
X0343500Y0126000D01*
D13*
X0243000Y0019500D02*
X0231000Y0019500D01*
X0156000Y0019500D02*
X0136000Y0019500D01*
X0111000Y0019500D02*
X0091000Y0019500D01*
D14*
X0113588Y0032500D02*
X0113590Y0032540D01*
X0113596Y0032580D01*
X0113606Y0032620D01*
X0113619Y0032658D01*
X0113637Y0032694D01*
X0113657Y0032729D01*
X0113682Y0032761D01*
X0113709Y0032791D01*
X0113739Y0032818D01*
X0113771Y0032843D01*
X0113806Y0032863D01*
X0113842Y0032881D01*
X0113880Y0032894D01*
X0113920Y0032904D01*
X0113960Y0032910D01*
X0114000Y0032912D01*
X0114040Y0032910D01*
X0114080Y0032904D01*
X0114120Y0032894D01*
X0114158Y0032881D01*
X0114194Y0032863D01*
X0114229Y0032843D01*
X0114261Y0032818D01*
X0114291Y0032791D01*
X0114318Y0032761D01*
X0114343Y0032729D01*
X0114363Y0032694D01*
X0114381Y0032658D01*
X0114394Y0032620D01*
X0114404Y0032580D01*
X0114410Y0032540D01*
X0114412Y0032500D01*
X0114410Y0032460D01*
X0114404Y0032420D01*
X0114394Y0032380D01*
X0114381Y0032342D01*
X0114363Y0032306D01*
X0114343Y0032271D01*
X0114318Y0032239D01*
X0114291Y0032209D01*
X0114261Y0032182D01*
X0114229Y0032157D01*
X0114194Y0032137D01*
X0114158Y0032119D01*
X0114120Y0032106D01*
X0114080Y0032096D01*
X0114040Y0032090D01*
X0114000Y0032088D01*
X0113960Y0032090D01*
X0113920Y0032096D01*
X0113880Y0032106D01*
X0113842Y0032119D01*
X0113806Y0032137D01*
X0113771Y0032157D01*
X0113739Y0032182D01*
X0113709Y0032209D01*
X0113682Y0032239D01*
X0113657Y0032271D01*
X0113637Y0032306D01*
X0113619Y0032342D01*
X0113606Y0032380D01*
X0113596Y0032420D01*
X0113590Y0032460D01*
X0113588Y0032500D01*
X0158588Y0032500D02*
X0158590Y0032540D01*
X0158596Y0032580D01*
X0158606Y0032620D01*
X0158619Y0032658D01*
X0158637Y0032694D01*
X0158657Y0032729D01*
X0158682Y0032761D01*
X0158709Y0032791D01*
X0158739Y0032818D01*
X0158771Y0032843D01*
X0158806Y0032863D01*
X0158842Y0032881D01*
X0158880Y0032894D01*
X0158920Y0032904D01*
X0158960Y0032910D01*
X0159000Y0032912D01*
X0159040Y0032910D01*
X0159080Y0032904D01*
X0159120Y0032894D01*
X0159158Y0032881D01*
X0159194Y0032863D01*
X0159229Y0032843D01*
X0159261Y0032818D01*
X0159291Y0032791D01*
X0159318Y0032761D01*
X0159343Y0032729D01*
X0159363Y0032694D01*
X0159381Y0032658D01*
X0159394Y0032620D01*
X0159404Y0032580D01*
X0159410Y0032540D01*
X0159412Y0032500D01*
X0159410Y0032460D01*
X0159404Y0032420D01*
X0159394Y0032380D01*
X0159381Y0032342D01*
X0159363Y0032306D01*
X0159343Y0032271D01*
X0159318Y0032239D01*
X0159291Y0032209D01*
X0159261Y0032182D01*
X0159229Y0032157D01*
X0159194Y0032137D01*
X0159158Y0032119D01*
X0159120Y0032106D01*
X0159080Y0032096D01*
X0159040Y0032090D01*
X0159000Y0032088D01*
X0158960Y0032090D01*
X0158920Y0032096D01*
X0158880Y0032106D01*
X0158842Y0032119D01*
X0158806Y0032137D01*
X0158771Y0032157D01*
X0158739Y0032182D01*
X0158709Y0032209D01*
X0158682Y0032239D01*
X0158657Y0032271D01*
X0158637Y0032306D01*
X0158619Y0032342D01*
X0158606Y0032380D01*
X0158596Y0032420D01*
X0158590Y0032460D01*
X0158588Y0032500D01*
X0245588Y0032500D02*
X0245590Y0032540D01*
X0245596Y0032580D01*
X0245606Y0032620D01*
X0245619Y0032658D01*
X0245637Y0032694D01*
X0245657Y0032729D01*
X0245682Y0032761D01*
X0245709Y0032791D01*
X0245739Y0032818D01*
X0245771Y0032843D01*
X0245806Y0032863D01*
X0245842Y0032881D01*
X0245880Y0032894D01*
X0245920Y0032904D01*
X0245960Y0032910D01*
X0246000Y0032912D01*
X0246040Y0032910D01*
X0246080Y0032904D01*
X0246120Y0032894D01*
X0246158Y0032881D01*
X0246194Y0032863D01*
X0246229Y0032843D01*
X0246261Y0032818D01*
X0246291Y0032791D01*
X0246318Y0032761D01*
X0246343Y0032729D01*
X0246363Y0032694D01*
X0246381Y0032658D01*
X0246394Y0032620D01*
X0246404Y0032580D01*
X0246410Y0032540D01*
X0246412Y0032500D01*
X0246410Y0032460D01*
X0246404Y0032420D01*
X0246394Y0032380D01*
X0246381Y0032342D01*
X0246363Y0032306D01*
X0246343Y0032271D01*
X0246318Y0032239D01*
X0246291Y0032209D01*
X0246261Y0032182D01*
X0246229Y0032157D01*
X0246194Y0032137D01*
X0246158Y0032119D01*
X0246120Y0032106D01*
X0246080Y0032096D01*
X0246040Y0032090D01*
X0246000Y0032088D01*
X0245960Y0032090D01*
X0245920Y0032096D01*
X0245880Y0032106D01*
X0245842Y0032119D01*
X0245806Y0032137D01*
X0245771Y0032157D01*
X0245739Y0032182D01*
X0245709Y0032209D01*
X0245682Y0032239D01*
X0245657Y0032271D01*
X0245637Y0032306D01*
X0245619Y0032342D01*
X0245606Y0032380D01*
X0245596Y0032420D01*
X0245590Y0032460D01*
X0245588Y0032500D01*
D15*
X0281000Y0056000D02*
X0281000Y0161000D01*
X0066000Y0161000D01*
X0066000Y0056000D01*
X0281000Y0056000D01*
X0286000Y0057000D02*
X0286000Y0137000D01*
X0356000Y0137000D01*
X0356000Y0057000D01*
X0286000Y0057000D01*
X0363362Y0162811D02*
X0394858Y0162811D01*
D16*
X0403717Y0109056D02*
X0403717Y0104989D01*
X0401683Y0107022D02*
X0405750Y0107022D01*
M02*
