%
M48
M72
T01C0.02000
T02C0.04000
T03C0.04016
T04C0.04400
T05C0.12008
T06C0.13000
%
T01
X132000Y51000
X143000Y42000
X180000Y26000
X173000Y25000
X197000Y27000
X211000Y26000
X186000Y36000
X195000Y51000
X242000Y24000
X211000Y6000
X336000Y111000
X336000Y116000
X361000Y116000
X361000Y111000
T02
X341000Y131000
X331000Y131000
X321000Y131000
X311000Y131000
X301000Y131000
X256000Y131000
X256000Y121000
X256000Y111000
X256000Y101000
X256000Y91000
X256000Y81000
X256000Y71000
X256000Y61000
X311000Y64000
X314000Y72000
X328000Y72000
X331000Y64000
X326000Y81000
X316000Y81000
X380500Y76000
X391500Y76000
X391500Y66000
X380500Y66000
X380500Y56000
X391500Y56000
X391500Y46000
X380500Y46000
X380500Y36000
X391500Y36000
X71000Y81000
X71000Y91000
X71000Y101000
X71000Y111000
X71000Y121000
X71000Y131000
X71000Y141000
X31500Y71000
X20500Y71000
X20500Y61000
X31500Y61000
X31500Y51000
X20500Y51000
X20500Y41000
X31500Y41000
X31500Y31000
X20500Y31000
T03
X372220Y111000
X386000Y111000
T04
X331000Y31000
X321000Y31000
X311000Y31000
X301000Y31000
X291000Y31000
X281000Y31000
T05
X379110Y142142
T06
X61000Y21000
X351000Y31000
X341000Y151000
X16000Y151000
M30
