G75*
%MOIN*%
%OFA0B0*%
%FSLAX25Y25*%
%IPPOS*%
%LPD*%
%AMOC8*
5,1,8,0,0,1.08239X$1,22.5*
%
%ADD10C,0.08200*%
%ADD11C,0.06824*%
%ADD12C,0.12808*%
%ADD13C,0.08200*%
%ADD14C,0.13800*%
D10*
X0281000Y0027300D02*
X0281000Y0034700D01*
X0291000Y0034700D02*
X0291000Y0027300D01*
X0301000Y0027300D02*
X0301000Y0034700D01*
X0311000Y0034700D02*
X0311000Y0027300D01*
X0321000Y0027300D02*
X0321000Y0034700D01*
X0331000Y0034700D02*
X0331000Y0027300D01*
D11*
X0372220Y0107988D02*
X0372220Y0114012D01*
X0386000Y0114012D02*
X0386000Y0107988D01*
D12*
X0379110Y0142142D03*
D13*
X0341000Y0131000D03*
X0331000Y0131000D03*
X0321000Y0131000D03*
X0311000Y0131000D03*
X0301000Y0131000D03*
X0256000Y0131000D03*
X0256000Y0121000D03*
X0256000Y0111000D03*
X0256000Y0101000D03*
X0256000Y0091000D03*
X0256000Y0081000D03*
X0256000Y0071000D03*
X0256000Y0061000D03*
X0311000Y0064000D03*
X0314000Y0072000D03*
X0328000Y0072000D03*
X0331000Y0064000D03*
X0326000Y0081000D03*
X0316000Y0081000D03*
X0380500Y0076000D03*
X0391500Y0076000D03*
X0391500Y0066000D03*
X0380500Y0066000D03*
X0380500Y0056000D03*
X0391500Y0056000D03*
X0391500Y0046000D03*
X0380500Y0046000D03*
X0380500Y0036000D03*
X0391500Y0036000D03*
X0071000Y0081000D03*
X0071000Y0091000D03*
X0071000Y0101000D03*
X0071000Y0111000D03*
X0071000Y0121000D03*
X0071000Y0131000D03*
X0071000Y0141000D03*
X0031500Y0071000D03*
X0020500Y0071000D03*
X0020500Y0061000D03*
X0031500Y0061000D03*
X0031500Y0051000D03*
X0020500Y0051000D03*
X0020500Y0041000D03*
X0031500Y0041000D03*
X0031500Y0031000D03*
X0020500Y0031000D03*
D14*
X0061000Y0021000D03*
X0351000Y0031000D03*
X0341000Y0151000D03*
X0016000Y0151000D03*
M02*
