G75*
%MOIN*%
%OFA0B0*%
%FSLAX25Y25*%
%IPPOS*%
%LPD*%
%AMOC8*
5,1,8,0,0,1.08239X$1,22.5*
%
%ADD10C,0.07400*%
%ADD11C,0.06024*%
%ADD12C,0.07400*%
%ADD13C,0.01000*%
%ADD14C,0.02000*%
%ADD15C,0.04000*%
D10*
X0281000Y0027300D02*
X0281000Y0034700D01*
X0291000Y0034700D02*
X0291000Y0027300D01*
X0301000Y0027300D02*
X0301000Y0034700D01*
X0311000Y0034700D02*
X0311000Y0027300D01*
X0321000Y0027300D02*
X0321000Y0034700D01*
X0331000Y0034700D02*
X0331000Y0027300D01*
D11*
X0372220Y0107988D02*
X0372220Y0114012D01*
X0386000Y0114012D02*
X0386000Y0107988D01*
D12*
X0341000Y0131000D03*
X0331000Y0131000D03*
X0321000Y0131000D03*
X0311000Y0131000D03*
X0301000Y0131000D03*
X0256000Y0131000D03*
X0256000Y0121000D03*
X0256000Y0111000D03*
X0256000Y0101000D03*
X0256000Y0091000D03*
X0256000Y0081000D03*
X0256000Y0071000D03*
X0256000Y0061000D03*
X0311000Y0064000D03*
X0314000Y0072000D03*
X0328000Y0072000D03*
X0331000Y0064000D03*
X0326000Y0081000D03*
X0316000Y0081000D03*
X0380500Y0076000D03*
X0391500Y0076000D03*
X0391500Y0066000D03*
X0380500Y0066000D03*
X0380500Y0056000D03*
X0391500Y0056000D03*
X0391500Y0046000D03*
X0380500Y0046000D03*
X0380500Y0036000D03*
X0391500Y0036000D03*
X0071000Y0081000D03*
X0071000Y0091000D03*
X0071000Y0101000D03*
X0071000Y0111000D03*
X0071000Y0121000D03*
X0071000Y0131000D03*
X0071000Y0141000D03*
X0031500Y0071000D03*
X0020500Y0071000D03*
X0020500Y0061000D03*
X0031500Y0061000D03*
X0031500Y0051000D03*
X0020500Y0051000D03*
X0020500Y0041000D03*
X0031500Y0041000D03*
X0031500Y0031000D03*
X0020500Y0031000D03*
D13*
X0026000Y0036000D02*
X0021000Y0041000D01*
X0020500Y0041000D01*
X0026000Y0036000D02*
X0034000Y0036000D01*
X0058000Y0012000D01*
X0347000Y0012000D01*
X0362000Y0027000D01*
X0362000Y0028000D01*
X0380000Y0046000D01*
X0380500Y0046000D01*
X0391500Y0046000D02*
X0392000Y0046000D01*
X0392000Y0049000D01*
X0397000Y0054000D01*
X0397000Y0068000D01*
X0394000Y0071000D01*
X0389000Y0071000D01*
X0386000Y0074000D01*
X0386000Y0078000D01*
X0336000Y0128000D01*
X0336000Y0134000D01*
X0332000Y0138000D01*
X0078000Y0138000D01*
X0071000Y0131000D01*
X0069000Y0071000D02*
X0134000Y0136000D01*
X0259000Y0136000D01*
X0264000Y0131000D01*
X0301000Y0131000D01*
X0321000Y0116000D02*
X0336000Y0091000D01*
X0336000Y0056000D01*
X0330833Y0054278D01*
X0323200Y0061911D01*
X0323200Y0086911D01*
X0321911Y0088200D01*
X0316600Y0088200D01*
X0301000Y0096000D01*
X0278200Y0096000D01*
X0278200Y0096911D01*
X0276911Y0098200D01*
X0246000Y0098200D01*
X0246000Y0116000D01*
X0253960Y0116000D01*
X0254926Y0115600D01*
X0257074Y0115600D01*
X0258040Y0116000D01*
X0321000Y0116000D01*
X0321094Y0115844D02*
X0257662Y0115844D01*
X0254338Y0115844D02*
X0246000Y0115844D01*
X0246000Y0114845D02*
X0321693Y0114845D01*
X0322292Y0113847D02*
X0246000Y0113847D01*
X0246000Y0112848D02*
X0322891Y0112848D01*
X0323490Y0111850D02*
X0246000Y0111850D01*
X0246000Y0110851D02*
X0324089Y0110851D01*
X0324688Y0109853D02*
X0246000Y0109853D01*
X0246000Y0108854D02*
X0325288Y0108854D01*
X0325887Y0107856D02*
X0246000Y0107856D01*
X0246000Y0106857D02*
X0326486Y0106857D01*
X0327085Y0105859D02*
X0246000Y0105859D01*
X0246000Y0104860D02*
X0327684Y0104860D01*
X0328283Y0103862D02*
X0246000Y0103862D01*
X0246000Y0102863D02*
X0328882Y0102863D01*
X0329481Y0101865D02*
X0246000Y0101865D01*
X0246000Y0100866D02*
X0330080Y0100866D01*
X0330679Y0099868D02*
X0246000Y0099868D01*
X0246000Y0098869D02*
X0331279Y0098869D01*
X0331878Y0097870D02*
X0277241Y0097870D01*
X0278200Y0096872D02*
X0332477Y0096872D01*
X0333076Y0095873D02*
X0301253Y0095873D01*
X0303250Y0094875D02*
X0333675Y0094875D01*
X0334274Y0093876D02*
X0305247Y0093876D01*
X0307244Y0092878D02*
X0334873Y0092878D01*
X0335472Y0091879D02*
X0309241Y0091879D01*
X0311238Y0090881D02*
X0336000Y0090881D01*
X0336000Y0089882D02*
X0313235Y0089882D01*
X0315232Y0088884D02*
X0336000Y0088884D01*
X0336000Y0087885D02*
X0322226Y0087885D01*
X0323200Y0086887D02*
X0336000Y0086887D01*
X0336000Y0085888D02*
X0323200Y0085888D01*
X0323200Y0084890D02*
X0336000Y0084890D01*
X0336000Y0083891D02*
X0323200Y0083891D01*
X0323200Y0082893D02*
X0336000Y0082893D01*
X0336000Y0081894D02*
X0323200Y0081894D01*
X0323200Y0080896D02*
X0336000Y0080896D01*
X0336000Y0079897D02*
X0323200Y0079897D01*
X0323200Y0078899D02*
X0336000Y0078899D01*
X0336000Y0077900D02*
X0323200Y0077900D01*
X0323200Y0076902D02*
X0336000Y0076902D01*
X0336000Y0075903D02*
X0323200Y0075903D01*
X0323200Y0074905D02*
X0336000Y0074905D01*
X0336000Y0073906D02*
X0323200Y0073906D01*
X0323200Y0072908D02*
X0336000Y0072908D01*
X0336000Y0071909D02*
X0323200Y0071909D01*
X0323200Y0070911D02*
X0336000Y0070911D01*
X0336000Y0069912D02*
X0323200Y0069912D01*
X0323200Y0068914D02*
X0336000Y0068914D01*
X0336000Y0067915D02*
X0323200Y0067915D01*
X0323200Y0066917D02*
X0336000Y0066917D01*
X0336000Y0065918D02*
X0323200Y0065918D01*
X0323200Y0064920D02*
X0336000Y0064920D01*
X0336000Y0063921D02*
X0323200Y0063921D01*
X0323200Y0062923D02*
X0336000Y0062923D01*
X0336000Y0061924D02*
X0323200Y0061924D01*
X0324186Y0060926D02*
X0336000Y0060926D01*
X0336000Y0059927D02*
X0325184Y0059927D01*
X0326183Y0058929D02*
X0336000Y0058929D01*
X0336000Y0057930D02*
X0327181Y0057930D01*
X0328180Y0056932D02*
X0336000Y0056932D01*
X0335799Y0055933D02*
X0329178Y0055933D01*
X0330177Y0054934D02*
X0332804Y0054934D01*
X0330061Y0051939D02*
X0318172Y0051939D01*
X0317174Y0052937D02*
X0329063Y0052937D01*
X0328064Y0053936D02*
X0316175Y0053936D01*
X0315177Y0054934D02*
X0327066Y0054934D01*
X0326067Y0055933D02*
X0314178Y0055933D01*
X0313180Y0056932D02*
X0325068Y0056932D01*
X0324070Y0057930D02*
X0312181Y0057930D01*
X0311183Y0058929D02*
X0323071Y0058929D01*
X0322073Y0059927D02*
X0310184Y0059927D01*
X0309186Y0060926D02*
X0321074Y0060926D01*
X0321000Y0061000D02*
X0331000Y0051000D01*
X0336000Y0041000D01*
X0336000Y0034111D01*
X0335089Y0033200D01*
X0333800Y0031911D01*
X0333800Y0025911D01*
X0328889Y0021000D01*
X0328200Y0021000D01*
X0328200Y0041911D01*
X0306000Y0064111D01*
X0306000Y0086000D01*
X0321000Y0086000D01*
X0321000Y0083040D01*
X0320600Y0082074D01*
X0320600Y0079926D01*
X0321000Y0078960D01*
X0321000Y0061000D01*
X0321000Y0061924D02*
X0308187Y0061924D01*
X0307189Y0062923D02*
X0321000Y0062923D01*
X0321000Y0063921D02*
X0306190Y0063921D01*
X0306000Y0064920D02*
X0321000Y0064920D01*
X0321000Y0065918D02*
X0306000Y0065918D01*
X0306000Y0066917D02*
X0321000Y0066917D01*
X0321000Y0067915D02*
X0306000Y0067915D01*
X0306000Y0068914D02*
X0321000Y0068914D01*
X0321000Y0069912D02*
X0306000Y0069912D01*
X0306000Y0070911D02*
X0321000Y0070911D01*
X0321000Y0071909D02*
X0306000Y0071909D01*
X0306000Y0072908D02*
X0321000Y0072908D01*
X0321000Y0073906D02*
X0306000Y0073906D01*
X0306000Y0074905D02*
X0321000Y0074905D01*
X0321000Y0075903D02*
X0306000Y0075903D01*
X0306000Y0076902D02*
X0321000Y0076902D01*
X0321000Y0077900D02*
X0306000Y0077900D01*
X0306000Y0078899D02*
X0321000Y0078899D01*
X0320612Y0079897D02*
X0306000Y0079897D01*
X0306000Y0080896D02*
X0320600Y0080896D01*
X0320600Y0081894D02*
X0306000Y0081894D01*
X0306000Y0082893D02*
X0320939Y0082893D01*
X0321000Y0083891D02*
X0306000Y0083891D01*
X0306000Y0084890D02*
X0321000Y0084890D01*
X0321000Y0085888D02*
X0306000Y0085888D01*
X0290098Y0076902D02*
X0246000Y0076902D01*
X0246000Y0076000D02*
X0246000Y0096000D01*
X0253960Y0096000D01*
X0254926Y0095600D01*
X0257074Y0095600D01*
X0258040Y0096000D01*
X0276000Y0096000D01*
X0276000Y0091000D01*
X0326000Y0041000D01*
X0326000Y0036740D01*
X0325600Y0035774D01*
X0325600Y0026226D01*
X0326000Y0025260D01*
X0326000Y0021000D01*
X0316000Y0021000D01*
X0316000Y0025260D01*
X0316400Y0026226D01*
X0316400Y0035774D01*
X0315578Y0037759D01*
X0314059Y0039278D01*
X0312074Y0040100D01*
X0311900Y0040100D01*
X0276000Y0076000D01*
X0258040Y0076000D01*
X0257074Y0076400D01*
X0254926Y0076400D01*
X0253960Y0076000D01*
X0246000Y0076000D01*
X0246000Y0077900D02*
X0289100Y0077900D01*
X0288101Y0078899D02*
X0246000Y0078899D01*
X0246000Y0079897D02*
X0287103Y0079897D01*
X0286104Y0080896D02*
X0246000Y0080896D01*
X0246000Y0081894D02*
X0285106Y0081894D01*
X0284107Y0082893D02*
X0246000Y0082893D01*
X0246000Y0083891D02*
X0283109Y0083891D01*
X0282110Y0084890D02*
X0246000Y0084890D01*
X0246000Y0085888D02*
X0281112Y0085888D01*
X0280113Y0086887D02*
X0246000Y0086887D01*
X0246000Y0087885D02*
X0279115Y0087885D01*
X0278116Y0088884D02*
X0246000Y0088884D01*
X0246000Y0089882D02*
X0277118Y0089882D01*
X0276119Y0090881D02*
X0246000Y0090881D01*
X0246000Y0091879D02*
X0276000Y0091879D01*
X0276000Y0092878D02*
X0246000Y0092878D01*
X0246000Y0093876D02*
X0276000Y0093876D01*
X0276000Y0094875D02*
X0246000Y0094875D01*
X0246000Y0095873D02*
X0254266Y0095873D01*
X0257734Y0095873D02*
X0276000Y0095873D01*
X0276097Y0075903D02*
X0291097Y0075903D01*
X0292095Y0074905D02*
X0277095Y0074905D01*
X0278094Y0073906D02*
X0293094Y0073906D01*
X0294092Y0072908D02*
X0279092Y0072908D01*
X0280091Y0071909D02*
X0295091Y0071909D01*
X0296089Y0070911D02*
X0281089Y0070911D01*
X0282088Y0069912D02*
X0297088Y0069912D01*
X0298086Y0068914D02*
X0283086Y0068914D01*
X0284085Y0067915D02*
X0299085Y0067915D01*
X0300083Y0066917D02*
X0285083Y0066917D01*
X0286082Y0065918D02*
X0301082Y0065918D01*
X0302080Y0064920D02*
X0287080Y0064920D01*
X0288079Y0063921D02*
X0303079Y0063921D01*
X0304077Y0062923D02*
X0289077Y0062923D01*
X0290076Y0061924D02*
X0305076Y0061924D01*
X0306074Y0060926D02*
X0291074Y0060926D01*
X0292073Y0059927D02*
X0307073Y0059927D01*
X0308071Y0058929D02*
X0293071Y0058929D01*
X0294070Y0057930D02*
X0309070Y0057930D01*
X0310068Y0056932D02*
X0295068Y0056932D01*
X0296067Y0055933D02*
X0311067Y0055933D01*
X0312066Y0054934D02*
X0297066Y0054934D01*
X0298064Y0053936D02*
X0313064Y0053936D01*
X0314063Y0052937D02*
X0299063Y0052937D01*
X0300061Y0051939D02*
X0315061Y0051939D01*
X0316060Y0050940D02*
X0301060Y0050940D01*
X0302058Y0049942D02*
X0317058Y0049942D01*
X0318057Y0048943D02*
X0303057Y0048943D01*
X0304055Y0047945D02*
X0319055Y0047945D01*
X0320054Y0046946D02*
X0305054Y0046946D01*
X0306052Y0045948D02*
X0321052Y0045948D01*
X0322051Y0044949D02*
X0307051Y0044949D01*
X0308049Y0043951D02*
X0323049Y0043951D01*
X0324048Y0042952D02*
X0309048Y0042952D01*
X0310046Y0041954D02*
X0325046Y0041954D01*
X0326000Y0040955D02*
X0311045Y0040955D01*
X0312420Y0039957D02*
X0326000Y0039957D01*
X0326000Y0038958D02*
X0314378Y0038958D01*
X0315377Y0037960D02*
X0326000Y0037960D01*
X0326000Y0036961D02*
X0315908Y0036961D01*
X0316322Y0035963D02*
X0325678Y0035963D01*
X0325600Y0034964D02*
X0316400Y0034964D01*
X0316400Y0033966D02*
X0325600Y0033966D01*
X0325600Y0032967D02*
X0316400Y0032967D01*
X0316400Y0031969D02*
X0325600Y0031969D01*
X0325600Y0030970D02*
X0316400Y0030970D01*
X0316400Y0029972D02*
X0325600Y0029972D01*
X0325600Y0028973D02*
X0316400Y0028973D01*
X0316400Y0027975D02*
X0325600Y0027975D01*
X0325600Y0026976D02*
X0316400Y0026976D01*
X0316297Y0025978D02*
X0325703Y0025978D01*
X0326000Y0024979D02*
X0316000Y0024979D01*
X0316000Y0023981D02*
X0326000Y0023981D01*
X0326000Y0022982D02*
X0316000Y0022982D01*
X0316000Y0021984D02*
X0326000Y0021984D01*
X0328200Y0021984D02*
X0329872Y0021984D01*
X0330871Y0022982D02*
X0328200Y0022982D01*
X0328200Y0023981D02*
X0331869Y0023981D01*
X0332868Y0024979D02*
X0328200Y0024979D01*
X0328200Y0025978D02*
X0333800Y0025978D01*
X0333800Y0026976D02*
X0328200Y0026976D01*
X0328200Y0027975D02*
X0333800Y0027975D01*
X0333800Y0028973D02*
X0328200Y0028973D01*
X0328200Y0029972D02*
X0333800Y0029972D01*
X0333800Y0030970D02*
X0328200Y0030970D01*
X0328200Y0031969D02*
X0333857Y0031969D01*
X0334856Y0032967D02*
X0328200Y0032967D01*
X0328200Y0033966D02*
X0335855Y0033966D01*
X0336000Y0034964D02*
X0328200Y0034964D01*
X0328200Y0035963D02*
X0336000Y0035963D01*
X0336000Y0036961D02*
X0328200Y0036961D01*
X0328200Y0037960D02*
X0336000Y0037960D01*
X0336000Y0038958D02*
X0328200Y0038958D01*
X0328200Y0039957D02*
X0336000Y0039957D01*
X0336000Y0040955D02*
X0328200Y0040955D01*
X0328157Y0041954D02*
X0335523Y0041954D01*
X0335024Y0042952D02*
X0327159Y0042952D01*
X0326160Y0043951D02*
X0334525Y0043951D01*
X0334025Y0044949D02*
X0325162Y0044949D01*
X0324163Y0045948D02*
X0333526Y0045948D01*
X0333027Y0046946D02*
X0323165Y0046946D01*
X0322166Y0047945D02*
X0332528Y0047945D01*
X0332028Y0048943D02*
X0321168Y0048943D01*
X0320169Y0049942D02*
X0331529Y0049942D01*
X0331030Y0050940D02*
X0319171Y0050940D01*
X0360000Y0033000D02*
X0360000Y0028000D01*
X0346000Y0014000D01*
X0171000Y0014000D01*
X0143000Y0042000D01*
X0152000Y0046000D02*
X0173000Y0025000D01*
X0182000Y0016000D01*
X0335000Y0016000D01*
X0339000Y0020000D01*
X0339000Y0031000D01*
X0374000Y0066000D01*
X0380500Y0066000D01*
X0383000Y0071000D02*
X0388000Y0066000D01*
X0391500Y0066000D01*
X0383000Y0071000D02*
X0376000Y0071000D01*
X0336000Y0031000D01*
X0336000Y0025000D01*
X0329000Y0018000D01*
X0188000Y0018000D01*
X0180000Y0026000D01*
X0188000Y0036000D02*
X0197000Y0027000D01*
X0188000Y0036000D02*
X0186000Y0036000D01*
X0195000Y0051000D02*
X0132000Y0051000D01*
X0031500Y0051000D01*
X0029000Y0046000D02*
X0024000Y0051000D01*
X0020500Y0051000D01*
X0029000Y0046000D02*
X0152000Y0046000D01*
X0069000Y0071000D02*
X0031500Y0071000D01*
X0242000Y0024000D02*
X0277000Y0024000D01*
X0279000Y0022000D01*
X0293000Y0022000D01*
X0301000Y0030000D01*
X0301000Y0031000D01*
X0360000Y0033000D02*
X0380000Y0053000D01*
X0380000Y0056000D01*
X0380500Y0056000D01*
D14*
X0006000Y0006000D02*
X0006000Y0150701D01*
X0006554Y0147562D01*
X0008299Y0144538D01*
X0010974Y0142294D01*
X0014254Y0141100D01*
X0015483Y0141100D01*
X0017746Y0141100D01*
X0021026Y0142294D01*
X0021026Y0142294D01*
X0023701Y0144538D01*
X0023701Y0144538D01*
X0023701Y0144538D01*
X0025446Y0147562D01*
X0026053Y0151000D01*
X0025446Y0154438D01*
X0025446Y0154438D01*
X0023701Y0157462D01*
X0021026Y0159706D01*
X0017746Y0160900D01*
X0014254Y0160900D01*
X0010974Y0159706D01*
X0010974Y0159706D01*
X0008299Y0157462D01*
X0006554Y0154438D01*
X0006000Y0151299D01*
X0006000Y0156000D01*
X0011000Y0161000D01*
X0406000Y0161000D01*
X0406000Y0006000D01*
X0006000Y0006000D01*
X0006000Y0007003D02*
X0406000Y0007003D01*
X0406000Y0009001D02*
X0006000Y0009001D01*
X0006000Y0011000D02*
X0055182Y0011000D01*
X0056471Y0009711D02*
X0057463Y0009300D01*
X0058537Y0009300D01*
X0347537Y0009300D01*
X0348529Y0009711D01*
X0349289Y0010471D01*
X0364289Y0025471D01*
X0364700Y0026463D01*
X0364700Y0026882D01*
X0374600Y0036782D01*
X0374600Y0034826D01*
X0375498Y0032658D01*
X0377158Y0030998D01*
X0379326Y0030100D01*
X0381674Y0030100D01*
X0383842Y0030998D01*
X0385502Y0032658D01*
X0386400Y0034826D01*
X0386400Y0037174D01*
X0385502Y0039342D01*
X0383844Y0041000D01*
X0385502Y0042658D01*
X0386000Y0043861D01*
X0386498Y0042658D01*
X0388158Y0040998D01*
X0390326Y0040100D01*
X0392674Y0040100D01*
X0394842Y0040998D01*
X0396502Y0042658D01*
X0397400Y0044826D01*
X0397400Y0047174D01*
X0396502Y0049342D01*
X0396331Y0049513D01*
X0398529Y0051711D01*
X0399289Y0052471D01*
X0399700Y0053463D01*
X0399700Y0068537D01*
X0399289Y0069529D01*
X0396331Y0072487D01*
X0396502Y0072658D01*
X0397400Y0074826D01*
X0397400Y0077174D01*
X0396502Y0079342D01*
X0394842Y0081002D01*
X0392674Y0081900D01*
X0390326Y0081900D01*
X0388158Y0081002D01*
X0387487Y0080331D01*
X0342559Y0125260D01*
X0344342Y0125998D01*
X0346002Y0127658D01*
X0346900Y0129826D01*
X0346900Y0132174D01*
X0346002Y0134342D01*
X0344342Y0136002D01*
X0342174Y0136900D01*
X0339826Y0136900D01*
X0337770Y0136048D01*
X0334289Y0139529D01*
X0333529Y0140289D01*
X0332537Y0140700D01*
X0077463Y0140700D01*
X0076900Y0140467D01*
X0076900Y0142174D01*
X0076002Y0144342D01*
X0074342Y0146002D01*
X0072174Y0146900D01*
X0069826Y0146900D01*
X0067658Y0146002D01*
X0065998Y0144342D01*
X0065100Y0142174D01*
X0065100Y0139826D01*
X0065998Y0137658D01*
X0067656Y0136000D01*
X0065998Y0134342D01*
X0065100Y0132174D01*
X0065100Y0129826D01*
X0065998Y0127658D01*
X0067656Y0126000D01*
X0065998Y0124342D01*
X0065100Y0122174D01*
X0065100Y0119826D01*
X0065998Y0117658D01*
X0067656Y0116000D01*
X0065998Y0114342D01*
X0065100Y0112174D01*
X0065100Y0109826D01*
X0065998Y0107658D01*
X0067656Y0106000D01*
X0065998Y0104342D01*
X0065100Y0102174D01*
X0065100Y0099826D01*
X0065998Y0097658D01*
X0067656Y0096000D01*
X0065998Y0094342D01*
X0065100Y0092174D01*
X0065100Y0089826D01*
X0065998Y0087658D01*
X0067658Y0085998D01*
X0069826Y0085100D01*
X0072174Y0085100D01*
X0074342Y0085998D01*
X0076002Y0087658D01*
X0076900Y0089826D01*
X0076900Y0092174D01*
X0076002Y0094342D01*
X0074344Y0096000D01*
X0076002Y0097658D01*
X0076900Y0099826D01*
X0076900Y0102174D01*
X0076002Y0104342D01*
X0074344Y0106000D01*
X0076002Y0107658D01*
X0076900Y0109826D01*
X0076900Y0112174D01*
X0076002Y0114342D01*
X0074344Y0116000D01*
X0076002Y0117658D01*
X0076900Y0119826D01*
X0076900Y0122174D01*
X0076002Y0124342D01*
X0074344Y0126000D01*
X0076002Y0127658D01*
X0076900Y0129826D01*
X0076900Y0132174D01*
X0076634Y0132816D01*
X0079118Y0135300D01*
X0129482Y0135300D01*
X0067882Y0073700D01*
X0036768Y0073700D01*
X0036502Y0074342D01*
X0034842Y0076002D01*
X0032674Y0076900D01*
X0030326Y0076900D01*
X0028158Y0076002D01*
X0026498Y0074342D01*
X0026000Y0073139D01*
X0025502Y0074342D01*
X0023842Y0076002D01*
X0021674Y0076900D01*
X0019326Y0076900D01*
X0017158Y0076002D01*
X0015498Y0074342D01*
X0014600Y0072174D01*
X0014600Y0069826D01*
X0015498Y0067658D01*
X0017156Y0066000D01*
X0015498Y0064342D01*
X0014600Y0062174D01*
X0014600Y0059826D01*
X0015498Y0057658D01*
X0017156Y0056000D01*
X0015498Y0054342D01*
X0014600Y0052174D01*
X0014600Y0049826D01*
X0015498Y0047658D01*
X0017156Y0046000D01*
X0015498Y0044342D01*
X0014600Y0042174D01*
X0014600Y0039826D01*
X0015498Y0037658D01*
X0017156Y0036000D01*
X0015498Y0034342D01*
X0014600Y0032174D01*
X0014600Y0029826D01*
X0015498Y0027658D01*
X0017158Y0025998D01*
X0019326Y0025100D01*
X0021674Y0025100D01*
X0023842Y0025998D01*
X0025502Y0027658D01*
X0026400Y0029826D01*
X0026400Y0032174D01*
X0025933Y0033300D01*
X0032882Y0033300D01*
X0056471Y0009711D01*
X0053183Y0012999D02*
X0006000Y0012999D01*
X0006000Y0014997D02*
X0051185Y0014997D01*
X0049186Y0016996D02*
X0006000Y0016996D01*
X0006000Y0018994D02*
X0047188Y0018994D01*
X0045189Y0020993D02*
X0006000Y0020993D01*
X0006000Y0022991D02*
X0043191Y0022991D01*
X0041192Y0024990D02*
X0006000Y0024990D01*
X0006000Y0026988D02*
X0016168Y0026988D01*
X0014948Y0028987D02*
X0006000Y0028987D01*
X0006000Y0030985D02*
X0014600Y0030985D01*
X0014936Y0032984D02*
X0006000Y0032984D01*
X0006000Y0034982D02*
X0016138Y0034982D01*
X0016175Y0036981D02*
X0006000Y0036981D01*
X0006000Y0038979D02*
X0014951Y0038979D01*
X0014600Y0040978D02*
X0006000Y0040978D01*
X0006000Y0042976D02*
X0014932Y0042976D01*
X0016131Y0044975D02*
X0006000Y0044975D01*
X0006000Y0046973D02*
X0016183Y0046973D01*
X0014954Y0048972D02*
X0006000Y0048972D01*
X0006000Y0050970D02*
X0014600Y0050970D01*
X0014929Y0052969D02*
X0006000Y0052969D01*
X0006000Y0054967D02*
X0016123Y0054967D01*
X0016190Y0056966D02*
X0006000Y0056966D01*
X0006000Y0058964D02*
X0014957Y0058964D01*
X0014600Y0060963D02*
X0006000Y0060963D01*
X0006000Y0062961D02*
X0014926Y0062961D01*
X0016116Y0064960D02*
X0006000Y0064960D01*
X0006000Y0066958D02*
X0016198Y0066958D01*
X0014960Y0068957D02*
X0006000Y0068957D01*
X0006000Y0070955D02*
X0014600Y0070955D01*
X0014923Y0072954D02*
X0006000Y0072954D01*
X0006000Y0074952D02*
X0016109Y0074952D01*
X0006000Y0076951D02*
X0071133Y0076951D01*
X0073131Y0078949D02*
X0006000Y0078949D01*
X0006000Y0080948D02*
X0075130Y0080948D01*
X0077128Y0082946D02*
X0006000Y0082946D01*
X0006000Y0084945D02*
X0079127Y0084945D01*
X0084765Y0082946D02*
X0243300Y0082946D01*
X0243300Y0080948D02*
X0082766Y0080948D01*
X0080768Y0078949D02*
X0243300Y0078949D01*
X0243300Y0076951D02*
X0078769Y0076951D01*
X0076771Y0074952D02*
X0243511Y0074952D01*
X0243711Y0074471D02*
X0244471Y0073711D01*
X0245463Y0073300D01*
X0250567Y0073300D01*
X0250100Y0072174D01*
X0250100Y0069826D01*
X0250998Y0067658D01*
X0252656Y0066000D01*
X0250998Y0064342D01*
X0250100Y0062174D01*
X0250100Y0059826D01*
X0250998Y0057658D01*
X0252658Y0055998D01*
X0254826Y0055100D01*
X0257174Y0055100D01*
X0259342Y0055998D01*
X0261002Y0057658D01*
X0261900Y0059826D01*
X0261900Y0062174D01*
X0261002Y0064342D01*
X0259344Y0066000D01*
X0261002Y0067658D01*
X0261900Y0069826D01*
X0261900Y0072174D01*
X0261433Y0073300D01*
X0274882Y0073300D01*
X0308239Y0039943D01*
X0307658Y0039702D01*
X0306000Y0038044D01*
X0304342Y0039702D01*
X0302174Y0040600D01*
X0299826Y0040600D01*
X0297658Y0039702D01*
X0296000Y0038044D01*
X0294342Y0039702D01*
X0292174Y0040600D01*
X0289826Y0040600D01*
X0287658Y0039702D01*
X0286000Y0038044D01*
X0284342Y0039702D01*
X0282174Y0040600D01*
X0279826Y0040600D01*
X0277658Y0039702D01*
X0275998Y0038042D01*
X0275100Y0035874D01*
X0275100Y0026700D01*
X0245240Y0026700D01*
X0244379Y0027561D01*
X0242835Y0028200D01*
X0241165Y0028200D01*
X0239621Y0027561D01*
X0238439Y0026379D01*
X0237800Y0024835D01*
X0237800Y0023165D01*
X0238439Y0021621D01*
X0239360Y0020700D01*
X0189118Y0020700D01*
X0184200Y0025618D01*
X0184200Y0026835D01*
X0183561Y0028379D01*
X0182379Y0029561D01*
X0180835Y0030200D01*
X0179165Y0030200D01*
X0177621Y0029561D01*
X0176439Y0028379D01*
X0176182Y0027758D01*
X0175379Y0028561D01*
X0173835Y0029200D01*
X0172618Y0029200D01*
X0153529Y0048289D01*
X0153503Y0048300D01*
X0191760Y0048300D01*
X0192621Y0047439D01*
X0194165Y0046800D01*
X0195835Y0046800D01*
X0197379Y0047439D01*
X0198561Y0048621D01*
X0199200Y0050165D01*
X0199200Y0051835D01*
X0198561Y0053379D01*
X0197379Y0054561D01*
X0195835Y0055200D01*
X0194165Y0055200D01*
X0192621Y0054561D01*
X0191760Y0053700D01*
X0135240Y0053700D01*
X0134379Y0054561D01*
X0132835Y0055200D01*
X0131165Y0055200D01*
X0129621Y0054561D01*
X0128760Y0053700D01*
X0036768Y0053700D01*
X0036502Y0054342D01*
X0034844Y0056000D01*
X0036502Y0057658D01*
X0037400Y0059826D01*
X0037400Y0062174D01*
X0036502Y0064342D01*
X0034844Y0066000D01*
X0036502Y0067658D01*
X0036768Y0068300D01*
X0069537Y0068300D01*
X0070529Y0068711D01*
X0071289Y0069471D01*
X0135118Y0133300D01*
X0257882Y0133300D01*
X0262471Y0128711D01*
X0263463Y0128300D01*
X0295732Y0128300D01*
X0295998Y0127658D01*
X0297658Y0125998D01*
X0299826Y0125100D01*
X0302174Y0125100D01*
X0304342Y0125998D01*
X0306000Y0127656D01*
X0307658Y0125998D01*
X0309826Y0125100D01*
X0312174Y0125100D01*
X0314342Y0125998D01*
X0316000Y0127656D01*
X0317658Y0125998D01*
X0319826Y0125100D01*
X0322174Y0125100D01*
X0324342Y0125998D01*
X0326000Y0127656D01*
X0327658Y0125998D01*
X0329826Y0125100D01*
X0332174Y0125100D01*
X0334230Y0125952D01*
X0334471Y0125711D01*
X0378588Y0081594D01*
X0377158Y0081002D01*
X0375498Y0079342D01*
X0374600Y0077174D01*
X0374600Y0074826D01*
X0375125Y0073560D01*
X0374471Y0073289D01*
X0338700Y0037518D01*
X0338700Y0040562D01*
X0338731Y0040656D01*
X0338700Y0041096D01*
X0338700Y0041537D01*
X0338662Y0041628D01*
X0338655Y0041727D01*
X0338458Y0042122D01*
X0338289Y0042529D01*
X0338219Y0042599D01*
X0333458Y0052122D01*
X0333391Y0052284D01*
X0336438Y0053300D01*
X0336537Y0053300D01*
X0336945Y0053469D01*
X0337363Y0053608D01*
X0337438Y0053673D01*
X0337529Y0053711D01*
X0337841Y0054023D01*
X0338175Y0054312D01*
X0338219Y0054401D01*
X0338289Y0054471D01*
X0338458Y0054878D01*
X0338655Y0055273D01*
X0338662Y0055372D01*
X0338700Y0055463D01*
X0338700Y0055904D01*
X0338731Y0056344D01*
X0338700Y0056438D01*
X0338700Y0090668D01*
X0338750Y0090866D01*
X0338700Y0091200D01*
X0338700Y0091537D01*
X0338622Y0091726D01*
X0338592Y0091929D01*
X0338418Y0092218D01*
X0338289Y0092529D01*
X0338144Y0092674D01*
X0323418Y0117218D01*
X0323289Y0117529D01*
X0323144Y0117674D01*
X0323039Y0117850D01*
X0322768Y0118050D01*
X0322529Y0118289D01*
X0322340Y0118367D01*
X0322176Y0118489D01*
X0321849Y0118571D01*
X0321537Y0118700D01*
X0321332Y0118700D01*
X0321134Y0118750D01*
X0320800Y0118700D01*
X0245463Y0118700D01*
X0244471Y0118289D01*
X0243711Y0117529D01*
X0243300Y0116537D01*
X0243300Y0075463D01*
X0243711Y0074471D01*
X0250423Y0072954D02*
X0074772Y0072954D01*
X0072774Y0070955D02*
X0250100Y0070955D01*
X0250460Y0068957D02*
X0070775Y0068957D01*
X0069134Y0074952D02*
X0035891Y0074952D01*
X0027109Y0074952D02*
X0024891Y0074952D01*
X0026000Y0068861D02*
X0026498Y0067658D01*
X0028156Y0066000D01*
X0026498Y0064342D01*
X0026000Y0063139D01*
X0025502Y0064342D01*
X0023844Y0066000D01*
X0025502Y0067658D01*
X0026000Y0068861D01*
X0024802Y0066958D02*
X0027198Y0066958D01*
X0027116Y0064960D02*
X0024884Y0064960D01*
X0035884Y0064960D02*
X0251616Y0064960D01*
X0250426Y0062961D02*
X0037074Y0062961D01*
X0037400Y0060963D02*
X0250100Y0060963D01*
X0250457Y0058964D02*
X0037043Y0058964D01*
X0035810Y0056966D02*
X0251690Y0056966D01*
X0260310Y0056966D02*
X0291216Y0056966D01*
X0289217Y0058964D02*
X0261543Y0058964D01*
X0261900Y0060963D02*
X0287219Y0060963D01*
X0285220Y0062961D02*
X0261574Y0062961D01*
X0260384Y0064960D02*
X0283222Y0064960D01*
X0281223Y0066958D02*
X0260302Y0066958D01*
X0261540Y0068957D02*
X0279225Y0068957D01*
X0277226Y0070955D02*
X0261900Y0070955D01*
X0261577Y0072954D02*
X0275228Y0072954D01*
X0291869Y0078949D02*
X0303300Y0078949D01*
X0303300Y0076951D02*
X0293867Y0076951D01*
X0295866Y0074952D02*
X0303300Y0074952D01*
X0303300Y0072954D02*
X0297865Y0072954D01*
X0299863Y0070955D02*
X0303300Y0070955D01*
X0303300Y0068957D02*
X0301862Y0068957D01*
X0303300Y0067518D02*
X0278700Y0092118D01*
X0278700Y0093300D01*
X0300363Y0093300D01*
X0309563Y0088700D01*
X0305463Y0088700D01*
X0304471Y0088289D01*
X0303711Y0087529D01*
X0303300Y0086537D01*
X0303300Y0067518D01*
X0303300Y0080948D02*
X0289870Y0080948D01*
X0287872Y0082946D02*
X0303300Y0082946D01*
X0303300Y0084945D02*
X0285873Y0084945D01*
X0283875Y0086943D02*
X0303468Y0086943D01*
X0305082Y0090940D02*
X0279878Y0090940D01*
X0278700Y0092939D02*
X0301085Y0092939D01*
X0309079Y0088942D02*
X0281876Y0088942D01*
X0243300Y0088942D02*
X0090760Y0088942D01*
X0088762Y0086943D02*
X0243300Y0086943D01*
X0243300Y0084945D02*
X0086763Y0084945D01*
X0081125Y0086943D02*
X0075287Y0086943D01*
X0076534Y0088942D02*
X0083124Y0088942D01*
X0085122Y0090940D02*
X0076900Y0090940D01*
X0076583Y0092939D02*
X0087121Y0092939D01*
X0089119Y0094937D02*
X0075406Y0094937D01*
X0075280Y0096936D02*
X0091118Y0096936D01*
X0093116Y0098934D02*
X0076531Y0098934D01*
X0076900Y0100933D02*
X0095115Y0100933D01*
X0097113Y0102932D02*
X0076586Y0102932D01*
X0075414Y0104930D02*
X0099112Y0104930D01*
X0104750Y0102932D02*
X0243300Y0102932D01*
X0243300Y0104930D02*
X0106748Y0104930D01*
X0108747Y0106929D02*
X0243300Y0106929D01*
X0243300Y0108927D02*
X0110745Y0108927D01*
X0112744Y0110926D02*
X0243300Y0110926D01*
X0243300Y0112924D02*
X0114742Y0112924D01*
X0116741Y0114923D02*
X0243300Y0114923D01*
X0243459Y0116921D02*
X0118739Y0116921D01*
X0120738Y0118920D02*
X0341262Y0118920D01*
X0339263Y0120918D02*
X0122736Y0120918D01*
X0124735Y0122917D02*
X0337265Y0122917D01*
X0335266Y0124915D02*
X0126734Y0124915D01*
X0128732Y0126914D02*
X0296742Y0126914D01*
X0305258Y0126914D02*
X0306742Y0126914D01*
X0315258Y0126914D02*
X0316742Y0126914D01*
X0325258Y0126914D02*
X0326742Y0126914D01*
X0311000Y0131000D02*
X0301000Y0131000D01*
X0305044Y0135300D02*
X0306000Y0134344D01*
X0306956Y0135300D01*
X0305044Y0135300D01*
X0305436Y0134908D02*
X0306564Y0134908D01*
X0315044Y0135300D02*
X0316000Y0134344D01*
X0316956Y0135300D01*
X0315044Y0135300D01*
X0315436Y0134908D02*
X0316564Y0134908D01*
X0325044Y0135300D02*
X0326956Y0135300D01*
X0326000Y0134344D01*
X0325044Y0135300D01*
X0325436Y0134908D02*
X0326564Y0134908D01*
X0336912Y0136906D02*
X0372744Y0136906D01*
X0372155Y0137495D02*
X0374463Y0135187D01*
X0377478Y0133938D01*
X0380742Y0133938D01*
X0383757Y0135187D01*
X0386065Y0137495D01*
X0387314Y0140510D01*
X0387314Y0143774D01*
X0386065Y0146789D01*
X0383757Y0149097D01*
X0380742Y0150346D01*
X0377478Y0150346D01*
X0374463Y0149097D01*
X0372155Y0146789D01*
X0370906Y0143774D01*
X0370906Y0140510D01*
X0372155Y0137495D01*
X0371571Y0138905D02*
X0334914Y0138905D01*
X0335974Y0142294D02*
X0339254Y0141100D01*
X0340483Y0141100D01*
X0342746Y0141100D01*
X0346026Y0142294D01*
X0346026Y0142294D01*
X0348701Y0144538D01*
X0348701Y0144538D01*
X0348701Y0144538D01*
X0350446Y0147562D01*
X0351053Y0151000D01*
X0350446Y0154438D01*
X0350446Y0154438D01*
X0348701Y0157462D01*
X0346026Y0159706D01*
X0342746Y0160900D01*
X0339254Y0160900D01*
X0335974Y0159706D01*
X0335974Y0159706D01*
X0333299Y0157462D01*
X0331554Y0154438D01*
X0330947Y0151000D01*
X0331554Y0147562D01*
X0333299Y0144538D01*
X0335974Y0142294D01*
X0335974Y0142294D01*
X0335249Y0142902D02*
X0076598Y0142902D01*
X0076900Y0140903D02*
X0370906Y0140903D01*
X0370906Y0142902D02*
X0346751Y0142902D01*
X0348910Y0144900D02*
X0371373Y0144900D01*
X0372265Y0146899D02*
X0350064Y0146899D01*
X0350446Y0147562D02*
X0350446Y0147562D01*
X0350682Y0148897D02*
X0374264Y0148897D01*
X0383957Y0148897D02*
X0406000Y0148897D01*
X0406000Y0150896D02*
X0351034Y0150896D01*
X0351053Y0151000D02*
X0351053Y0151000D01*
X0350719Y0152894D02*
X0406000Y0152894D01*
X0406000Y0154893D02*
X0350184Y0154893D01*
X0349030Y0156891D02*
X0406000Y0156891D01*
X0406000Y0158890D02*
X0346999Y0158890D01*
X0346026Y0159706D02*
X0346026Y0159706D01*
X0342778Y0160888D02*
X0406000Y0160888D01*
X0406000Y0146899D02*
X0385955Y0146899D01*
X0386847Y0144900D02*
X0406000Y0144900D01*
X0406000Y0142902D02*
X0387314Y0142902D01*
X0387314Y0140903D02*
X0406000Y0140903D01*
X0406000Y0138905D02*
X0386649Y0138905D01*
X0385477Y0136906D02*
X0406000Y0136906D01*
X0406000Y0134908D02*
X0383084Y0134908D01*
X0375137Y0134908D02*
X0345436Y0134908D01*
X0346595Y0132909D02*
X0406000Y0132909D01*
X0406000Y0130911D02*
X0346900Y0130911D01*
X0346521Y0128912D02*
X0406000Y0128912D01*
X0406000Y0126914D02*
X0345258Y0126914D01*
X0342903Y0124915D02*
X0406000Y0124915D01*
X0406000Y0122917D02*
X0344902Y0122917D01*
X0346900Y0120918D02*
X0406000Y0120918D01*
X0406000Y0118920D02*
X0387771Y0118920D01*
X0387037Y0119224D02*
X0388952Y0118430D01*
X0390418Y0116964D01*
X0391212Y0115048D01*
X0391212Y0106951D01*
X0390418Y0105036D01*
X0388952Y0103570D01*
X0387037Y0102776D01*
X0384963Y0102776D01*
X0383048Y0103570D01*
X0381582Y0105036D01*
X0380788Y0106951D01*
X0380788Y0115048D01*
X0381582Y0116964D01*
X0383048Y0118430D01*
X0384963Y0119224D01*
X0387037Y0119224D01*
X0384229Y0118920D02*
X0348899Y0118920D01*
X0350897Y0116921D02*
X0381564Y0116921D01*
X0380788Y0114923D02*
X0352896Y0114923D01*
X0354894Y0112924D02*
X0380788Y0112924D01*
X0380788Y0110926D02*
X0356893Y0110926D01*
X0358891Y0108927D02*
X0380788Y0108927D01*
X0380798Y0106929D02*
X0360890Y0106929D01*
X0362888Y0104930D02*
X0381688Y0104930D01*
X0384589Y0102932D02*
X0364887Y0102932D01*
X0366885Y0100933D02*
X0406000Y0100933D01*
X0406000Y0098934D02*
X0368884Y0098934D01*
X0370882Y0096936D02*
X0406000Y0096936D01*
X0406000Y0094937D02*
X0372881Y0094937D01*
X0374879Y0092939D02*
X0406000Y0092939D01*
X0406000Y0090940D02*
X0376878Y0090940D01*
X0378876Y0088942D02*
X0406000Y0088942D01*
X0406000Y0086943D02*
X0380875Y0086943D01*
X0382873Y0084945D02*
X0406000Y0084945D01*
X0406000Y0082946D02*
X0384872Y0082946D01*
X0386870Y0080948D02*
X0388104Y0080948D01*
X0394896Y0080948D02*
X0406000Y0080948D01*
X0406000Y0078949D02*
X0396664Y0078949D01*
X0397400Y0076951D02*
X0406000Y0076951D01*
X0406000Y0074952D02*
X0397400Y0074952D01*
X0396624Y0072954D02*
X0406000Y0072954D01*
X0406000Y0070955D02*
X0397863Y0070955D01*
X0399526Y0068957D02*
X0406000Y0068957D01*
X0406000Y0066958D02*
X0399700Y0066958D01*
X0399700Y0064960D02*
X0406000Y0064960D01*
X0406000Y0062961D02*
X0399700Y0062961D01*
X0399700Y0060963D02*
X0406000Y0060963D01*
X0406000Y0058964D02*
X0399700Y0058964D01*
X0399700Y0056966D02*
X0406000Y0056966D01*
X0406000Y0054967D02*
X0399700Y0054967D01*
X0399495Y0052969D02*
X0406000Y0052969D01*
X0406000Y0050970D02*
X0397789Y0050970D01*
X0396655Y0048972D02*
X0406000Y0048972D01*
X0406000Y0046973D02*
X0397400Y0046973D01*
X0397400Y0044975D02*
X0406000Y0044975D01*
X0406000Y0042976D02*
X0396634Y0042976D01*
X0394792Y0040978D02*
X0406000Y0040978D01*
X0406000Y0038979D02*
X0385652Y0038979D01*
X0386400Y0036981D02*
X0406000Y0036981D01*
X0406000Y0034982D02*
X0386400Y0034982D01*
X0385637Y0032984D02*
X0406000Y0032984D01*
X0406000Y0030985D02*
X0383810Y0030985D01*
X0377190Y0030985D02*
X0368803Y0030985D01*
X0366805Y0028987D02*
X0406000Y0028987D01*
X0406000Y0026988D02*
X0364806Y0026988D01*
X0363808Y0024990D02*
X0406000Y0024990D01*
X0406000Y0022991D02*
X0361809Y0022991D01*
X0359811Y0020993D02*
X0406000Y0020993D01*
X0406000Y0018994D02*
X0357812Y0018994D01*
X0355814Y0016996D02*
X0406000Y0016996D01*
X0406000Y0014997D02*
X0353815Y0014997D01*
X0351817Y0012999D02*
X0406000Y0012999D01*
X0406000Y0011000D02*
X0349818Y0011000D01*
X0344882Y0016700D02*
X0339518Y0016700D01*
X0341289Y0018471D01*
X0341700Y0019463D01*
X0341700Y0020537D01*
X0341700Y0027308D01*
X0343299Y0024538D01*
X0345974Y0022294D01*
X0349254Y0021100D01*
X0349282Y0021100D01*
X0344882Y0016700D01*
X0345177Y0016996D02*
X0339814Y0016996D01*
X0341506Y0018994D02*
X0347176Y0018994D01*
X0349174Y0020993D02*
X0341700Y0020993D01*
X0341700Y0022991D02*
X0345143Y0022991D01*
X0345974Y0022294D02*
X0345974Y0022294D01*
X0343299Y0024538D02*
X0343299Y0024538D01*
X0343039Y0024990D02*
X0341700Y0024990D01*
X0341700Y0026988D02*
X0341885Y0026988D01*
X0358701Y0037462D02*
X0359412Y0036230D01*
X0375669Y0052487D01*
X0375498Y0052658D01*
X0374600Y0054826D01*
X0374600Y0057174D01*
X0375498Y0059342D01*
X0377156Y0061000D01*
X0375498Y0062658D01*
X0375232Y0063300D01*
X0375118Y0063300D01*
X0352718Y0040900D01*
X0352746Y0040900D01*
X0356026Y0039706D01*
X0356026Y0039706D01*
X0358701Y0037462D01*
X0358701Y0037462D01*
X0358979Y0036981D02*
X0360162Y0036981D01*
X0362161Y0038979D02*
X0356892Y0038979D01*
X0352796Y0040978D02*
X0364159Y0040978D01*
X0366158Y0042976D02*
X0354795Y0042976D01*
X0356793Y0044975D02*
X0368156Y0044975D01*
X0370155Y0046973D02*
X0358792Y0046973D01*
X0360790Y0048972D02*
X0372153Y0048972D01*
X0374152Y0050970D02*
X0362789Y0050970D01*
X0364787Y0052969D02*
X0375369Y0052969D01*
X0374600Y0054967D02*
X0366786Y0054967D01*
X0368784Y0056966D02*
X0374600Y0056966D01*
X0375342Y0058964D02*
X0370783Y0058964D01*
X0372781Y0060963D02*
X0377119Y0060963D01*
X0375373Y0062961D02*
X0374780Y0062961D01*
X0366141Y0064960D02*
X0338700Y0064960D01*
X0338700Y0062961D02*
X0364143Y0062961D01*
X0362144Y0060963D02*
X0338700Y0060963D01*
X0338700Y0058964D02*
X0360146Y0058964D01*
X0358147Y0056966D02*
X0338700Y0056966D01*
X0338502Y0054967D02*
X0356149Y0054967D01*
X0354150Y0052969D02*
X0335444Y0052969D01*
X0334034Y0050970D02*
X0352152Y0050970D01*
X0350153Y0048972D02*
X0335033Y0048972D01*
X0336032Y0046973D02*
X0348155Y0046973D01*
X0346156Y0044975D02*
X0337031Y0044975D01*
X0338031Y0042976D02*
X0344158Y0042976D01*
X0342159Y0040978D02*
X0338708Y0040978D01*
X0338700Y0038979D02*
X0340161Y0038979D01*
X0370802Y0032984D02*
X0375363Y0032984D01*
X0374600Y0034982D02*
X0372800Y0034982D01*
X0383866Y0040978D02*
X0388208Y0040978D01*
X0386366Y0042976D02*
X0385634Y0042976D01*
X0386000Y0048139D02*
X0385502Y0049342D01*
X0383844Y0051000D01*
X0385502Y0052658D01*
X0386000Y0053861D01*
X0386498Y0052658D01*
X0388156Y0051000D01*
X0386498Y0049342D01*
X0386000Y0048139D01*
X0385655Y0048972D02*
X0386345Y0048972D01*
X0388126Y0050970D02*
X0383874Y0050970D01*
X0385631Y0052969D02*
X0386369Y0052969D01*
X0386000Y0058139D02*
X0385502Y0059342D01*
X0383844Y0061000D01*
X0385502Y0062658D01*
X0386000Y0063861D01*
X0386498Y0062658D01*
X0388156Y0061000D01*
X0386498Y0059342D01*
X0386000Y0058139D01*
X0385658Y0058964D02*
X0386342Y0058964D01*
X0388119Y0060963D02*
X0383881Y0060963D01*
X0385627Y0062961D02*
X0386373Y0062961D01*
X0370138Y0068957D02*
X0338700Y0068957D01*
X0338700Y0070955D02*
X0372137Y0070955D01*
X0374135Y0072954D02*
X0338700Y0072954D01*
X0338700Y0074952D02*
X0374600Y0074952D01*
X0374600Y0076951D02*
X0338700Y0076951D01*
X0338700Y0078949D02*
X0375336Y0078949D01*
X0377104Y0080948D02*
X0338700Y0080948D01*
X0338700Y0082946D02*
X0377235Y0082946D01*
X0375237Y0084945D02*
X0338700Y0084945D01*
X0338700Y0086943D02*
X0373238Y0086943D01*
X0371240Y0088942D02*
X0338700Y0088942D01*
X0338739Y0090940D02*
X0369241Y0090940D01*
X0367243Y0092939D02*
X0337985Y0092939D01*
X0336786Y0094937D02*
X0365244Y0094937D01*
X0363246Y0096936D02*
X0335587Y0096936D01*
X0334388Y0098934D02*
X0361247Y0098934D01*
X0359249Y0100933D02*
X0333189Y0100933D01*
X0331990Y0102932D02*
X0357250Y0102932D01*
X0355252Y0104930D02*
X0330791Y0104930D01*
X0329592Y0106929D02*
X0353253Y0106929D01*
X0351255Y0108927D02*
X0328392Y0108927D01*
X0327193Y0110926D02*
X0349256Y0110926D01*
X0347258Y0112924D02*
X0325994Y0112924D01*
X0324795Y0114923D02*
X0345259Y0114923D01*
X0343261Y0116921D02*
X0323596Y0116921D01*
X0296956Y0135300D02*
X0295998Y0134342D01*
X0295732Y0133700D01*
X0265118Y0133700D01*
X0263518Y0135300D01*
X0296956Y0135300D01*
X0296564Y0134908D02*
X0263911Y0134908D01*
X0260271Y0130911D02*
X0132729Y0130911D01*
X0134728Y0132909D02*
X0258272Y0132909D01*
X0262269Y0128912D02*
X0130731Y0128912D01*
X0125092Y0130911D02*
X0076900Y0130911D01*
X0076728Y0132909D02*
X0127091Y0132909D01*
X0129089Y0134908D02*
X0078726Y0134908D01*
X0076521Y0128912D02*
X0123094Y0128912D01*
X0121095Y0126914D02*
X0075258Y0126914D01*
X0075429Y0124915D02*
X0119097Y0124915D01*
X0117098Y0122917D02*
X0076592Y0122917D01*
X0076900Y0120918D02*
X0115100Y0120918D01*
X0113101Y0118920D02*
X0076524Y0118920D01*
X0075265Y0116921D02*
X0111103Y0116921D01*
X0109104Y0114923D02*
X0075421Y0114923D01*
X0076589Y0112924D02*
X0107106Y0112924D01*
X0105107Y0110926D02*
X0076900Y0110926D01*
X0076527Y0108927D02*
X0103109Y0108927D01*
X0101110Y0106929D02*
X0075272Y0106929D01*
X0066728Y0106929D02*
X0006000Y0106929D01*
X0006000Y0108927D02*
X0065473Y0108927D01*
X0065100Y0110926D02*
X0006000Y0110926D01*
X0006000Y0112924D02*
X0065411Y0112924D01*
X0066579Y0114923D02*
X0006000Y0114923D01*
X0006000Y0116921D02*
X0066735Y0116921D01*
X0065476Y0118920D02*
X0006000Y0118920D01*
X0006000Y0120918D02*
X0065100Y0120918D01*
X0065408Y0122917D02*
X0006000Y0122917D01*
X0006000Y0124915D02*
X0066571Y0124915D01*
X0066742Y0126914D02*
X0006000Y0126914D01*
X0006000Y0128912D02*
X0065479Y0128912D01*
X0065100Y0130911D02*
X0006000Y0130911D01*
X0006000Y0132909D02*
X0065405Y0132909D01*
X0066564Y0134908D02*
X0006000Y0134908D01*
X0006000Y0136906D02*
X0066750Y0136906D01*
X0065482Y0138905D02*
X0006000Y0138905D01*
X0006000Y0140903D02*
X0065100Y0140903D01*
X0065402Y0142902D02*
X0021751Y0142902D01*
X0023910Y0144900D02*
X0066556Y0144900D01*
X0069823Y0146899D02*
X0025064Y0146899D01*
X0025446Y0147562D02*
X0025446Y0147562D01*
X0025682Y0148897D02*
X0331318Y0148897D01*
X0331554Y0147562D02*
X0331554Y0147562D01*
X0331936Y0146899D02*
X0072177Y0146899D01*
X0075444Y0144900D02*
X0333090Y0144900D01*
X0333299Y0144538D02*
X0333299Y0144538D01*
X0330966Y0150896D02*
X0026034Y0150896D01*
X0026053Y0151000D02*
X0026053Y0151000D01*
X0025719Y0152894D02*
X0331281Y0152894D01*
X0331554Y0154438D02*
X0331554Y0154438D01*
X0331816Y0154893D02*
X0025184Y0154893D01*
X0024030Y0156891D02*
X0332970Y0156891D01*
X0333299Y0157462D02*
X0333299Y0157462D01*
X0333299Y0157462D01*
X0335001Y0158890D02*
X0021999Y0158890D01*
X0021026Y0159706D02*
X0021026Y0159706D01*
X0017778Y0160888D02*
X0339222Y0160888D01*
X0348701Y0157462D02*
X0348701Y0157462D01*
X0330947Y0151000D02*
X0330947Y0151000D01*
X0390436Y0116921D02*
X0406000Y0116921D01*
X0406000Y0114923D02*
X0391212Y0114923D01*
X0391212Y0112924D02*
X0406000Y0112924D01*
X0406000Y0110926D02*
X0391212Y0110926D01*
X0391212Y0108927D02*
X0406000Y0108927D01*
X0406000Y0106929D02*
X0391202Y0106929D01*
X0390312Y0104930D02*
X0406000Y0104930D01*
X0406000Y0102932D02*
X0387411Y0102932D01*
X0368140Y0066958D02*
X0338700Y0066958D01*
X0297211Y0050970D02*
X0199200Y0050970D01*
X0198731Y0052969D02*
X0295213Y0052969D01*
X0293214Y0054967D02*
X0196397Y0054967D01*
X0193603Y0054967D02*
X0133397Y0054967D01*
X0130603Y0054967D02*
X0035877Y0054967D01*
X0028156Y0056000D02*
X0026498Y0057658D01*
X0026000Y0058861D01*
X0025502Y0057658D01*
X0023844Y0056000D01*
X0025502Y0054342D01*
X0026000Y0053139D01*
X0026498Y0054342D01*
X0028156Y0056000D01*
X0027190Y0056966D02*
X0024810Y0056966D01*
X0024877Y0054967D02*
X0027123Y0054967D01*
X0024513Y0046669D02*
X0026669Y0044513D01*
X0026498Y0044342D01*
X0026000Y0043139D01*
X0025502Y0044342D01*
X0023844Y0046000D01*
X0024513Y0046669D01*
X0024869Y0044975D02*
X0026207Y0044975D01*
X0036933Y0043300D02*
X0138992Y0043300D01*
X0138800Y0042835D01*
X0138800Y0041165D01*
X0139439Y0039621D01*
X0140621Y0038439D01*
X0142165Y0037800D01*
X0143382Y0037800D01*
X0166482Y0014700D01*
X0068794Y0014700D01*
X0070446Y0017562D01*
X0071053Y0021000D01*
X0071053Y0021000D01*
X0070446Y0024438D01*
X0068701Y0027462D01*
X0066026Y0029706D01*
X0062746Y0030900D01*
X0059254Y0030900D01*
X0055974Y0029706D01*
X0055974Y0029706D01*
X0053299Y0027462D01*
X0051554Y0024438D01*
X0051228Y0022591D01*
X0036331Y0037487D01*
X0036502Y0037658D01*
X0037400Y0039826D01*
X0037400Y0042174D01*
X0036933Y0043300D01*
X0037068Y0042976D02*
X0138858Y0042976D01*
X0138877Y0040978D02*
X0037400Y0040978D01*
X0037049Y0038979D02*
X0140081Y0038979D01*
X0144201Y0036981D02*
X0036838Y0036981D01*
X0038836Y0034982D02*
X0146199Y0034982D01*
X0148198Y0032984D02*
X0040835Y0032984D01*
X0042833Y0030985D02*
X0150197Y0030985D01*
X0152195Y0028987D02*
X0066884Y0028987D01*
X0066026Y0029706D02*
X0066026Y0029706D01*
X0068701Y0027462D02*
X0068701Y0027462D01*
X0068974Y0026988D02*
X0154194Y0026988D01*
X0159832Y0028987D02*
X0165195Y0028987D01*
X0163197Y0030985D02*
X0157833Y0030985D01*
X0155835Y0032984D02*
X0161198Y0032984D01*
X0159199Y0034982D02*
X0153836Y0034982D01*
X0151838Y0036981D02*
X0157201Y0036981D01*
X0155202Y0038979D02*
X0149839Y0038979D01*
X0147841Y0040978D02*
X0153204Y0040978D01*
X0151205Y0042976D02*
X0147142Y0042976D01*
X0147200Y0042835D02*
X0147008Y0043300D01*
X0150882Y0043300D01*
X0168800Y0025382D01*
X0168800Y0024165D01*
X0169439Y0022621D01*
X0170621Y0021439D01*
X0172165Y0020800D01*
X0173382Y0020800D01*
X0177482Y0016700D01*
X0172118Y0016700D01*
X0147200Y0041618D01*
X0147200Y0042835D01*
X0154845Y0046973D02*
X0193746Y0046973D01*
X0196254Y0046973D02*
X0301208Y0046973D01*
X0299210Y0048972D02*
X0198706Y0048972D01*
X0188379Y0039561D02*
X0186835Y0040200D01*
X0185165Y0040200D01*
X0183621Y0039561D01*
X0182439Y0038379D01*
X0181800Y0036835D01*
X0181800Y0035165D01*
X0182439Y0033621D01*
X0183621Y0032439D01*
X0185165Y0031800D01*
X0186835Y0031800D01*
X0187929Y0032253D01*
X0192800Y0027382D01*
X0192800Y0026165D01*
X0193439Y0024621D01*
X0194621Y0023439D01*
X0196165Y0022800D01*
X0197835Y0022800D01*
X0199379Y0023439D01*
X0200561Y0024621D01*
X0201200Y0026165D01*
X0201200Y0027835D01*
X0200561Y0029379D01*
X0199379Y0030561D01*
X0197835Y0031200D01*
X0196618Y0031200D01*
X0190289Y0037529D01*
X0189646Y0038172D01*
X0189561Y0038379D01*
X0188379Y0039561D01*
X0188961Y0038979D02*
X0276935Y0038979D01*
X0275559Y0036981D02*
X0190838Y0036981D01*
X0192836Y0034982D02*
X0275100Y0034982D01*
X0275100Y0032984D02*
X0194835Y0032984D01*
X0198354Y0030985D02*
X0275100Y0030985D01*
X0275100Y0028987D02*
X0200723Y0028987D01*
X0201200Y0026988D02*
X0239048Y0026988D01*
X0244952Y0026988D02*
X0275100Y0026988D01*
X0275882Y0021300D02*
X0276482Y0020700D01*
X0244640Y0020700D01*
X0245240Y0021300D01*
X0275882Y0021300D01*
X0276189Y0020993D02*
X0244932Y0020993D01*
X0239068Y0020993D02*
X0188826Y0020993D01*
X0186827Y0022991D02*
X0195703Y0022991D01*
X0198297Y0022991D02*
X0237872Y0022991D01*
X0237864Y0024990D02*
X0200713Y0024990D01*
X0193287Y0024990D02*
X0184829Y0024990D01*
X0180382Y0021800D02*
X0180018Y0021800D01*
X0183118Y0018700D01*
X0183482Y0018700D01*
X0180382Y0021800D01*
X0180826Y0020993D02*
X0181189Y0020993D01*
X0182824Y0018994D02*
X0183188Y0018994D01*
X0177186Y0016996D02*
X0171823Y0016996D01*
X0169824Y0018994D02*
X0175188Y0018994D01*
X0171700Y0020993D02*
X0167826Y0020993D01*
X0169286Y0022991D02*
X0165827Y0022991D01*
X0163829Y0024990D02*
X0168800Y0024990D01*
X0167194Y0026988D02*
X0161830Y0026988D01*
X0156192Y0024990D02*
X0070128Y0024990D01*
X0070702Y0022991D02*
X0158191Y0022991D01*
X0160189Y0020993D02*
X0071051Y0020993D01*
X0070699Y0018994D02*
X0162188Y0018994D01*
X0164186Y0016996D02*
X0070120Y0016996D01*
X0070446Y0017562D02*
X0070446Y0017562D01*
X0068966Y0014997D02*
X0166185Y0014997D01*
X0184137Y0026988D02*
X0192800Y0026988D01*
X0191195Y0028987D02*
X0182953Y0028987D01*
X0189197Y0030985D02*
X0170833Y0030985D01*
X0168835Y0032984D02*
X0183077Y0032984D01*
X0181876Y0034982D02*
X0166836Y0034982D01*
X0164838Y0036981D02*
X0181860Y0036981D01*
X0183039Y0038979D02*
X0162839Y0038979D01*
X0160841Y0040978D02*
X0307204Y0040978D01*
X0306935Y0038979D02*
X0305065Y0038979D01*
X0305205Y0042976D02*
X0158842Y0042976D01*
X0156844Y0044975D02*
X0303207Y0044975D01*
X0296935Y0038979D02*
X0295065Y0038979D01*
X0286935Y0038979D02*
X0285065Y0038979D01*
X0304342Y0022298D02*
X0306000Y0023956D01*
X0307658Y0022298D01*
X0309826Y0021400D01*
X0312174Y0021400D01*
X0313300Y0021867D01*
X0313300Y0020700D01*
X0295518Y0020700D01*
X0297387Y0022569D01*
X0297658Y0022298D01*
X0299826Y0021400D01*
X0302174Y0021400D01*
X0304342Y0022298D01*
X0305035Y0022991D02*
X0306965Y0022991D01*
X0313300Y0020993D02*
X0295811Y0020993D01*
X0251698Y0066958D02*
X0035802Y0066958D01*
X0006000Y0086943D02*
X0066713Y0086943D01*
X0065466Y0088942D02*
X0006000Y0088942D01*
X0006000Y0090940D02*
X0065100Y0090940D01*
X0065417Y0092939D02*
X0006000Y0092939D01*
X0006000Y0094937D02*
X0066594Y0094937D01*
X0066720Y0096936D02*
X0006000Y0096936D01*
X0006000Y0098934D02*
X0065469Y0098934D01*
X0065100Y0100933D02*
X0006000Y0100933D01*
X0006000Y0102932D02*
X0065414Y0102932D01*
X0066586Y0104930D02*
X0006000Y0104930D01*
X0092759Y0090940D02*
X0243300Y0090940D01*
X0243300Y0092939D02*
X0094757Y0092939D01*
X0096756Y0094937D02*
X0243300Y0094937D01*
X0243300Y0096936D02*
X0098754Y0096936D01*
X0100753Y0098934D02*
X0243300Y0098934D01*
X0243300Y0100933D02*
X0102751Y0100933D01*
X0010974Y0142294D02*
X0010974Y0142294D01*
X0010249Y0142902D02*
X0006000Y0142902D01*
X0006000Y0144900D02*
X0008090Y0144900D01*
X0008299Y0144538D02*
X0008299Y0144538D01*
X0006936Y0146899D02*
X0006000Y0146899D01*
X0006000Y0148897D02*
X0006318Y0148897D01*
X0006281Y0152894D02*
X0006000Y0152894D01*
X0006000Y0154893D02*
X0006816Y0154893D01*
X0006891Y0156891D02*
X0007970Y0156891D01*
X0008299Y0157462D02*
X0008299Y0157462D01*
X0008299Y0157462D01*
X0008890Y0158890D02*
X0010001Y0158890D01*
X0010888Y0160888D02*
X0014222Y0160888D01*
X0023701Y0157462D02*
X0023701Y0157462D01*
X0026064Y0032984D02*
X0033198Y0032984D01*
X0035197Y0030985D02*
X0026400Y0030985D01*
X0026052Y0028987D02*
X0037195Y0028987D01*
X0039194Y0026988D02*
X0024832Y0026988D01*
X0044832Y0028987D02*
X0055116Y0028987D01*
X0053299Y0027462D02*
X0053299Y0027462D01*
X0053299Y0027462D01*
X0053026Y0026988D02*
X0046830Y0026988D01*
X0048829Y0024990D02*
X0051872Y0024990D01*
X0051554Y0024438D02*
X0051554Y0024438D01*
X0051298Y0022991D02*
X0050827Y0022991D01*
X0174351Y0028987D02*
X0177047Y0028987D01*
D15*
X0180000Y0026000D03*
X0173000Y0025000D03*
X0197000Y0027000D03*
X0211000Y0026000D03*
X0186000Y0036000D03*
X0195000Y0051000D03*
X0143000Y0042000D03*
X0132000Y0051000D03*
X0242000Y0024000D03*
X0211000Y0006000D03*
X0336000Y0111000D03*
X0336000Y0116000D03*
X0361000Y0116000D03*
X0361000Y0111000D03*
M02*
